<?xml version="1.0" encoding="UTF-8"?>
<svg version="1.1" viewBox="0 0 609.94 625.48" xmlns="http://www.w3.org/2000/svg">
 <g transform="translate(-67.079 -110.37)">
  <path d="m471.65 372.04c58.104-3.05 130.53 5.1692 174.29 31.088 39.607 26.825 41.716 92.58 4.2323 122.15-27.213 25.105-75.525 25.335-100.01-3.7841-16.864-18.506-24.585-45.21-47.085-58.409-13.022-5.634-26.871-14.879-29.092-30.054-6.0963-19.511-10.74-41.4-2.3353-60.988z" fill="#484537"/>
  <path d="m576.24 438.22c-22.358 22.358-24.947 56.019-5.7833 75.183s52.825 16.575 75.183-5.7833 24.947-56.019 5.7833-75.183-52.825-16.575-75.183 5.7833z" fill="#a0892c"/>
  <path d="m537.15 207.6c6.5572-11.357 6.8009-28.739-0.77512-43.037s-17.193-35.52-35.311-45.98-41.305-8.1782-57.476-7.5903c-16.17 0.5879-31.101 9.4897-37.658 20.847-13.114 22.715 8.1053 53.799 44.341 74.72s73.765 23.755 86.88 1.0404z" fill="#6c6753"/>
  <path d="m206.94 207.6c-6.5572-11.357-6.8009-28.739 0.77512-43.037s17.193-35.52 35.311-45.98 41.305-8.1782 57.476-7.5903c16.17 0.5879 31.101 9.4897 37.658 20.847 13.114 22.715-8.1053 53.799-44.341 74.72s-73.765 23.755-86.88 1.0404z" fill="#6c6753"/>
  <path d="m272.45 372.04c-58.104-3.05-130.53 5.1692-174.29 31.088-39.607 26.825-41.716 92.58-4.2323 122.15 27.213 25.105 75.525 25.335 100.01-3.7841 16.864-18.506 24.585-45.21 47.085-58.409 13.022-5.634 26.871-14.879 29.092-30.054 6.0963-19.511 10.74-41.4 2.3353-60.988z" fill="#484537"/>
  <path d="m167.86 438.22c22.358 22.358 24.947 56.019 5.7833 75.183s-52.825 16.575-75.183-5.7833-24.947-56.019-5.7833-75.183 52.825-16.575 75.183 5.7833z" fill="#a0892c"/>
  <path d="m566.84 556.76c0 168.2-118.63 159.34-194.8 159.34-76.164 0-194.8 10.96-194.8-159.34 0-64.203 37.094-91.747 72.345-133.82 35.251-42.074 68.66-98.678 122.45-98.678 53.791 0 87.2 56.604 122.45 98.678 35.251 42.074 72.345 69.618 72.345 133.82z" fill="#6c6753"/>
  <path d="m511.83 550.87c0 113.79-44.421 111.91-139.78 111.91-95.362 0-139.78 3.2966-139.78-111.91 0-43.434 37.094-46.068 60.942-74.532s42.449-30.757 78.84-30.757 54.992 2.2936 78.84 30.757c23.848 28.464 60.942 31.097 60.942 74.532z" fill="#918a6f"/>
  <path d="m273.2 607.89c15.077 56.27-11.799 112.36-60.03 125.29-48.231 12.924-99.553-22.216-114.63-78.485-15.077-56.27 11.799-112.36 60.03-125.29 48.231-12.924 99.553 22.216 114.63 78.485z" fill="#484537"/>
  <path d="m179.73 542.35c37.969 1e-5 68.749 26.383 68.749 58.928 1e-5 32.545-30.78 58.928-68.749 58.928s-68.749-26.383-68.749-58.928 30.78-58.928 68.749-58.928z" fill="#6c6753"/>
  <path d="m139.79 543.63c12.163 9.7069 18.277 24.576 13.657 33.21-4.6202 8.6345-18.226 7.7652-30.388-1.9417-12.163-9.7069-18.277-24.576-13.657-33.21 4.6202-8.6346 18.226-7.7652 30.388 1.9417z" fill="#28220b"/>
  <path d="m186.96 534.82c6.1553 14.292 4.5437 30.288-3.5997 35.728-8.1433 5.4396-19.735-1.737-25.89-16.029-6.1553-14.292-4.5436-30.288 3.5996-35.728 8.1433-5.4396 19.735 1.737 25.89 16.029z" fill="#28220b"/>
  <path d="m236.42 553.29c-5.5256 14.547-17.814 24.913-27.448 23.153-9.6334-1.7605-12.963-14.981-7.4378-29.528 5.5256-14.547 17.814-24.913 27.448-23.153 9.6334 1.7605 12.963 14.981 7.4378 29.528z" fill="#28220b"/>
  <path d="m203.27 634.92c-10.958 11.175-29.558 13.966-41.544 6.2345-11.986-7.7317-12.821-23.058-1.8629-34.233s29.558-13.966 41.544-6.2345c11.987 7.7317 12.821 23.058 1.8629 34.233z" fill="#28220b"/>
  <path d="m383.79 593.51c0 7.5656-5.2569 13.699-11.742 13.699-6.4847 0-11.742-6.1331-11.742-13.699 0-7.5655 5.2569-13.699 11.742-13.699 6.4848 0 11.742 6.1331 11.742 13.699z" fill="#484537"/>
  <g transform="matrix(-.96593 .25882 .25882 .96593 586.78 -28.847)">
   <path d="m276.74 585.05c29.127 50.45 17.684 111.59-25.558 136.55-43.243 24.966-101.91 4.3076-131.04-46.142-29.127-50.45-17.684-111.59 25.558-136.55 43.243-24.966 101.91-4.3076 131.04 46.142z" fill="#484537"/>
   <path d="m169.49 545.94c36.675-9.8272 73.235 7.6904 81.658 39.126 8.4233 31.436-14.48 64.887-51.155 74.714-36.675 9.8272-73.235-7.6904-81.658-39.126-8.4233-31.436 14.48-64.887 51.155-74.714z" fill="#6c6753"/>
   <path d="m131.24 557.51c14.261 6.2282 24.015 19.008 21.787 28.544-2.228 9.5361-15.595 12.218-29.855 5.9896-14.261-6.2282-24.015-19.008-21.787-28.544 2.228-9.5362 15.595-12.218 29.855-5.9896z" fill="#28220b"/>
   <path d="m174.52 536.79c9.6447 12.212 12.228 28.08 5.77 35.442-6.458 7.3618-19.512 3.4298-29.156-8.7824-9.6447-12.212-12.228-28.08-5.77-35.442 6.458-7.3619 19.512-3.4299 29.156 8.7824z" fill="#28220b"/>
   <path d="m227.07 541.83c-1.5722 15.482-10.759 28.675-20.52 29.468-9.7608 0.79279-16.399-11.115-14.827-26.597 1.5722-15.482 10.759-28.675 20.52-29.468 9.7608-0.7928 16.399 11.115 14.827 26.597z" fill="#28220b"/>
   <path d="m216.18 629.25c-7.692 13.63-24.936 21.14-38.515 16.774-13.579-4.3659-18.352-18.955-10.66-32.585s24.936-21.14 38.515-16.774c13.579 4.3659 18.352 18.955 10.66 32.585z" fill="#28220b"/>
  </g>
  <path d="m225.38 196.08c-4.7004-8.1414-4.8751-20.601 0.55563-30.85s12.325-25.462 25.312-32.96c12.987-7.4983 29.609-5.8624 41.2-5.441 11.591 0.42143 22.294 6.8025 26.995 14.944 9.4008 16.283-5.8102 38.565-31.785 53.562s-52.877 17.029-62.278 0.74582z" fill="#484537"/>
  <path d="m516.72 196.08c4.7004-8.1414 4.8751-20.601-0.55563-30.85s-12.325-25.462-25.312-32.96c-12.987-7.4983-29.609-5.8624-41.2-5.441-11.591 0.42143-22.294 6.8025-26.995 14.944-9.4008 16.283 5.8102 38.565 31.785 53.562s52.877 17.029 62.278 0.74582z" fill="#484537"/>
  <path d="m557.66 292.17c0 39.341-36.776 58.957-70.366 84.739-33.59 25.781-63.994 57.727-115.25 57.727-51.257 0-81.661-31.946-115.25-57.727-33.59-25.781-70.366-45.398-70.366-84.739 0-78.682 83.103-142.47 185.62-142.47 102.51 0 185.62 63.784 185.62 142.47z" fill="#918a6f"/>
  <path d="m336.06 195.12c-31.775 0-57.562 25.756-57.562 57.531s25.787 57.531 57.562 57.531c13.632 0 26.142-4.7335 36-12.656 9.8554 7.9136 22.377 12.656 36 12.656 31.775 0 57.531-25.756 57.531-57.531s-25.756-57.531-57.531-57.531c-13.623 0-26.145 4.774-36 12.688-9.8584-7.9227-22.368-12.688-36-12.688z" fill="#fff"/>
  <path d="m463.83 332.47c0 15.888-10.273 34.271-26.882 44.683s-39.554 26.851-64.899 26.851-48.29-16.44-64.899-26.851c-16.609-10.412-26.882-28.795-26.882-44.683 0-31.775 41.092-51.534 91.781-51.534s91.781 19.759 91.781 51.534z" fill="#decd87"/>
  <path d="m372.05 367.73v-40.909" fill="none"/>
  <path d="m371.93 390.14c32.244 0 45.2-18.86 45.2-18.86s-37.706 11.919-44.989-3.6672c-7.2832 15.324-45.396 3.6018-45.396 3.6018s12.941 18.926 45.186 18.926z"/>
  <path d="m387.43 383.61c0 2.4503-6.889 4.4367-15.387 4.4367s-15.387-1.9864-15.387-4.4367 6.889-4.4367 15.387-4.4367c8.4979 0 15.387 1.9864 15.387 4.4367z" fill="#800000"/>
  <path d="m299.61 345.76c11.292 25.193 40.408 31.379 61.726 28.875 9.4376-1.125 9.2422-6.875 10.71-6.875 1.4674 0 1.2108 5.5247 10.858 6.875 18.903 2.4767 55.549-3.5599 61.578-28.875" fill="none" stroke="#000" stroke-width="2"/>
  <path d="m405.82 320.17c0 7.1588-6.6921 10.728-12.804 15.42-6.1123 4.6914-11.645 10.505-20.972 10.505-9.3271 0-14.86-5.8132-20.972-10.505-6.1123-4.6914-12.804-8.261-12.804-15.42 0-14.318 15.122-25.924 33.776-25.924s33.776 11.607 33.776 25.924z"/>
  <g transform="matrix(.96593 -.25882 .25882 .96593 -52.434 105.6)">
   <path d="m365.06 248.94c0 10.97-5.8264 19.863-13.014 19.863-7.1873 0-13.014-8.893-13.014-19.863s5.8264-19.863 13.014-19.863c7.1873 0 13.014 8.893 13.014 19.863z"/>
   <path d="m356.68 237.66c0 2.5582-2.0738 4.632-4.632 4.632s-4.632-2.0738-4.632-4.632 2.0738-4.632 4.632-4.632 4.632 2.0738 4.632 4.632z" fill="#fff"/>
  </g>
  <g transform="matrix(.96593 .25882 -.25882 .96593 77.788 -86.987)">
   <path d="m405.06 248.94c0 10.97-5.8264 19.863-13.014 19.863-7.1873 0-13.014-8.893-13.014-19.863s5.8264-19.863 13.014-19.863c7.1873 0 13.014 8.893 13.014 19.863z"/>
   <path d="m396.68 237.66c0 2.5582-2.0738 4.632-4.632 4.632s-4.632-2.0738-4.632-4.632 2.0738-4.632 4.632-4.632 4.632 2.0738 4.632 4.632z" fill="#fff"/>
  </g>
  <path d="m326.25 370.73s12.561 19.409 45.798 19.409 45.798-19.409 45.798-19.409" fill="none" stroke="#000" stroke-width="2"/>
  <path d="m372.05 371.85v-40.909" fill="none" stroke="#000" stroke-width="2"/>
 </g>
</svg>
