<?xml version="1.0" encoding="UTF-8"?>
<!DOCTYPE svg  PUBLIC '-//W3C//DTD SVG 1.1//EN'  'http://www.w3.org/Graphics/SVG/1.1/DTD/svg11.dtd'>
<svg enable-background="new 0 0 63.25 43.05" version="1.1" viewBox="0 0 63.25 43.05" xml:space="preserve" xmlns="http://www.w3.org/2000/svg" xmlns:xlink="http://www.w3.org/1999/xlink">
<symbol id="ah">
</symbol>
<g clip-rule="evenodd" fill-rule="evenodd">
			<radialGradient id="y" cx="32.75" cy="39.1" r="21.862" gradientTransform="matrix(1 0 0 .191 0 31.633)" gradientUnits="userSpaceOnUse">
			<stop stop-opacity=".2118" offset=".6314"/>
			<stop stop-opacity="0" offset=".8824"/>
		</radialGradient>
		<path d="m58.4 39.1c0 0.7-0.7 1.534-2.101 2.5-1.434 0.934-7.934 1.417-19.5 1.45-11.533 0.033-19.367-0.434-23.5-1.399-4.133-1-6.2-1.851-6.2-2.551 0-0.767 2.5-1.416 7.5-1.949 5-0.434 11.05-0.65 18.15-0.65s13.134 0.217 18.1 0.65c5.035 0.533 7.551 1.182 7.551 1.949z" fill="url(#y)"/>
				<radialGradient id="z" cx="15.15" cy="22.5" r="46.175" gradientTransform="matrix(1 0 0 .5328 0 10.513)" gradientUnits="userSpaceOnUse">
				<stop stop-color="#ECE5D7" offset="0"/>
				<stop stop-color="#B49C8A" offset="1"/>
			</radialGradient>
			<path d="m0.05 18.45c0.267 1.8 3.317 3.35 9.15 4.649 6.167 1.367 13.583 2.051 22.25 2.051 8.7 0 16.133-0.684 22.3-2.051 5.434-1.2 8.45-2.616 9.05-4.25-0.033 0.267-0.05 0.517-0.05 0.75-0.4 3.034-1.75 6.183-4.05 9.45-1.233 1.867-2.884 3.55-4.95 5.05-1.9 1.467-4.134 2.75-6.7 3.851-2.6 1.1-5.35 1.783-8.25 2.05-2.899 0.233-5.633 0.316-8.2 0.25-2.633-0.1-5.383-0.467-8.25-1.1-2.434-0.534-4.8-1.284-7.1-2.25-5.167-2.3-8.917-5.167-11.25-8.6-2.167-3.1-3.45-6.1-3.85-9-0.033-0.1-0.05-0.2-0.05-0.3-0.033-0.167-0.05-0.35-0.05-0.55z" fill="url(#z)"/>
				<radialGradient id="aa" cx="12.1" cy="15.3" r="78.462" gradientTransform="matrix(1 0 0 .3852 0 9.4061)" gradientUnits="userSpaceOnUse">
				<stop stop-color="#fff" offset="0"/>
				<stop stop-color="#ECE5D7" offset=".1333"/>
				<stop stop-color="#B49C8A" offset="1"/>
			</radialGradient>
			<path d="m62.8 18.85c-0.6 1.633-3.616 3.05-9.05 4.25-6.167 1.367-13.6 2.051-22.3 2.051-8.667 0-16.083-0.684-22.25-2.051-5.833-1.3-8.883-2.85-9.15-4.649-0.033-0.068-0.05-0.151-0.05-0.251 0.033-1.934 3.1-3.567 9.2-4.9 6.167-1.367 13.583-2.05 22.25-2.05 8.7 0 16.133 0.683 22.3 2.05 6.134 1.333 9.2 2.967 9.2 4.9 0 0.233-0.05 0.45-0.15 0.65zm-2.15-0.8v-0.25c0-1.466-2.834-2.7-8.5-3.7-5.7-1.033-12.567-1.55-20.601-1.55s-14.9 0.517-20.6 1.55c-4.133 0.733-6.767 1.6-7.9 2.6-0.133 0.1-0.25 0.216-0.35 0.35-0.867 0.9-0.75 1.684 0.35 2.35l0.05 0.05c0 0.033 0.017 0.05 0.05 0.05 1.167 0.933 3.767 1.783 7.8 2.55 2.767 0.467 5.816 0.834 9.15 1.101 1.333 0.1 2.733 0.183 4.2 0.25 2.333 0.1 4.75 0.149 7.25 0.149 3 0 5.834-0.066 8.5-0.2 1.5-0.066 2.95-0.166 4.351-0.3 2.767-0.267 5.35-0.6 7.75-1 5.666-1.033 8.5-2.283 8.5-3.75v-0.25z" fill="url(#aa)"/>
			<radialGradient id="ab" cx="29.6" cy="9" r="29.375" gradientUnits="userSpaceOnUse">
				<stop stop-color="#ECE5D7" offset="0"/>
				<stop stop-color="#9A8575" offset=".9882"/>
			</radialGradient>
			<path d="m3.05 19.4c-0.4-0.367-0.6-0.733-0.6-1.1 0-0.1 0.017-0.183 0.05-0.25 0.3-1.333 3.117-2.483 8.45-3.45 5.7-1.033 12.566-1.55 20.6-1.55s14.9 0.517 20.601 1.55c5.366 0.967 8.199 2.117 8.5 3.45v0.25c0 1.467-2.834 2.717-8.5 3.75-2.4 0.4-4.983 0.733-7.75 1-1.4 0.134-2.851 0.233-4.351 0.3-2.666 0.134-5.5 0.2-8.5 0.2-2.5 0-4.917-0.05-7.25-0.149-1.466-0.067-2.867-0.15-4.2-0.25-3.333-0.267-6.383-0.634-9.15-1.101-4.034-0.767-6.633-1.617-7.8-2.55-0.033 0-0.05-0.017-0.05-0.05l-0.05-0.05z" fill="url(#ab)"/>
				<radialGradient id="ac" cx="12.1" cy="15.3" r="78.462" gradientTransform="matrix(1 0 0 .3852 0 9.4061)" gradientUnits="userSpaceOnUse">
				<stop stop-color="#BEB4A0" offset="0"/>
				<stop stop-color="#8D796B" offset="1"/>
			</radialGradient>
			<path d="m60.65 18.05c-0.301-1.333-3.134-2.483-8.5-3.45-5.7-1.033-12.567-1.55-20.601-1.55s-14.9 0.517-20.6 1.55c-5.333 0.967-8.15 2.117-8.45 3.45-0.033 0.067-0.05 0.15-0.05 0.25 0 0.367 0.2 0.733 0.6 1.1-1.1-0.667-1.216-1.45-0.35-2.35 0.1-0.133 0.216-0.25 0.35-0.35 1.133-1 3.767-1.867 7.9-2.6 5.7-1.033 12.566-1.55 20.6-1.55s14.9 0.517 20.601 1.55c5.666 1 8.5 2.233 8.5 3.7v0.25z" fill="url(#ac)"/>
				<path d="m62.8 18.85c-0.033 0.267-0.05 0.517-0.05 0.75-0.767 1.5-3.767 2.85-9 4.05-6.167 1.366-13.6 2.05-22.3 2.05-8.667 0-16.083-0.684-22.25-2.05-5.5-1.233-8.517-2.684-9.05-4.351-0.033-0.099-0.05-0.199-0.05-0.299-0.033-0.167-0.05-0.35-0.05-0.55 0.267 1.8 3.317 3.35 9.15 4.649 6.167 1.367 13.583 2.051 22.25 2.051 8.7 0 16.133-0.684 22.3-2.051 5.434-1.199 8.45-2.616 9.05-4.249z" fill-opacity=".1216"/>
					<radialGradient id="ad" cx="26.25" cy="24.45" r="4.625" gradientTransform="matrix(1 0 0 .1838 0 19.957)" gradientUnits="userSpaceOnUse">
					<stop stop-color="#fff" stop-opacity=".6627" offset="0"/>
					<stop stop-color="#fff" stop-opacity="0" offset="1"/>
				</radialGradient>
				<path d="m33.1 24.7v0.05c0.167 0.033 0.301 0.066 0.4 0.1-0.467 0.067-1.15 0.117-2.05 0.15-1.434 0-2.9-0.017-4.4-0.05-1.5-0.066-2.583-0.134-3.25-0.2-0.633-0.033-1.333-0.15-2.1-0.35-0.8-0.233-0.833-0.334-0.1-0.301 0.633 0.034 1.217-0.083 1.75-0.35 0.533-0.3 2.533-0.3 6 0 2.1 0.233 3.5 0.417 4.2 0.55l0.05 0.05c-0.333 0.101-0.5 0.217-0.5 0.351z" fill="url(#ad)"/>
					<radialGradient id="ae" cx="9.9502" cy="22.9" r="6.4272" gradientTransform="matrix(.9703 .2418 -.0349 .1401 1.0948 17.287)" gradientUnits="userSpaceOnUse">
					<stop stop-color="#fff" stop-opacity=".6627" offset="0"/>
					<stop stop-color="#fff" stop-opacity="0" offset="1"/>
				</radialGradient>
				<path d="m6.3 22.35c-1.8-0.633-2.633-1.016-2.5-1.149 0.067-0.167 0.083-0.534 0.05-1.1 4.2 1.333 7.383 2.15 9.55 2.45 2.133 0.334 4.233 0.483 6.3 0.45-0.934 0.7-0.95 1.25-0.05 1.65-3.8-0.335-7.283-0.851-10.45-1.551-1-0.233-1.917-0.449-2.75-0.649-0.1-0.034-0.15-0.067-0.15-0.101z" fill="url(#ae)"/>
				<linearGradient id="af" x1="2.9873" x2="9.1458" y1="13.464" y2="19.43" gradientUnits="userSpaceOnUse">
					<stop stop-opacity=".1765" offset="0"/>
					<stop stop-opacity="0" offset="1"/>
				</linearGradient>
				<path d="m3.05 19.4c-0.4-0.367-0.6-0.733-0.6-1.1 0-0.1 0.017-0.183 0.05-0.25 0.2-0.9 2.75-2.083 7.65-3.55-2.433 2.367-0.566 5.117 5.6 8.25-1.7-0.2-3.3-0.434-4.8-0.7-4.034-0.767-6.633-1.617-7.8-2.55-0.033 0-0.05-0.017-0.05-0.05l-0.05-0.05z" fill="url(#af)"/>
				<path d="m25.95 39.85c0.4 0 0.733 0.017 1 0.051 1.1 0.033 2.2 0.066 3.3 0.1 1.1 0.033 2.7-0.017 4.8-0.15 2.066-0.166 3.733-0.316 5-0.449 1.267-0.167 2.066-0.317 2.4-0.45 5.934-1.834 10.983-5.134 15.149-9.9 2.334-3.133 2.95-5.05 1.851-5.75l-6.9 1.5c-0.8 0.101-1.616 0.217-2.45 0.351-2.7 0.397-5.333 0.68-7.9 0.847-7.7 0.566-16.5-0.017-26.4-1.75 4.667 0.6 9.883 0.9 15.65 0.9 7.233 0 13.583-0.467 19.05-1.4 1.1-0.2 2.184-0.417 3.25-0.65 5.434-1.2 8.45-2.616 9.05-4.25-0.033 0.267-0.05 0.517-0.05 0.75-0.333 2.6-1.384 5.317-3.15 8.15-0.267 0.434-0.566 0.866-0.899 1.3-1.233 1.867-2.884 3.55-4.95 5.05-1.9 1.467-4.134 2.75-6.7 3.851-2.6 1.1-5.35 1.783-8.25 2.05-0.366 0.033-0.733 0.066-1.1 0.1-2.5 0.167-4.867 0.217-7.1 0.15-1.534-0.067-3.084-0.201-4.651-0.401z" fill-opacity=".3176"/>
				<path d="m26.95 39.9c0.466-0.034 0.75-0.067 0.85-0.101v-0.05c6.101 0 11.733-0.917 16.9-2.75 2.533-0.934 4.983-2.4 7.35-4.4 2.467-2.1 3.7-3.816 3.7-5.149 0-1.667-0.6-2.5-1.8-2.5l-3.851 0.2c0.834-0.134 1.65-0.25 2.45-0.351l6.9-1.5c1.1 0.7 0.483 2.617-1.851 5.75-4.166 4.767-9.216 8.066-15.149 9.9-0.334 0.133-1.134 0.283-2.4 0.45-1.267 0.133-2.934 0.283-5 0.449-2.1 0.134-3.7 0.184-4.8 0.15-1.099-0.031-2.199-0.064-3.299-0.098z" fill-opacity=".1961"/>
				<path d="m25.95 39.85c-0.967-0.166-1.967-0.35-3-0.55-0.2-0.066-0.4-0.116-0.6-0.149-2.434-0.534-4.8-1.284-7.1-2.25-2.067-0.934-3.917-1.934-5.55-3 0.633 0.366 2.7 1.166 6.2 2.399 3.467 1.167 7.3 1.7 11.5 1.601 4.234-0.134 7.633-0.867 10.2-2.2 2.601-1.367 4.334-2.717 5.2-4.05 0.9-1.367 1.45-2.517 1.65-3.45 0.2-0.9-0.55-1.634-2.25-2.2 2.566-0.167 5.2-0.45 7.899-0.85l3.851-0.2c1.2 0 1.8 0.833 1.8 2.5 0 1.333-1.233 3.05-3.7 5.149-2.366 2-4.816 3.467-7.35 4.4-5.167 1.833-10.8 2.75-16.9 2.75v0.05c-0.1 0.033-0.383 0.066-0.85 0.101-0.267-0.035-0.6-0.051-1-0.051z" fill-opacity=".102"/>
				<path d="m59.7 19.3l-0.1-0.05c-0.166-0.167-0.333-0.35-0.5-0.55-0.433-0.667-1.116-1.35-2.05-2.05-0.899-0.7-2.333-1.283-4.3-1.75-2-0.5-3.7-0.633-5.1-0.4-1.434 0.2-2.634 0.317-3.601 0.35-0.934 0-1.916-0.017-2.95-0.05-1.066-0.1-2.116-0.35-3.149-0.75-1.033-0.367-1.884-0.583-2.55-0.65-0.733-0.066-1.667-0.1-2.801-0.1-1.233 0-2.083 0.017-2.55 0.05h0.8c-1.667 0.033-3.75 0.15-6.25 0.35l-3.599 0.3h-0.35c-0.433 0-0.75-0.083-0.95-0.25v-0.05c-0.3-0.233-0.45-0.65-0.45-1.25l0.1-0.4c0.1-0.167 0.3-0.383 0.6-0.65 0.133-0.066 0.316-0.15 0.55-0.25 0.133-0.033 0.267-0.066 0.4-0.1 0.8-0.333 1.55-0.55 2.25-0.65 1.533-0.233 3.217-0.55 5.05-0.95 1.167-0.2 2.7-0.333 4.6-0.4 0.066-0.033 0.134-0.033 0.2 0 0.167-0.033 0.35-0.05 0.55-0.05h0.9c0.233-0.033 0.483-0.05 0.75-0.05h1.55c3.333 0 6.033 0.117 8.1 0.35 1 0.133 1.95 0.267 2.851 0.4 1.434 0.267 2.733 0.617 3.899 1.05 0.733 0.267 1.417 0.567 2.051 0.9 1.466 0.8 2.733 1.55 3.8 2.25 1 0.6 1.8 1.167 2.399 1.7 0.467 0.4 0.817 0.75 1.051 1.05 0.199 0.267 0.633 0.633 1.3 1.1 0.233 0.167 0.483-0.033 0.75-0.6 0.066 0.867-0.184 1.467-0.75 1.8-0.566 0.367-1.117 0.566-1.65 0.6-0.334 0.033-0.617-0.05-0.851-0.25z" fill-opacity=".3176"/>
				<linearGradient id="ag" x1="39.767" x2="39.695" y1="13.671" y2="17.222" gradientUnits="userSpaceOnUse">
					<stop stop-opacity=".1765" offset="0"/>
					<stop stop-opacity="0" offset="1"/>
				</linearGradient>
				<path d="m59.7 19.3c0.166 0.267-0.983 0.883-3.45 1.85l-0.05 0.05c-6.267-4.267-17.667-4.017-34.2 0.75l-2.3-8.2c0.2 0.167 0.517 0.25 0.95 0.25h0.35l3.6-0.3c2.5-0.2 4.583-0.317 6.25-0.35h-0.8c0.467-0.033 1.316-0.05 2.55-0.05 1.134 0 2.067 0.034 2.801 0.1 0.666 0.067 1.517 0.283 2.55 0.65 1.033 0.4 2.083 0.65 3.149 0.75 1.034 0.034 2.017 0.05 2.95 0.05 0.967-0.033 2.167-0.15 3.601-0.35 1.399-0.233 3.1-0.1 5.1 0.4 1.967 0.467 3.4 1.05 4.3 1.75 0.934 0.7 1.617 1.383 2.05 2.05 0.167 0.2 0.334 0.383 0.5 0.55l0.099 0.05z" fill="url(#ag)"/>
				<path d="m63.1 16.45c0.034 0.167 0.084 0.383 0.15 0.65l-0.35 0.35c-0.334 0.3-0.667 0.45-1 0.45h-0.2c-0.267-0.066-0.4-0.183-0.4-0.35 0-0.066 0.017-0.133 0.05-0.2 0-0.033 0.017-0.05 0.051-0.05 0.033-0.033 0.083-0.066 0.149-0.1 0.033-0.034 0.066-0.067 0.101-0.1 0.465-0.367 0.949-0.583 1.449-0.65zm-0.1-0.25h-0.15c-0.399 0-0.783 0.1-1.149 0.3l-0.55 0.35h-0.101c-0.2-0.1-0.467-0.283-0.8-0.55l-0.65-0.55c-0.199-0.233-0.583-0.583-1.149-1.05-0.3-0.267-0.634-0.534-1-0.8-0.334-0.3-0.717-0.6-1.15-0.9-0.833-0.633-1.55-1.183-2.149-1.65-0.601-0.5-0.95-1.1-1.051-1.8-0.101-0.733-0.151-1.233-0.151-1.5v-0.15c0-0.1 0.017-0.183 0.05-0.25 0.1-0.433 0.134-0.883 0.1-1.35 0.267 0.367 0.733 0.817 1.4 1.35 0.6 0.467 2.283 1.833 5.05 4.1l0.35 0.25c0.033 0.033 0.083 0.067 0.149 0.1 0.4 0.367 0.767 0.717 1.101 1.05 0.033 0 0.066 0.017 0.1 0.05 0.366 0.367 0.684 0.733 0.95 1.1 0.5 0.667 0.767 1.3 0.8 1.9zm-29.95-7.35c-0.1 0.066-0.184 0.133-0.25 0.2-0.666 0.367-1.684 0.717-3.05 1.05-2.533 0.667-5.15 1-7.85 1-0.4 0-0.733-0.017-1-0.05-0.133-0.033-0.25-0.066-0.35-0.1-0.333-0.133-0.5-0.3-0.5-0.5 0-0.133 0.034-0.3 0.1-0.5 0.033 0 0.067-0.017 0.1-0.05s0.083-0.066 0.15-0.1c0.767-0.3 2.167-0.566 4.2-0.8 2.8-0.367 5.4-1.1 7.8-2.2 0.133-0.033 0.25-0.066 0.35-0.1 1-0.434 1.783-0.717 2.35-0.85 0 0.033-0.017 0.066-0.05 0.1-0.1 0.033-0.2 0.1-0.3 0.2-0.134 0.1-0.25 0.217-0.35 0.35-0.434 0.267-0.867 0.983-1.301 2.15-0.033 0.067-0.049 0.133-0.049 0.2zm6.55-7.15c-0.133 0.066-0.267 0.117-0.399 0.15-0.2 0.1-0.384 0.217-0.55 0.35-0.467 0.267-0.867 0.55-1.2 0.85 0.5-0.867 0.866-1.45 1.1-1.75 0.601-0.733 1.184-1.15 1.75-1.25 0.033 0.034 0.084 0.067 0.15 0.1s0.1 0.1 0.1 0.2c0 0.167-0.184 0.45-0.55 0.85-0.135 0.167-0.268 0.333-0.401 0.5zm12-1c0.5 0.267 0.801 0.45 0.9 0.55 0.033 0.1 0.05 0.283 0.05 0.55 0 0.733-0.366 1.133-1.1 1.2-0.101-0.133-0.233-0.267-0.4-0.4l-0.05-0.05c-0.1-0.1-0.217-0.2-0.35-0.3-0.233-0.2-0.483-0.35-0.75-0.45-0.167-0.133-0.334-0.25-0.5-0.35-0.233-0.067-0.45-0.15-0.65-0.25 0.1-0.133 0.384-0.267 0.85-0.4 0.467-0.133 0.9-0.2 1.301-0.2 0.166 0 0.316 0.017 0.449 0.05 0.067 0 0.15 0.017 0.25 0.05z" fill="#2B2B2B"/>
				<path d="m63 16.2c0.033 0.033 0.05 0.066 0.05 0.1 0.033 0.034 0.05 0.083 0.05 0.15-0.5 0.066-0.983 0.283-1.449 0.65-0.034 0.033-0.067 0.066-0.101 0.1-0.066 0.033-0.116 0.066-0.149 0.1-0.034 0-0.051 0.017-0.051 0.05-0.433 0.367-0.649 0.733-0.649 1.1v0.35c0.033 0.133 0.1 0.25 0.2 0.35-0.101 0-0.184-0.017-0.25-0.05-0.134-0.067-0.25-0.117-0.351-0.15-0.366-0.233-0.616-0.467-0.75-0.7-0.1-0.233-0.967-0.95-2.6-2.15-1.667-1.2-4.95-1.95-9.851-2.25 0.634-0.267 1.25-0.583 1.851-0.95 0.896-0.531 1.663-1.114 2.3-1.75-0.167 0.172-0.25 0.439-0.25 0.8 0 0.1 0.7 0.45 2.1 1.05 1.601 0.667 2.634 1.167 3.101 1.5 0.434 0.3 1.267 0.95 2.5 1.95 1.033 0.8 1.684 1.233 1.95 1.3v-0.25c0-0.067-0.15-0.25-0.45-0.55-0.334-0.3-0.533-0.467-0.601-0.5-0.166-0.233-0.866-0.767-2.1-1.6-1.434-1.1-2.517-1.917-3.25-2.45-1.3-0.933-2.05-1.4-2.25-1.4l-0.7 0.1c0.066-0.133 0.167-0.25 0.3-0.35 0.634-0.8 1.067-1.667 1.301-2.6 0-0.033 0.017-0.066 0.05-0.1 0 0.267 0.05 0.767 0.149 1.5 0.101 0.7 0.45 1.3 1.051 1.8 0.6 0.467 1.316 1.017 2.149 1.65 0.434 0.3 0.816 0.6 1.15 0.9 0.366 0.267 0.7 0.533 1 0.8 0.566 0.466 0.95 0.816 1.149 1.05l0.65 0.55c0.333 0.267 0.6 0.45 0.8 0.55h0.101l0.55-0.35c0.366-0.2 0.75-0.3 1.149-0.3h0.151zm-26.95-3.2c-0.633-0.8-1.116-1.95-1.45-3.45 0.167 0.633 0.551 1.3 1.15 2 0.9 1.034 1.767 1.733 2.6 2.1-0.466-0.133-1.183-0.333-2.149-0.6-0.067-0.033-0.118-0.05-0.151-0.05z"/>
				<path d="m60.9 19.15c-0.101-0.1-0.167-0.217-0.2-0.35v-0.35c0-0.367 0.217-0.733 0.649-1.1-0.033 0.066-0.05 0.133-0.05 0.2 0 0.167 0.134 0.284 0.4 0.35h0.2c0.333 0 0.666-0.15 1-0.45l0.35-0.35v0.05c0.033 0.333-0.15 0.684-0.55 1.05-0.267 0.233-0.533 0.45-0.8 0.65-0.167 0.066-0.317 0.133-0.45 0.2-0.199 0.067-0.383 0.1-0.549 0.1zm-9.65-8l0.05-0.05 0.7-0.1c0.2 0 0.95 0.467 2.25 1.4 0.733 0.533 1.816 1.35 3.25 2.45 1.233 0.833 1.934 1.367 2.1 1.6 0.067 0.033 0.267 0.2 0.601 0.5 0.3 0.3 0.45 0.483 0.45 0.55v0.25c-0.267-0.067-0.917-0.5-1.95-1.3-1.233-1-2.066-1.65-2.5-1.95-0.467-0.333-1.5-0.833-3.101-1.5-1.4-0.6-2.1-0.95-2.1-1.05 0-0.361 0.083-0.628 0.25-0.8z" fill="#0F0F0F"/>
				<path d="m41.6 0.95c-0.699 0.167-1.366 0.417-2 0.75 0.134-0.167 0.267-0.333 0.4-0.5 0.366-0.4 0.55-0.684 0.55-0.85 0-0.1-0.033-0.167-0.1-0.2s-0.117-0.066-0.15-0.1c0.033-0.033 0.1-0.05 0.2-0.05 0.267 0 0.634 0.317 1.1 0.95zm10.8 3.25c-0.233-0.4-0.534-0.784-0.9-1.15l-0.05-0.05c0.733-0.067 1.1-0.467 1.1-1.2 0-0.267-0.017-0.45-0.05-0.55-0.1-0.1-0.4-0.283-0.9-0.55 0.434 0.1 0.784 0.3 1.051 0.6 0.333 0.367 0.5 0.817 0.5 1.35 0 0.5-0.184 0.934-0.551 1.3-0.067 0.1-0.133 0.183-0.2 0.25zm-32.9 7.95c0.433 0.167 1 0.25 1.7 0.25 0.933 0 2.533-0.183 4.8-0.55s4-0.717 5.2-1.05c0.767-0.233 1.25-0.517 1.45-0.85 0.1-0.333 0.216-0.633 0.35-0.9 0-0.066 0.017-0.133 0.05-0.2 0-0.067 0.017-0.133 0.05-0.2 0.434-1.167 0.867-1.883 1.301-2.15-0.167 0.133-0.284 0.283-0.351 0.45-0.1 0.2-0.184 0.5-0.25 0.9-0.033 0.066-0.066 0.183-0.1 0.35-0.033 0.066-0.05 0.117-0.05 0.15-0.067 0.233-0.1 0.45-0.1 0.65-0.066 0.233-0.1 0.4-0.1 0.5 0 0.567 0.149 1.033 0.45 1.4 0.267 0.333 0.399 0.517 0.399 0.55 0 0.2-0.133 0.3-0.399 0.3-0.4 0-0.767 0.017-1.101 0.05-1.5 0.167-2.6 0.284-3.3 0.35-4.5 0.467-7.083 0.7-7.75 0.7-0.8 0-1.367-0.083-1.7-0.25-0.232-0.133-0.416-0.283-0.549-0.45z" fill="#1C1C1C"/>
				<linearGradient id="r" x1="43.491" x2="43.787" y1="16.556" y2="7.1805" gradientUnits="userSpaceOnUse">
					<stop stop-color="#ECE5D7" offset="0"/>
					<stop stop-color="#CCB4A3" offset="1"/>
				</linearGradient>
				<path d="m38.35 13.65c-0.833-0.367-1.699-1.066-2.6-2.1-0.6-0.7-0.983-1.367-1.15-2h-0.05c-0.033-0.067-0.05-0.117-0.05-0.15-0.033-0.167-0.05-0.3-0.05-0.4-0.033-0.167-0.033-0.3 0-0.4 0-0.733 0.033-1.184 0.1-1.35 0.101 0.667 0.316 1.233 0.65 1.7 1.233 1.833 4.033 2.45 8.399 1.85 1.601-0.233 2.967-0.6 4.101-1.1 2.7-1.167 4.033-3.05 4-5.65 0-0.4-0.117-0.75-0.351-1.05-0.066-0.133-0.166-0.267-0.3-0.4 0.167 0.133 0.3 0.267 0.4 0.4l0.05 0.05c0.366 0.367 0.667 0.75 0.9 1.15 0.368 0.667 0.601 1.367 0.701 2.1 0.034 0.467 0 0.917-0.1 1.35-0.033 0.067-0.05 0.15-0.05 0.25v0.15c-0.033 0.034-0.05 0.067-0.05 0.1-0.233 0.934-0.667 1.8-1.301 2.6-0.133 0.1-0.233 0.217-0.3 0.35l-0.05 0.05c-0.637 0.636-1.403 1.219-2.3 1.75-0.601 0.367-1.217 0.684-1.851 0.95-1.6 0.566-3.3 0.783-5.1 0.65-0.3-0.033-0.6-0.067-0.9-0.1-0.6-0.066-1.149-0.183-1.649-0.35-0.399-0.1-0.765-0.233-1.099-0.4z" fill="url(#r)"/>
				<radialGradient id="s" cx="39.15" cy="3.8501" r="25.062" gradientUnits="userSpaceOnUse">
					<stop stop-color="#ECE5D7" offset="0"/>
					<stop stop-color="#B49C8A" offset="1"/>
				</radialGradient>
				<path d="m39.6 1.7c0.634-0.333 1.301-0.583 2-0.75 1.301-0.367 2.65-0.5 4.051-0.4 1.133 0.067 2.166 0.284 3.1 0.65 0.2 0.1 0.417 0.183 0.65 0.25 0.166 0.1 0.333 0.216 0.5 0.35 0.267 0.1 0.517 0.25 0.75 0.45 0.133 0.1 0.25 0.2 0.35 0.3l0.05 0.05c0.134 0.133 0.233 0.267 0.3 0.4 0.232 0.3 0.349 0.65 0.349 1.05 0.033 2.6-1.3 4.483-4 5.65-1.134 0.5-2.5 0.867-4.101 1.1-4.366 0.6-7.166-0.017-8.399-1.85-0.334-0.467-0.55-1.034-0.65-1.7 0-0.1 0.033-0.183 0.101-0.25 0-0.133 0.033-0.3 0.1-0.5 0.033-0.167 0.134-0.35 0.3-0.55 0.033-0.034 0.05-0.067 0.05-0.1 0.5-1.067 1.284-2 2.351-2.8 0.333-0.3 0.733-0.583 1.2-0.85 0.164-0.133 0.348-0.25 0.548-0.35 0.133-0.033 0.267-0.083 0.4-0.15z" fill="url(#s)"/>
				<path d="m19.3 12.05h0.05c0.033 0.034 0.083 0.067 0.15 0.1 0.133 0.167 0.317 0.317 0.55 0.45 0.333 0.167 0.9 0.25 1.7 0.25 0.667 0 3.25-0.233 7.75-0.7 0.7-0.066 1.8-0.183 3.3-0.35 0.334-0.033 0.7-0.05 1.101-0.05 0.267 0 0.399-0.1 0.399-0.3 0-0.034-0.133-0.217-0.399-0.55-0.301-0.367-0.45-0.833-0.45-1.4 0-0.1 0.033-0.267 0.1-0.5 0-0.2 0.033-0.417 0.101-0.65 0-0.033 0.017-0.083 0.05-0.15 0.033-0.167 0.066-0.284 0.1-0.35 0.066-0.4 0.15-0.7 0.25-0.9 0.066-0.167 0.184-0.317 0.351-0.45 0.1-0.133 0.216-0.25 0.35-0.35 0.1-0.1 0.2-0.167 0.3-0.2-0.166 0.2-0.267 0.383-0.3 0.55-0.066 0.2-0.1 0.367-0.1 0.5-0.067 0.067-0.101 0.15-0.101 0.25-0.066 0.167-0.1 0.617-0.1 1.35-0.033 0.1-0.033 0.233 0 0.4 0 0.1 0.017 0.233 0.05 0.4 0 0.033 0.017 0.083 0.05 0.15h0.05c0.334 1.5 0.817 2.65 1.45 3.45-0.967-0.267-2.083-0.383-3.35-0.35l-11.902 0.95c-0.367 0.033-0.716-0.117-1.05-0.45-0.2-0.267-0.35-0.583-0.45-0.95v-0.15z" fill="#131313"/>
				<path d="m19.5 12.15c-0.067-0.033-0.117-0.066-0.15-0.1h-0.05c-0.033-0.066-0.05-0.15-0.05-0.25v-0.1c0-0.2 0.017-0.4 0.05-0.6 0.034-0.167 0.1-0.3 0.2-0.4 0.067-0.2 0.15-0.367 0.25-0.5s0.267-0.233 0.5-0.3c-0.033 0.033-0.067 0.05-0.1 0.05-0.066 0.2-0.1 0.367-0.1 0.5 0 0.2 0.167 0.367 0.5 0.5 0.1 0.033 0.217 0.066 0.35 0.1 0.267 0.034 0.6 0.05 1 0.05 2.7 0 5.317-0.333 7.85-1 1.366-0.333 2.384-0.684 3.05-1.05 0.066-0.066 0.15-0.133 0.25-0.2-0.033 0.067-0.05 0.133-0.05 0.2-0.134 0.267-0.25 0.567-0.35 0.9-0.2 0.333-0.684 0.617-1.45 0.85-1.2 0.333-2.934 0.684-5.2 1.05s-3.867 0.55-4.8 0.55c-0.7 0-1.267-0.083-1.7-0.25z" fill="#262626"/>
					<path d="m52.85 8.4c-0.899 1.133-2.133 2.117-3.699 2.95-2.167 1.133-4.617 1.617-7.351 1.45-2.767-0.133-4.7-0.55-5.8-1.25-0.267-0.167-0.5-0.333-0.7-0.5-0.399-0.6-0.666-1.183-0.8-1.75-0.066-0.267-0.083-0.5-0.05-0.7 0-0.733 0.033-1.184 0.1-1.35 0-0.1 0.017-0.15 0.05-0.15 0.067 0 0.101-0.05 0.101-0.15 0.099-0.333 0.233-0.65 0.399-0.95 0.2 1.933 2.067 2.9 5.601 2.9 2.5 0 4.95-0.517 7.35-1.55 2.033-0.9 3.25-1.867 3.65-2.9 0.066-0.233 0.1-0.483 0.1-0.75 0-0.167-0.1-0.383-0.3-0.65 1.3 1.333 1.8 2.867 1.5 4.6-0.033 0.167-0.066 0.333-0.1 0.5-0.035 0.1-0.051 0.183-0.051 0.25z" fill-opacity=".0941"/>
					<path d="m35.3 11.05c0.2 0.167 0.434 0.333 0.7 0.5 1.1 0.7 3.033 1.117 5.8 1.25 2.733 0.167 5.184-0.316 7.351-1.45 1.566-0.833 2.8-1.817 3.699-2.95-0.533 1.833-1.833 3.333-3.899 4.5-0.601 0.367-1.217 0.684-1.851 0.95-1.6 0.566-3.3 0.783-5.1 0.65-1.366-0.067-2.583-0.35-3.65-0.85-0.833-0.367-1.699-1.066-2.6-2.1-0.167-0.2-0.316-0.367-0.45-0.5z" fill-opacity=".0431"/>
					<path d="m45.05 2.75c0.233 0.233 0.566 0.5 1 0.8 0.8 0.6 1.566 0.9 2.3 0.9 0.2 0 0.4-0.034 0.601-0.1-0.101 0.5-0.468 0.75-1.101 0.75-1.033 0-1.666-0.25-1.899-0.75-0.233-0.467-0.467-0.8-0.7-1-0.066-0.133-0.116-0.233-0.15-0.3-0.033-0.066-0.05-0.133-0.05-0.2-1e-3 -0.033-1e-3 -0.067-1e-3 -0.1zm-6.7 0.55c0.034 0.067 0.067 0.133 0.101 0.2 0.1 0.2 0.217 0.3 0.35 0.3 0.367 0 0.917-0.267 1.65-0.8 0.233-0.2 0.434-0.35 0.6-0.45 0.101 0.067 0.117 0.2 0.05 0.4-0.899 0.933-1.783 1.4-2.649 1.4-0.334 0-0.5-0.117-0.5-0.35s0.131-0.467 0.398-0.7z"/>
					<path d="m45.05 2.75c0.066-0.233 0.334-0.35 0.8-0.35 0.5 0 1.101 0.133 1.801 0.4 0.866 0.333 1.3 0.733 1.3 1.2v0.35c-0.2 0.066-0.4 0.1-0.601 0.1-0.733 0-1.5-0.3-2.3-0.9-0.434-0.3-0.767-0.567-1-0.8zm-6.7 0.55c0.134-0.133 0.284-0.25 0.45-0.35 0.5-0.3 0.867-0.45 1.101-0.45 0.6-0.167 0.983-0.15 1.149 0.05-0.166 0.1-0.366 0.25-0.6 0.45-0.733 0.533-1.283 0.8-1.65 0.8-0.133 0-0.25-0.1-0.35-0.3-0.033-0.067-0.066-0.133-0.1-0.2zm3.65 2.2c0 0.233 0.217 0.417 0.65 0.55 0.3 0.1 0.616 0.267 0.949 0.5v0.2h-0.25c-0.399-0.2-0.783-0.35-1.149-0.45-0.134 0.267-0.384 0.4-0.75 0.4-0.434 0-0.65-0.117-0.65-0.35v-0.05c-0.166 0-0.316 0.017-0.45 0.05-0.333 0.133-0.55 0.2-0.649 0.2l-0.351-0.1c0-0.167 0.25-0.35 0.75-0.55 0.233-0.033 0.517-0.1 0.851-0.2 0.1-0.067 0.217-0.117 0.35-0.15 0.101-0.333 0.184-0.583 0.25-0.75-0.233-0.1-0.35-0.2-0.35-0.3s0.083-0.233 0.25-0.4c0.233-0.233 0.583-0.3 1.05-0.2 0.467 0.133 0.667 0.25 0.6 0.35-0.1 0.133-0.283 0.267-0.55 0.4s-0.399 0.233-0.399 0.3c-0.069 0.167-0.119 0.35-0.152 0.55z" fill="#2B2B2B"/>
						<radialGradient id="t" cx="66.567" cy="27.242" r=".5199" gradientTransform="matrix(.9857 -.1683 -.0962 .8174 -.6983 5.9339)" gradientUnits="userSpaceOnUse">
						<stop stop-color="#fff" offset="0"/>
						<stop stop-color="#fff" stop-opacity="0" offset="1"/>
					</radialGradient>
					<path d="m62.8 17c-0.066 0.1-0.217 0.217-0.45 0.35-0.267 0.133-0.416 0.15-0.449 0.05-0.067-0.066-0.084-0.133-0.051-0.2 0-0.133 0.051-0.25 0.15-0.35 0.066 0 0.167-0.017 0.3-0.05 0.134-0.066 0.233-0.1 0.3-0.1 0.101-0.034 0.167-0.017 0.2 0.05 0.066 0.067 0.066 0.15 0 0.25z" fill="url(#t)"/>
						<radialGradient id="u" cx="17.487" cy="-28.747" r="4.7142" gradientTransform="matrix(.7557 .6549 -.2519 -.0053 37.744 .7945)" gradientUnits="userSpaceOnUse">
						<stop stop-color="#fff" offset="0"/>
						<stop stop-color="#fff" stop-opacity="0" offset="1"/>
					</radialGradient>
					<path d="m58.85 13.7c-0.933-1.167-0.949-1.767-0.05-1.8 0.167 0.2 0.351 0.35 0.55 0.45 0.101 0.1 0.184 0.15 0.25 0.15 0.7 0.767 1.284 1.383 1.75 1.85 0.301 0.467 0.5 0.85 0.601 1.15 0.233 0.233 0.149 0.233-0.25 0-0.434-0.2-1.385-0.8-2.851-1.8z" fill="url(#u)"/>
						<radialGradient id="v" cx="28.589" cy="-21.648" r="4.819" gradientTransform="matrix(.8352 .5499 -.2412 .0233 29.099 -2.816)" gradientUnits="userSpaceOnUse">
						<stop stop-color="#fff" offset="0"/>
						<stop stop-color="#fff" stop-opacity="0" offset="1"/>
					</radialGradient>
					<path d="m58.8 11.9c-0.899 0.033-0.883 0.633 0.05 1.8-3.8-2.434-5.517-3.65-5.149-3.65 0.3-0.033 0.566-0.033 0.8 0 0.3 0 0.967 0.25 2 0.75 0.832 0.3 1.599 0.667 2.299 1.1 0.2 0.1 0.417 0.233 0.65 0.4l-0.101 0.05c-0.199-0.1-0.382-0.25-0.549-0.45z" fill="url(#v)"/>
						<radialGradient id="w" cx="52.415" cy="9.5835" r=".5199" gradientTransform="matrix(.9857 -.1683 -.0962 .8174 -.2458 2.0874)" gradientUnits="userSpaceOnUse">
						<stop stop-color="#fff" offset="0"/>
						<stop stop-color="#fff" stop-opacity="0" offset="1"/>
					</radialGradient>
					<path d="m51 0.85c0.066 0.067 0.066 0.15 0 0.25s-0.217 0.217-0.45 0.35c-0.267 0.133-0.416 0.15-0.45 0.05-0.066-0.067-0.083-0.133-0.05-0.2 0-0.133 0.05-0.233 0.15-0.3 0.066 0 0.166-0.033 0.3-0.1 0.134-0.066 0.233-0.1 0.3-0.1 0.1-0.033 0.167-0.017 0.2 0.05z" fill="url(#w)"/>
						<linearGradient id="x" x1="29.577" x2="26.066" y1="7.4385" y2="10.48" gradientUnits="userSpaceOnUse">
							<stop stop-color="#fff" stop-opacity=".7451" offset="0"/>
							<stop stop-color="#fff" stop-opacity="0" offset="1"/>
						</linearGradient>
						<path d="m28.75 9.7c-2.967 0.5-4.917 0.716-5.85 0.65-1-0.133-0.5-0.4 1.5-0.8 1.967-0.4 3.233-0.667 3.8-0.8 0.6-0.167 0.983-0.267 1.15-0.3 0.133-0.067 0.783-0.333 1.95-0.8s1.75-0.566 1.75-0.3c0.1 1.033-1.333 1.817-4.3 2.35z" fill="url(#x)"/>
</g>
		<use transform="matrix(1 0 0 -1 31.6 46.95)" x="16383" y="16383" width="-32766" height="-32766" xlink:href="#ah"/>
</svg>
