<?xml version="1.0" encoding="UTF-8"?>
<svg viewBox="0 0 262.20471 372.04724" xmlns="http://www.w3.org/2000/svg" xmlns:xlink="http://www.w3.org/1999/xlink">
 <defs>
  <linearGradient id="v" x1="272.48" x2="244.84" y1="296.78" y2="264.83" gradientTransform="matrix(-.2378 -.01127 -.00396 .23031 667.24 557.78)" gradientUnits="userSpaceOnUse">
   <stop stop-color="#830000" offset="0"/>
   <stop stop-color="#a80000" offset=".1406"/>
   <stop stop-color="#c70000" offset=".2921"/>
   <stop stop-color="#e00000" offset=".4499"/>
   <stop stop-color="#f10000" offset=".6148"/>
   <stop stop-color="#fc0000" offset=".7914"/>
   <stop stop-color="#f00" offset="1"/>
  </linearGradient>
  <linearGradient id="u" x1="349.6" x2="314.14" y1="302.18" y2="263.01" gradientTransform="matrix(.23981 -.01418 .00095484 .22563 506.96 559.69)" gradientUnits="userSpaceOnUse">
   <stop stop-color="#420000" offset="0"/>
   <stop stop-color="#5e0000" offset=".0822"/>
   <stop stop-color="#840000" offset=".2161"/>
   <stop stop-color="#a40000" offset=".3554"/>
   <stop stop-color="#bd0000" offset=".4991"/>
   <stop stop-color="#ce0000" offset=".6493"/>
   <stop stop-color="#d90000" offset=".8101"/>
   <stop stop-color="#dc0000" offset="1"/>
  </linearGradient>
  <radialGradient id="t" cx="537.5" cy="-642.24" r="50.601" gradientTransform="matrix(.7631 0 0 .329 -112.32 276.85)" gradientUnits="userSpaceOnUse">
   <stop stop-color="#fff" offset=".0056"/>
   <stop stop-color="#fffdfd" offset=".5354"/>
   <stop stop-color="#fff6f7" offset=".7263"/>
   <stop stop-color="#ffebec" offset=".8623"/>
   <stop stop-color="#ffdadc" offset=".9715"/>
   <stop stop-color="#ffd4d7" offset="1"/>
  </radialGradient>
  <radialGradient id="s" cx="694.75" cy="-972.37" r="50.601" gradientTransform="matrix(.6289 0 0 .2605 -138.68 302.4)" gradientUnits="userSpaceOnUse">
   <stop stop-color="#fff" offset=".0056"/>
   <stop stop-color="#fffdfd" offset=".5354"/>
   <stop stop-color="#fff6f7" offset=".7263"/>
   <stop stop-color="#ffebec" offset=".8623"/>
   <stop stop-color="#ffdadc" offset=".9715"/>
   <stop stop-color="#ffd4d7" offset="1"/>
  </radialGradient>
  <radialGradient id="r" cx="1034" cy="-1378.1" r="50.601" gradientTransform="matrix(.4663 0 0 .2056 -182.67 318.17)" gradientUnits="userSpaceOnUse">
   <stop stop-color="#fff" offset=".0056"/>
   <stop stop-color="#fffdfd" offset=".5354"/>
   <stop stop-color="#fff6f7" offset=".7263"/>
   <stop stop-color="#ffebec" offset=".8623"/>
   <stop stop-color="#ffdadc" offset=".9715"/>
   <stop stop-color="#ffd4d7" offset="1"/>
  </radialGradient>
  <radialGradient id="q" cx="-898.45" cy="776.95" r="26.154" gradientTransform="matrix(-1 -.00060996 .00060996 -1 -605.99 795.75)" gradientUnits="userSpaceOnUse">
   <stop stop-color="#fff" offset=".0056"/>
   <stop stop-color="#f00" offset=".5506"/>
   <stop stop-color="#fc0000" offset=".6135"/>
   <stop stop-color="#f20000" offset=".6637"/>
   <stop stop-color="#e10000" offset=".7095"/>
   <stop stop-color="#c90000" offset=".7527"/>
   <stop stop-color="#ab0000" offset=".7941"/>
   <stop stop-color="#860000" offset=".8335"/>
   <stop stop-color="#7c0000" offset=".8427"/>
  </radialGradient>
  <radialGradient id="p" cx="897.59" cy="-574.96" r="50.602" gradientTransform="matrix(.7631 .00021926 -9.4527e-5 .329 -112.39 276.65)" gradientUnits="userSpaceOnUse">
   <stop stop-color="#fff" offset=".0056"/>
   <stop stop-color="#fffdfd" offset=".5354"/>
   <stop stop-color="#fff6f7" offset=".7263"/>
   <stop stop-color="#ffebec" offset=".8623"/>
   <stop stop-color="#ffdadc" offset=".9715"/>
   <stop stop-color="#ffd4d7" offset="1"/>
  </radialGradient>
  <radialGradient id="o" cx="1131.7" cy="-887.41" r="50.602" gradientTransform="matrix(.6289 .00018068 -7.4834e-5 .2605 -138.76 302.19)" gradientUnits="userSpaceOnUse">
   <stop stop-color="#fff" offset=".0056"/>
   <stop stop-color="#fffdfd" offset=".5354"/>
   <stop stop-color="#fff6f7" offset=".7263"/>
   <stop stop-color="#ffebec" offset=".8623"/>
   <stop stop-color="#ffdadc" offset=".9715"/>
   <stop stop-color="#ffd4d7" offset="1"/>
  </radialGradient>
  <radialGradient id="n" cx="1623.3" cy="-1270.4" r="50.601" gradientTransform="matrix(.4663 .00013399 -5.9082e-5 .2056 -182.75 317.94)" gradientUnits="userSpaceOnUse">
   <stop stop-color="#fff" offset=".0056"/>
   <stop stop-color="#fffdfd" offset=".5354"/>
   <stop stop-color="#fff6f7" offset=".7263"/>
   <stop stop-color="#ffebec" offset=".8623"/>
   <stop stop-color="#ffdadc" offset=".9715"/>
   <stop stop-color="#ffd4d7" offset="1"/>
  </radialGradient>
  <radialGradient id="m" cx="-1173.3" cy="754.96" r="26.154" gradientTransform="matrix(-1 -.00089728 .00089728 -1 -606.22 795.41)" gradientUnits="userSpaceOnUse">
   <stop stop-color="#fff" offset=".0056"/>
   <stop stop-color="#f00" offset=".5506"/>
   <stop stop-color="#fc0000" offset=".6135"/>
   <stop stop-color="#f20000" offset=".6637"/>
   <stop stop-color="#e10000" offset=".7095"/>
   <stop stop-color="#c90000" offset=".7527"/>
   <stop stop-color="#ab0000" offset=".7941"/>
   <stop stop-color="#860000" offset=".8335"/>
   <stop stop-color="#7c0000" offset=".8427"/>
  </radialGradient>
  <radialGradient id="l" cx="390.08" cy="-496.5" r="50.602" gradientTransform="matrix(.7631 0 0 .329 -112.32 276.85)" gradientUnits="userSpaceOnUse">
   <stop stop-color="#fff" offset=".0056"/>
   <stop stop-color="#fffdfd" offset=".5354"/>
   <stop stop-color="#fff6f7" offset=".7263"/>
   <stop stop-color="#ffebec" offset=".8623"/>
   <stop stop-color="#ffdadc" offset=".9715"/>
   <stop stop-color="#ffd4d7" offset="1"/>
  </radialGradient>
  <radialGradient id="k" cx="515.87" cy="-788.26" r="50.601" gradientTransform="matrix(.6289 0 0 .2605 -138.68 302.4)" gradientUnits="userSpaceOnUse">
   <stop stop-color="#fff" offset=".0056"/>
   <stop stop-color="#fffdfd" offset=".5354"/>
   <stop stop-color="#fff6f7" offset=".7263"/>
   <stop stop-color="#ffebec" offset=".8623"/>
   <stop stop-color="#ffdadc" offset=".9715"/>
   <stop stop-color="#ffd4d7" offset="1"/>
  </radialGradient>
  <radialGradient id="j" cx="792.8" cy="-1144.9" r="50.602" gradientTransform="matrix(.4663 0 0 .2056 -182.67 318.17)" gradientUnits="userSpaceOnUse">
   <stop stop-color="#fff" offset=".0056"/>
   <stop stop-color="#fffdfd" offset=".5354"/>
   <stop stop-color="#fff6f7" offset=".7263"/>
   <stop stop-color="#ffebec" offset=".8623"/>
   <stop stop-color="#ffdadc" offset=".9715"/>
   <stop stop-color="#ffd4d7" offset="1"/>
  </radialGradient>
  <radialGradient id="i" cx="-785.98" cy="728.94" r="26.154" gradientTransform="matrix(-1 -.00060996 .00060996 -1 -605.99 795.75)" gradientUnits="userSpaceOnUse">
   <stop stop-color="#fff" offset=".0056"/>
   <stop stop-color="#f00" offset=".5506"/>
   <stop stop-color="#fc0000" offset=".6135"/>
   <stop stop-color="#f20000" offset=".6637"/>
   <stop stop-color="#e10000" offset=".7095"/>
   <stop stop-color="#c90000" offset=".7527"/>
   <stop stop-color="#ab0000" offset=".7941"/>
   <stop stop-color="#860000" offset=".8335"/>
   <stop stop-color="#7c0000" offset=".8427"/>
  </radialGradient>
  <radialGradient id="h" cx="806.65" cy="-414.11" r="50.601" gradientTransform="matrix(.7621 .0399 -.0172 .3285 -121.36 243.13)" gradientUnits="userSpaceOnUse">
   <stop stop-color="#fff" offset=".0056"/>
   <stop stop-color="#fffdfd" offset=".5354"/>
   <stop stop-color="#fff6f7" offset=".7263"/>
   <stop stop-color="#ffebec" offset=".8623"/>
   <stop stop-color="#ffdadc" offset=".9715"/>
   <stop stop-color="#ffd4d7" offset="1"/>
  </radialGradient>
  <radialGradient id="g" cx="1021.4" cy="-684.24" r="50.602" gradientTransform="matrix(.628 .0329 -.0136 .2601 -149.02 267.27)" gradientUnits="userSpaceOnUse">
   <stop stop-color="#fff" offset=".0056"/>
   <stop stop-color="#fffdfd" offset=".5354"/>
   <stop stop-color="#fff6f7" offset=".7263"/>
   <stop stop-color="#ffebec" offset=".8623"/>
   <stop stop-color="#ffdadc" offset=".9715"/>
   <stop stop-color="#ffd4d7" offset="1"/>
  </radialGradient>
  <radialGradient id="f" cx="1474.5" cy="-1013.1" r="50.602" gradientTransform="matrix(.4657 .0244 -.0108 .2053 -193.77 280.71)" gradientUnits="userSpaceOnUse">
   <stop stop-color="#fff" offset=".0056"/>
   <stop stop-color="#fffdfd" offset=".5354"/>
   <stop stop-color="#fff6f7" offset=".7263"/>
   <stop stop-color="#ffebec" offset=".8623"/>
   <stop stop-color="#ffdadc" offset=".9715"/>
   <stop stop-color="#ffd4d7" offset="1"/>
  </radialGradient>
  <radialGradient id="e" cx="-1103.9" cy="701.99" r="26.154" gradientTransform="matrix(-.9986 -.0529 .0529 -.9986 -641.51 735.49)" gradientUnits="userSpaceOnUse">
   <stop stop-color="#fff" offset=".0056"/>
   <stop stop-color="#f00" offset=".5506"/>
   <stop stop-color="#fc0000" offset=".6135"/>
   <stop stop-color="#f20000" offset=".6637"/>
   <stop stop-color="#e10000" offset=".7095"/>
   <stop stop-color="#c90000" offset=".7527"/>
   <stop stop-color="#ab0000" offset=".7941"/>
   <stop stop-color="#860000" offset=".8335"/>
   <stop stop-color="#7c0000" offset=".8427"/>
  </radialGradient>
  <radialGradient id="d" cx="727.21" cy="-659.06" r="50.602" gradientTransform="matrix(.7631 0 0 .329 -112.32 276.85)" gradientUnits="userSpaceOnUse">
   <stop stop-color="#fff" offset=".0056"/>
   <stop stop-color="#fffdfd" offset=".5354"/>
   <stop stop-color="#fff6f7" offset=".7263"/>
   <stop stop-color="#ffebec" offset=".8623"/>
   <stop stop-color="#ffdadc" offset=".9715"/>
   <stop stop-color="#ffd4d7" offset="1"/>
  </radialGradient>
  <radialGradient id="c" cx="924.96" cy="-993.6" r="50.602" gradientTransform="matrix(.6289 0 0 .2605 -138.68 302.4)" gradientUnits="userSpaceOnUse">
   <stop stop-color="#fff" offset=".0056"/>
   <stop stop-color="#fffdfd" offset=".5354"/>
   <stop stop-color="#fff6f7" offset=".7263"/>
   <stop stop-color="#ffebec" offset=".8623"/>
   <stop stop-color="#ffdadc" offset=".9715"/>
   <stop stop-color="#ffd4d7" offset="1"/>
  </radialGradient>
  <radialGradient id="b" cx="1344.5" cy="-1405" r="50.602" gradientTransform="matrix(.4663 0 0 .2056 -182.67 318.17)" gradientUnits="userSpaceOnUse">
   <stop stop-color="#fff" offset=".0056"/>
   <stop stop-color="#fffdfd" offset=".5354"/>
   <stop stop-color="#fff6f7" offset=".7263"/>
   <stop stop-color="#ffebec" offset=".8623"/>
   <stop stop-color="#ffdadc" offset=".9715"/>
   <stop stop-color="#ffd4d7" offset="1"/>
  </radialGradient>
  <radialGradient id="a" cx="-1043.2" cy="782.57" r="26.154" gradientTransform="matrix(-1 -.00060996 .00060996 -1 -605.99 795.75)" gradientUnits="userSpaceOnUse">
   <stop stop-color="#fff" offset=".0056"/>
   <stop stop-color="#f00" offset=".5506"/>
   <stop stop-color="#fc0000" offset=".6135"/>
   <stop stop-color="#f20000" offset=".6637"/>
   <stop stop-color="#e10000" offset=".7095"/>
   <stop stop-color="#c90000" offset=".7527"/>
   <stop stop-color="#ab0000" offset=".7941"/>
   <stop stop-color="#860000" offset=".8335"/>
   <stop stop-color="#7c0000" offset=".8427"/>
  </radialGradient>
 </defs>
 <g transform="matrix(1.0561 0 0 1.0561 -498.09 -487.83)">
  <g transform="matrix(.23871 0 0 .23871 505.09 589.63)">
   <path d="m665.52 317.59c0 40.053-128.93 72.523-287.98 72.523s-287.98-32.47-287.98-72.523c0-40.055 128.93-72.524 287.98-72.524s287.98 32.469 287.98 72.524z" fill="#f99"/>
   <path d="m89.587 316.35c0-40.055 128.93-72.524 287.98-72.524s287.98 32.47 287.98 72.524-128.93 72.523-287.98 72.523-287.98-32.471-287.98-72.523z" fill="#ff9a9a"/>
   <path d="m89.616 315.1c0-40.055 128.93-72.524 287.98-72.524s287.98 32.47 287.98 72.524-128.93 72.523-287.98 72.523-287.98-32.471-287.98-72.523z" fill="#ff9a9b"/>
   <path d="m89.646 313.86c0-40.055 128.93-72.524 287.98-72.524s287.98 32.47 287.98 72.524-128.93 72.523-287.98 72.523-287.98-32.47-287.98-72.523z" fill="#ff9b9c"/>
   <path d="m89.674 312.61c0-40.055 128.93-72.524 287.98-72.524s287.98 32.47 287.98 72.524-128.93 72.523-287.98 72.523-287.98-32.47-287.98-72.523z" fill="#ff9c9d"/>
   <path d="m89.704 311.37c0-40.055 128.93-72.524 287.98-72.524s287.98 32.47 287.98 72.524-128.93 72.523-287.98 72.523-287.98-32.47-287.98-72.523z" fill="#ff9c9e"/>
   <path d="m89.733 310.12c0-40.055 128.93-72.524 287.98-72.524s287.98 32.47 287.98 72.524-128.93 72.523-287.98 72.523-287.98-32.47-287.98-72.523z" fill="#ff9d9f"/>
   <path d="m89.762 308.88c0-40.055 128.93-72.524 287.98-72.524s287.98 32.47 287.98 72.524-128.93 72.523-287.98 72.523-287.98-32.47-287.98-72.523z" fill="#ff9ea0"/>
   <path d="m89.791 307.64c0-40.055 128.93-72.524 287.98-72.524s287.98 32.47 287.98 72.524-128.93 72.523-287.98 72.523-287.98-32.471-287.98-72.523z" fill="#ff9fa1"/>
   <path d="m89.82 306.39c0-40.055 128.93-72.524 287.98-72.524s287.98 32.47 287.98 72.524-128.93 72.523-287.98 72.523-287.98-32.471-287.98-72.523z" fill="#ff9fa2"/>
   <path d="m89.849 305.15c0-40.055 128.93-72.524 287.98-72.524s287.98 32.47 287.98 72.524-128.93 72.523-287.98 72.523-287.98-32.47-287.98-72.523z" fill="#ffa0a3"/>
   <path d="m89.878 303.9c0-40.055 128.93-72.524 287.98-72.524s287.98 32.47 287.98 72.524-128.93 72.523-287.98 72.523-287.98-32.47-287.98-72.523z" fill="#ffa1a4"/>
   <path d="m89.907 302.66c0-40.055 128.93-72.524 287.98-72.524s287.98 32.47 287.98 72.524-128.93 72.523-287.98 72.523-287.98-32.47-287.98-72.523z" fill="#ffa1a5"/>
   <path d="m89.937 301.42c0-40.055 128.93-72.524 287.98-72.524s287.98 32.47 287.98 72.524-128.93 72.523-287.98 72.523-287.98-32.47-287.98-72.523z" fill="#ffa2a6"/>
   <path d="m89.965 300.17c0-40.055 128.93-72.524 287.98-72.524s287.98 32.47 287.98 72.524-128.93 72.523-287.98 72.523-287.98-32.47-287.98-72.523z" fill="#ffa3a7"/>
   <path d="m89.995 298.93c0-40.055 128.93-72.524 287.98-72.524s287.98 32.47 287.98 72.524-128.93 72.523-287.98 72.523-287.98-32.471-287.98-72.523z" fill="#ffa3a8"/>
   <path d="m90.023 297.68c0-40.055 128.93-72.524 287.98-72.524s287.98 32.47 287.98 72.524-128.93 72.523-287.98 72.523-287.98-32.471-287.98-72.523z" fill="#ffa4a9"/>
   <path d="m90.053 296.44c0-40.055 128.93-72.524 287.98-72.524s287.98 32.47 287.98 72.524-128.93 72.523-287.98 72.523-287.98-32.47-287.98-72.523z" fill="#ffa5aa"/>
   <path d="m90.082 295.2c0-40.055 128.93-72.524 287.98-72.524s287.98 32.47 287.98 72.524-128.93 72.523-287.98 72.523-287.98-32.47-287.98-72.523z" fill="#ffa6ab"/>
   <path d="m90.111 293.95c0-40.055 128.93-72.524 287.98-72.524s287.98 32.47 287.98 72.524-128.93 72.523-287.98 72.523-287.98-32.47-287.98-72.523z" fill="#ffa6ac"/>
   <path d="m90.14 292.71c0-40.055 128.93-72.524 287.98-72.524s287.98 32.47 287.98 72.524-128.93 72.523-287.98 72.523-287.98-32.47-287.98-72.523z" fill="#ffa7ad"/>
   <path d="m90.169 291.46c0-40.055 128.93-72.524 287.98-72.524s287.98 32.47 287.98 72.524-128.93 72.523-287.98 72.523-287.98-32.47-287.98-72.523z" fill="#ffa8ae"/>
   <path d="m90.198 290.22c0-40.055 128.93-72.524 287.98-72.524s287.98 32.47 287.98 72.524-128.93 72.523-287.98 72.523-287.98-32.471-287.98-72.523z" fill="#ffa8af"/>
   <path d="m90.228 288.98c0-40.055 128.93-72.524 287.98-72.524s287.98 32.47 287.98 72.524-128.93 72.523-287.98 72.523-287.98-32.471-287.98-72.523z" fill="#ffa9b0"/>
   <path d="m90.256 287.73c0-40.055 128.93-72.524 287.98-72.524s287.98 32.47 287.98 72.524-128.93 72.523-287.98 72.523-287.98-32.47-287.98-72.523z" fill="#ffaab1"/>
   <path d="m90.286 286.49c0-40.055 128.93-72.524 287.98-72.524s287.98 32.47 287.98 72.524-128.93 72.523-287.98 72.523-287.98-32.47-287.98-72.523z" fill="#ffaab2"/>
   <path d="m90.314 285.24c0-40.055 128.93-72.524 287.98-72.524s287.98 32.47 287.98 72.524-128.93 72.523-287.98 72.523-287.98-32.47-287.98-72.523z" fill="#ffabb3"/>
   <path d="m90.344 284c0-40.055 128.93-72.524 287.98-72.524s287.98 32.47 287.98 72.524-128.93 72.523-287.98 72.523-287.98-32.47-287.98-72.523z" fill="#ffacb4"/>
   <path d="m90.373 282.75c0-40.055 128.93-72.524 287.98-72.524s287.98 32.47 287.98 72.524-128.93 72.523-287.98 72.523-287.98-32.47-287.98-72.523z" fill="#ffadb5"/>
   <path d="m90.402 281.51c0-40.055 128.93-72.524 287.98-72.524s287.98 32.47 287.98 72.524-128.93 72.523-287.98 72.523-287.98-32.47-287.98-72.523z" fill="#ffadb6"/>
   <path d="m90.431 280.27c0-40.055 128.93-72.524 287.98-72.524s287.98 32.47 287.98 72.524-128.93 72.523-287.98 72.523-287.98-32.471-287.98-72.523z" fill="#ffaeb7"/>
   <path d="m90.46 279.02c0-40.055 128.93-72.524 287.98-72.524s287.98 32.47 287.98 72.524-128.93 72.523-287.98 72.523-287.98-32.47-287.98-72.523z" fill="#ffafb8"/>
   <path d="m90.489 277.78c0-40.054 128.93-72.523 287.98-72.523s287.98 32.47 287.98 72.523-128.93 72.524-287.98 72.524-287.98-32.47-287.98-72.524z" fill="#ffafb8"/>
   <path d="m90.518 276.53c0-40.054 128.93-72.523 287.98-72.523s287.98 32.47 287.98 72.523-128.93 72.524-287.98 72.524-287.98-32.47-287.98-72.524z" fill="#ffb0b9"/>
   <path d="m90.547 275.29c0-40.054 128.93-72.523 287.98-72.523s287.98 32.47 287.98 72.523-128.93 72.524-287.98 72.524-287.98-32.47-287.98-72.524z" fill="#ffb1ba"/>
   <path d="m90.577 274.04c0-40.054 128.93-72.523 287.98-72.523s287.98 32.47 287.98 72.523-128.93 72.524-287.98 72.524-287.98-32.47-287.98-72.524z" fill="#ffb1bb"/>
   <path d="m90.605 272.8c0-40.054 128.93-72.524 287.98-72.524s287.98 32.47 287.98 72.524-128.93 72.524-287.98 72.524-287.98-32.47-287.98-72.524z" fill="#ffb2bc"/>
   <path d="m90.635 271.56c0-40.054 128.93-72.524 287.98-72.524s287.98 32.47 287.98 72.524-128.93 72.524-287.98 72.524-287.98-32.471-287.98-72.524z" fill="#ffb3bd"/>
   <path d="m90.664 270.31c0-40.054 128.93-72.524 287.98-72.524s287.98 32.47 287.98 72.524-128.93 72.524-287.98 72.524-287.98-32.471-287.98-72.524z" fill="#ffb4be"/>
   <path d="m90.693 269.07c0-40.054 128.93-72.524 287.98-72.524s287.98 32.47 287.98 72.524-128.93 72.524-287.98 72.524-287.98-32.47-287.98-72.524z" fill="#ffb4bf"/>
   <path d="m90.722 267.82c0-40.054 128.93-72.524 287.98-72.524s287.98 32.47 287.98 72.524-128.93 72.524-287.98 72.524-287.98-32.47-287.98-72.524z" fill="#ffb5c0"/>
   <path d="m90.751 266.58c0-40.054 128.93-72.524 287.98-72.524s287.98 32.47 287.98 72.524-128.93 72.524-287.98 72.524-287.98-32.47-287.98-72.524z" fill="#ffb6c1"/>
   <path d="m90.78 265.34c0-40.054 128.93-72.524 287.98-72.524s287.98 32.47 287.98 72.524-128.93 72.524-287.98 72.524-287.98-32.47-287.98-72.524z" fill="#ffb6c2"/>
   <path d="m90.809 264.09c0-40.054 128.93-72.524 287.98-72.524s287.98 32.47 287.98 72.524-128.93 72.524-287.98 72.524-287.98-32.47-287.98-72.524z" fill="#ffb7c3"/>
   <path d="m90.838 262.85c0-40.054 128.93-72.524 287.98-72.524s287.98 32.47 287.98 72.524-128.93 72.524-287.98 72.524-287.98-32.471-287.98-72.524z" fill="#ffb8c4"/>
   <path d="m90.867 261.6c0-40.054 128.93-72.524 287.98-72.524s287.98 32.47 287.98 72.524-128.93 72.524-287.98 72.524-287.98-32.471-287.98-72.524z" fill="#ffb8c5"/>
   <path d="m90.896 260.36c0-40.054 128.93-72.524 287.98-72.524s287.98 32.47 287.98 72.524-128.93 72.524-287.98 72.524-287.98-32.47-287.98-72.524z" fill="#ffb9c6"/>
   <path d="m90.926 259.11c0-40.054 128.93-72.524 287.98-72.524s287.98 32.47 287.98 72.524-128.93 72.524-287.98 72.524-287.98-32.47-287.98-72.524z" fill="#ffbac7"/>
   <path d="m90.955 257.87c0-40.054 128.93-72.524 287.98-72.524s287.98 32.47 287.98 72.524-128.93 72.524-287.98 72.524-287.98-32.47-287.98-72.524z" fill="#ffbbc8"/>
   <path d="m90.984 256.63c0-40.054 128.93-72.524 287.98-72.524s287.98 32.47 287.98 72.524-128.93 72.524-287.98 72.524-287.98-32.47-287.98-72.524z" fill="#ffbbc9"/>
   <path d="m91.013 255.38c0-40.054 128.93-72.524 287.98-72.524s287.98 32.47 287.98 72.524-128.93 72.524-287.98 72.524-287.98-32.47-287.98-72.524z" fill="#ffbcca"/>
   <path d="m91.042 254.14c0-40.054 128.93-72.524 287.98-72.524s287.98 32.47 287.98 72.524-128.93 72.524-287.98 72.524-287.98-32.471-287.98-72.524z" fill="#ffbdcb"/>
   <path d="m91.071 252.89c0-40.054 128.93-72.524 287.98-72.524s287.98 32.47 287.98 72.524-128.93 72.524-287.98 72.524-287.98-32.471-287.98-72.524z" fill="#ffbdcc"/>
   <path d="m91.1 251.65c0-40.054 128.93-72.524 287.98-72.524s287.98 32.47 287.98 72.524-128.93 72.524-287.98 72.524-287.98-32.47-287.98-72.524z" fill="#ffbecd"/>
   <path d="m91.129 250.4c0-40.054 128.93-72.524 287.98-72.524s287.98 32.47 287.98 72.524-128.93 72.525-287.98 72.525-287.98-32.471-287.98-72.525z" fill="#ffbfce"/>
   <path d="m91.158 249.16c0-40.054 128.93-72.524 287.98-72.524s287.98 32.47 287.98 72.524-128.93 72.524-287.98 72.524-287.98-32.47-287.98-72.524z" fill="#ffbfcf"/>
   <path d="m91.188 247.92c0-40.054 128.93-72.524 287.98-72.524s287.98 32.47 287.98 72.524-128.93 72.524-287.98 72.524-287.98-32.47-287.98-72.524z" fill="#ffc0d0"/>
   <path d="m91.216 246.67c0-40.054 128.93-72.524 287.98-72.524s287.98 32.47 287.98 72.524-128.93 72.524-287.98 72.524-287.98-32.47-287.98-72.524z" fill="#ffc1d1"/>
   <path d="m91.246 245.43c0-40.054 128.93-72.524 287.98-72.524s287.98 32.47 287.98 72.524-128.93 72.524-287.98 72.524-287.98-32.471-287.98-72.524z" fill="#ffc2d2"/>
   <path d="m91.275 244.18c0-40.054 128.93-72.524 287.98-72.524s287.98 32.47 287.98 72.524-128.93 72.524-287.98 72.524-287.98-32.471-287.98-72.524z" fill="#ffc2d3"/>
   <path d="m91.304 242.94c0-40.054 128.93-72.524 287.98-72.524s287.98 32.47 287.98 72.524-128.93 72.524-287.98 72.524-287.98-32.47-287.98-72.524z" fill="#ffc3d4"/>
   <path d="m91.333 241.7c0-40.054 128.93-72.524 287.98-72.524s287.98 32.47 287.98 72.524-128.93 72.524-287.98 72.524-287.98-32.47-287.98-72.524z" fill="#ffc4d5"/>
   <path d="m91.362 240.45c0-40.054 128.93-72.524 287.98-72.524s287.98 32.47 287.98 72.524-128.93 72.524-287.98 72.524-287.98-32.47-287.98-72.524z" fill="#ffc4d6"/>
   <path d="m667.35 239.21c0 40.054-128.93 72.524-287.98 72.524s-287.98-32.471-287.98-72.524 128.93-72.524 287.98-72.524 287.98 32.471 287.98 72.524z" fill="#ffc5d7"/>
  </g>
  <g transform="matrix(.23871 0 0 .23871 505.09 589.63)">
   <path d="m670.01 216.81c0 44.302-129.11 80.217-288.37 80.217s-288.37-35.915-288.37-80.217 129.11-80.217 288.37-80.217 288.37 35.914 288.37 80.217z" fill="#900"/>
   <path d="m381.63 296.78c-159.26 0-288.37-35.915-288.37-80.217s129.11-80.218 288.37-80.218 288.37 35.915 288.37 80.218-129.11 80.217-288.37 80.217z" fill="#9a0000"/>
   <path d="m381.63 296.52c-159.26 0-288.37-35.916-288.37-80.218s129.11-80.217 288.37-80.217 288.37 35.914 288.37 80.217-129.11 80.218-288.37 80.218z" fill="#9b0000"/>
   <path d="m381.62 296.26c-159.26 0-288.37-35.915-288.37-80.217s129.11-80.217 288.37-80.217 288.37 35.914 288.37 80.217-129.11 80.217-288.37 80.217z" fill="#9c0000"/>
   <path d="m381.62 296.01c-159.26 0-288.37-35.915-288.37-80.217s129.11-80.217 288.37-80.217 288.37 35.914 288.37 80.217-129.11 80.217-288.37 80.217z" fill="#9d0000"/>
   <path d="m381.62 295.76c-159.26 0-288.37-35.915-288.37-80.217s129.11-80.218 288.37-80.218 288.37 35.914 288.37 80.218-129.11 80.217-288.37 80.217z" fill="#9e0000"/>
   <path d="m381.61 295.5c-159.26 0-288.37-35.915-288.37-80.217s129.11-80.217 288.37-80.217 288.37 35.914 288.37 80.217-129.11 80.217-288.37 80.217z" fill="#9f0000"/>
   <path d="m381.61 295.24c-159.26 0-288.37-35.915-288.37-80.217s129.11-80.217 288.37-80.217 288.37 35.914 288.37 80.217-129.11 80.217-288.37 80.217z" fill="#a00000"/>
   <path d="m381.6 294.99c-159.26 0-288.37-35.915-288.37-80.217s129.11-80.217 288.37-80.217 288.37 35.914 288.37 80.217-129.11 80.217-288.37 80.217z" fill="#a10000"/>
   <path d="m381.6 294.73c-159.26 0-288.37-35.915-288.37-80.217s129.11-80.218 288.37-80.218 288.37 35.914 288.37 80.218-129.11 80.217-288.37 80.217z" fill="#a20000"/>
   <path d="m381.59 294.48c-159.26 0-288.37-35.915-288.37-80.217s129.11-80.217 288.37-80.217 288.37 35.915 288.37 80.217-129.11 80.217-288.37 80.217z" fill="#a30000"/>
   <path d="m381.59 294.22c-159.26 0-288.37-35.915-288.37-80.217s129.11-80.217 288.37-80.217 288.37 35.914 288.37 80.217-129.11 80.217-288.37 80.217z" fill="#a40000"/>
   <path d="m381.58 293.97c-159.26 0-288.37-35.915-288.37-80.217s129.11-80.218 288.37-80.218 288.37 35.914 288.37 80.218-129.11 80.217-288.37 80.217z" fill="#a50000"/>
   <path d="m381.58 293.71c-159.26 0-288.37-35.916-288.37-80.218s129.11-80.217 288.37-80.217 288.37 35.914 288.37 80.217-129.11 80.218-288.37 80.218z" fill="#a60000"/>
   <path d="m381.57 293.46c-159.26 0-288.37-35.915-288.37-80.217s129.11-80.217 288.37-80.217 288.37 35.914 288.37 80.217-129.11 80.217-288.37 80.217z" fill="#a70000"/>
   <path d="m381.57 293.2c-159.26 0-288.37-35.915-288.37-80.217s129.11-80.217 288.37-80.217 288.37 35.914 288.37 80.217-129.11 80.217-288.37 80.217z" fill="#a80000"/>
   <path d="m381.56 292.95c-159.26 0-288.37-35.915-288.37-80.217s129.11-80.218 288.37-80.218 288.37 35.914 288.37 80.218-129.11 80.217-288.37 80.217z" fill="#a90000"/>
   <path d="m381.56 292.69c-159.26 0-288.37-35.916-288.37-80.218s129.11-80.217 288.37-80.217 288.37 35.915 288.37 80.217-129.11 80.218-288.37 80.218z" fill="#a00"/>
   <path d="m381.56 292.44c-159.26 0-288.37-35.915-288.37-80.217s129.11-80.217 288.37-80.217 288.37 35.914 288.37 80.217-129.11 80.217-288.37 80.217z" fill="#ab0000"/>
   <path d="m381.55 292.18c-159.26 0-288.37-35.915-288.37-80.217s129.11-80.218 288.37-80.218 288.37 35.915 288.37 80.218-129.11 80.217-288.37 80.217z" fill="#ac0000"/>
   <path d="m381.54 291.93c-159.26 0-288.37-35.915-288.37-80.217s129.11-80.218 288.37-80.218 288.37 35.914 288.37 80.218-129.11 80.217-288.37 80.217z" fill="#ad0000"/>
   <path d="m381.54 291.67c-159.26 0-288.37-35.916-288.37-80.218s129.11-80.217 288.37-80.217 288.37 35.914 288.37 80.217-129.11 80.218-288.37 80.218z" fill="#ae0000"/>
   <path d="m381.54 291.42c-159.26 0-288.37-35.915-288.37-80.217s129.11-80.217 288.37-80.217 288.37 35.914 288.37 80.217-129.11 80.217-288.37 80.217z" fill="#af0000"/>
   <path d="m381.53 291.16c-159.26 0-288.37-35.915-288.37-80.217s129.11-80.218 288.37-80.218 288.37 35.914 288.37 80.218-129.11 80.217-288.37 80.217z" fill="#b00000"/>
   <path d="m381.53 290.91c-159.26 0-288.37-35.915-288.37-80.217s129.11-80.218 288.37-80.218 288.37 35.914 288.37 80.218-129.11 80.217-288.37 80.217z" fill="#b10000"/>
   <path d="m381.52 290.65c-159.26 0-288.37-35.915-288.37-80.217s129.11-80.217 288.37-80.217 288.37 35.914 288.37 80.217-129.11 80.217-288.37 80.217z" fill="#b20000"/>
   <path d="m381.52 290.4c-159.26 0-288.37-35.915-288.37-80.217s129.11-80.218 288.37-80.218 288.37 35.915 288.37 80.218-129.11 80.217-288.37 80.217z" fill="#b30000"/>
   <path d="m381.51 290.14c-159.26 0-288.37-35.915-288.37-80.217s129.11-80.218 288.37-80.218 288.37 35.914 288.37 80.218-129.11 80.217-288.37 80.217z" fill="#b40000"/>
   <path d="m381.51 289.89c-159.26 0-288.37-35.916-288.37-80.218s129.11-80.217 288.37-80.217 288.37 35.915 288.37 80.217-129.11 80.218-288.37 80.218z" fill="#b50000"/>
   <path d="m381.5 289.63c-159.26 0-288.37-35.915-288.37-80.217s129.11-80.217 288.37-80.217 288.37 35.914 288.37 80.217-129.11 80.217-288.37 80.217z" fill="#b60000"/>
   <path d="m381.5 289.38c-159.26 0-288.37-35.915-288.37-80.217s129.11-80.218 288.37-80.218 288.37 35.914 288.37 80.218-129.11 80.217-288.37 80.217z" fill="#b70000"/>
   <path d="m381.5 289.12c-159.26 0-288.37-35.915-288.37-80.217s129.11-80.218 288.37-80.218 288.37 35.914 288.37 80.218-129.11 80.217-288.37 80.217z" fill="#b80000"/>
   <path d="m381.49 288.87c-159.26 0-288.37-35.916-288.37-80.218s129.11-80.217 288.37-80.217 288.37 35.914 288.37 80.217-129.11 80.218-288.37 80.218z" fill="#b90000"/>
   <path d="m381.49 288.61c-159.26 0-288.37-35.915-288.37-80.217s129.11-80.218 288.37-80.218 288.37 35.915 288.37 80.218-129.11 80.217-288.37 80.217z" fill="#ba0000"/>
   <path d="m381.48 288.36c-159.26 0-288.37-35.915-288.37-80.217s129.11-80.218 288.37-80.218 288.37 35.914 288.37 80.218-129.11 80.217-288.37 80.217z" fill="#b00"/>
   <path d="m381.48 288.1c-159.26 0-288.37-35.915-288.37-80.217s129.11-80.218 288.37-80.218 288.37 35.915 288.37 80.218-129.11 80.217-288.37 80.217z" fill="#bc0000"/>
   <path d="m381.47 287.85c-159.26 0-288.37-35.916-288.37-80.218s129.11-80.217 288.37-80.217 288.37 35.914 288.37 80.217-129.11 80.218-288.37 80.218z" fill="#bd0000"/>
   <path d="m381.47 287.59c-159.26 0-288.37-35.915-288.37-80.217s129.11-80.218 288.37-80.218 288.37 35.915 288.37 80.218-129.11 80.217-288.37 80.217z" fill="#be0000"/>
   <path d="m381.46 287.34c-159.26 0-288.37-35.915-288.37-80.217s129.11-80.218 288.37-80.218 288.37 35.914 288.37 80.218-129.11 80.217-288.37 80.217z" fill="#bf0000"/>
   <path d="m381.46 287.08c-159.26 0-288.37-35.916-288.37-80.218s129.11-80.217 288.37-80.217 288.37 35.914 288.37 80.217-129.11 80.218-288.37 80.218z" fill="#c00000"/>
   <path d="m381.46 286.82c-159.26 0-288.37-35.916-288.37-80.218s129.11-80.217 288.37-80.217 288.37 35.914 288.37 80.217-129.11 80.218-288.37 80.218z" fill="#c10000"/>
   <path d="m381.45 286.57c-159.26 0-288.37-35.915-288.37-80.217s129.11-80.218 288.37-80.218 288.37 35.914 288.37 80.218-129.11 80.217-288.37 80.217z" fill="#c20000"/>
   <path d="m381.45 286.31c-159.26 0-288.37-35.915-288.37-80.217s129.11-80.218 288.37-80.218 288.37 35.915 288.37 80.218-129.11 80.217-288.37 80.217z" fill="#c30000"/>
   <path d="m381.44 286.06c-159.26 0-288.37-35.916-288.37-80.218s129.11-80.217 288.37-80.217 288.37 35.914 288.37 80.217-129.11 80.218-288.37 80.218z" fill="#c40000"/>
   <path d="m381.44 285.8c-159.26 0-288.37-35.915-288.37-80.217s129.11-80.218 288.37-80.218 288.37 35.915 288.37 80.218-129.11 80.217-288.37 80.217z" fill="#c50000"/>
   <path d="m381.43 285.55c-159.26 0-288.37-35.915-288.37-80.217s129.11-80.218 288.37-80.218 288.37 35.914 288.37 80.218-129.11 80.217-288.37 80.217z" fill="#c60000"/>
   <path d="m381.43 285.29c-159.26 0-288.37-35.915-288.37-80.217s129.11-80.218 288.37-80.218 288.37 35.915 288.37 80.218-129.11 80.217-288.37 80.217z" fill="#c70000"/>
   <path d="m381.42 285.04c-159.26 0-288.37-35.916-288.37-80.218s129.11-80.217 288.37-80.217 288.37 35.914 288.37 80.217-129.11 80.218-288.37 80.218z" fill="#c80000"/>
   <path d="m381.42 284.78c-159.26 0-288.37-35.915-288.37-80.217s129.11-80.218 288.37-80.218 288.37 35.915 288.37 80.218-129.11 80.217-288.37 80.217z" fill="#c90000"/>
   <path d="m381.41 284.53c-159.26 0-288.37-35.915-288.37-80.217s129.11-80.218 288.37-80.218 288.37 35.915 288.37 80.218-129.11 80.217-288.37 80.217z" fill="#ca0000"/>
   <path d="m381.41 284.27c-159.26 0-288.37-35.916-288.37-80.218s129.11-80.217 288.37-80.217 288.37 35.914 288.37 80.217-129.11 80.218-288.37 80.218z" fill="#cb0000"/>
   <path d="m381.4 284.02c-159.26 0-288.37-35.916-288.37-80.218s129.11-80.218 288.37-80.218 288.37 35.915 288.37 80.218-129.11 80.218-288.37 80.218z" fill="#c00"/>
   <path d="m381.4 283.76c-159.26 0-288.37-35.915-288.37-80.217s129.11-80.218 288.37-80.218 288.37 35.914 288.37 80.218-129.11 80.217-288.37 80.217z" fill="#c00"/>
   <path d="m381.4 283.51c-159.26 0-288.37-35.915-288.37-80.217s129.11-80.218 288.37-80.218 288.37 35.915 288.37 80.218-129.11 80.217-288.37 80.217z" fill="#cd0000"/>
   <path d="m381.39 283.25c-159.26 0-288.37-35.916-288.37-80.218s129.11-80.217 288.37-80.217 288.37 35.914 288.37 80.217-129.11 80.218-288.37 80.218z" fill="#ce0000"/>
   <path d="m381.38 283c-159.26 0-288.37-35.916-288.37-80.218s129.11-80.218 288.37-80.218 288.37 35.915 288.37 80.218-129.11 80.218-288.37 80.218z" fill="#cf0000"/>
   <path d="m381.38 282.74c-159.26 0-288.37-35.915-288.37-80.217s129.11-80.218 288.37-80.218 288.37 35.914 288.37 80.218-129.11 80.217-288.37 80.217z" fill="#d00000"/>
   <path d="m381.38 282.49c-159.26 0-288.37-35.915-288.37-80.217s129.11-80.218 288.37-80.218 288.37 35.915 288.37 80.218-129.11 80.217-288.37 80.217z" fill="#d10000"/>
   <path d="m381.37 282.23c-159.26 0-288.37-35.916-288.37-80.218s129.11-80.218 288.37-80.218 288.37 35.915 288.37 80.218-129.11 80.218-288.37 80.218z" fill="#d20000"/>
   <path d="m381.37 281.98c-159.26 0-288.37-35.916-288.37-80.218s129.11-80.218 288.37-80.218 288.37 35.914 288.37 80.218-129.11 80.218-288.37 80.218z" fill="#d30000"/>
   <path d="m381.36 281.72c-159.26 0-288.37-35.915-288.37-80.217s129.11-80.218 288.37-80.218 288.37 35.915 288.37 80.218-129.11 80.217-288.37 80.217z" fill="#d40000"/>
   <path d="m381.36 281.47c-159.26 0-288.37-35.916-288.37-80.218s129.11-80.217 288.37-80.217 288.37 35.914 288.37 80.217-129.11 80.218-288.37 80.218z" fill="#d50000"/>
   <path d="m381.35 281.21c-159.26 0-288.37-35.916-288.37-80.218s129.11-80.218 288.37-80.218 288.37 35.915 288.37 80.218-129.11 80.218-288.37 80.218z" fill="#d60000"/>
   <path d="m381.35 280.96c-159.26 0-288.37-35.916-288.37-80.218s129.11-80.218 288.37-80.218 288.37 35.914 288.37 80.218-129.1 80.218-288.37 80.218z" fill="#d70000"/>
   <path d="m381.34 280.7c-159.26 0-288.37-35.915-288.37-80.217s129.11-80.218 288.37-80.218 288.37 35.915 288.37 80.218-129.11 80.217-288.37 80.217z" fill="#d80000"/>
   <path d="m381.34 280.45c-159.26 0-288.37-35.916-288.37-80.217s129.11-80.218 288.37-80.218 288.37 35.915 288.37 80.218-129.11 80.217-288.37 80.217z" fill="#d90000"/>
   <path d="m381.34 280.19c-159.26 0-288.37-35.916-288.37-80.218s129.11-80.218 288.37-80.218 288.37 35.915 288.37 80.218-129.1 80.218-288.37 80.218z" fill="#da0000"/>
   <path d="m381.33 279.94c-159.26 0-288.37-35.915-288.37-80.217s129.11-80.218 288.37-80.218 288.37 35.915 288.37 80.218-129.11 80.217-288.37 80.217z" fill="#db0000"/>
   <path d="m381.33 279.68c-159.26 0-288.37-35.915-288.37-80.217s129.11-80.218 288.37-80.218 288.37 35.914 288.37 80.218-129.11 80.217-288.37 80.217z" fill="#dc0000"/>
   <path d="m381.32 279.43c-159.26 0-288.37-35.916-288.37-80.217s129.11-80.218 288.37-80.218 288.37 35.915 288.37 80.218-129.11 80.217-288.37 80.217z" fill="#d00"/>
   <path d="m381.32 279.17c-159.26 0-288.37-35.916-288.37-80.218s129.11-80.218 288.37-80.218 288.37 35.914 288.37 80.218-129.1 80.218-288.37 80.218z" fill="#de0000"/>
   <path d="m381.31 278.92c-159.26 0-288.37-35.915-288.37-80.217s129.11-80.218 288.37-80.218 288.37 35.915 288.37 80.218-129.11 80.217-288.37 80.217z" fill="#df0000"/>
   <path d="m381.31 278.66c-159.26 0-288.37-35.916-288.37-80.217s129.11-80.218 288.37-80.218 288.37 35.915 288.37 80.218-129.11 80.217-288.37 80.217z" fill="#e00000"/>
   <path d="m381.3 278.4c-159.26 0-288.37-35.916-288.37-80.218s129.11-80.218 288.37-80.218 288.37 35.915 288.37 80.218-129.1 80.218-288.37 80.218z" fill="#e10000"/>
   <path d="m381.3 278.15c-159.26 0-288.37-35.916-288.37-80.218s129.11-80.218 288.37-80.218 288.37 35.915 288.37 80.218-129.11 80.218-288.37 80.218z" fill="#e20000"/>
   <path d="m381.29 277.9c-159.26 0-288.37-35.915-288.37-80.217s129.11-80.218 288.37-80.218 288.37 35.915 288.37 80.218-129.11 80.217-288.37 80.217z" fill="#e30000"/>
   <path d="m381.29 277.64c-159.26 0-288.37-35.916-288.37-80.217s129.11-80.218 288.37-80.218 288.37 35.915 288.37 80.218-129.11 80.217-288.37 80.217z" fill="#e40000"/>
   <path d="m381.29 277.38c-159.26 0-288.37-35.916-288.37-80.218s129.11-80.218 288.37-80.218 288.37 35.914 288.37 80.218-129.11 80.218-288.37 80.218z" fill="#e50000"/>
   <path d="m381.28 277.13c-159.26 0-288.37-35.916-288.37-80.218s129.11-80.218 288.37-80.218 288.37 35.915 288.37 80.218-129.11 80.218-288.37 80.218z" fill="#e60000"/>
   <path d="m381.28 276.87c-159.26 0-288.37-35.915-288.37-80.217s129.11-80.218 288.37-80.218 288.37 35.914 288.37 80.218-129.1 80.217-288.37 80.217z" fill="#e70000"/>
   <path d="m381.27 276.62c-159.26 0-288.37-35.916-288.37-80.217s129.11-80.218 288.37-80.218 288.37 35.915 288.37 80.218-129.1 80.217-288.37 80.217z" fill="#e80000"/>
   <path d="m381.27 276.36c-159.26 0-288.37-35.916-288.37-80.218s129.11-80.218 288.37-80.218 288.37 35.915 288.37 80.218-129.11 80.218-288.37 80.218z" fill="#e90000"/>
   <path d="m381.26 276.11c-159.26 0-288.37-35.916-288.37-80.218s129.11-80.218 288.37-80.218 288.37 35.915 288.37 80.218-129.11 80.218-288.37 80.218z" fill="#ea0000"/>
   <path d="m381.26 275.85c-159.26 0-288.37-35.916-288.37-80.217s129.11-80.218 288.37-80.218 288.37 35.915 288.37 80.218-129.1 80.217-288.37 80.217z" fill="#eb0000"/>
   <path d="m381.25 275.6c-159.26 0-288.37-35.916-288.37-80.218s129.11-80.218 288.37-80.218 288.37 35.915 288.37 80.218-129.1 80.218-288.37 80.218z" fill="#ec0000"/>
   <path d="m381.25 275.34c-159.26 0-288.37-35.916-288.37-80.218s129.11-80.218 288.37-80.218 288.37 35.915 288.37 80.218-129.11 80.218-288.37 80.218z" fill="#ed0000"/>
   <path d="m381.24 275.09c-159.26 0-288.37-35.915-288.37-80.217s129.11-80.218 288.37-80.218 288.37 35.914 288.37 80.218-129.11 80.217-288.37 80.217z" fill="#e00"/>
   <path d="m381.24 274.83c-159.26 0-288.37-35.916-288.37-80.217s129.11-80.218 288.37-80.218 288.37 35.915 288.37 80.218-129.11 80.217-288.37 80.217z" fill="#ef0000"/>
   <path d="m381.24 274.58c-159.26 0-288.37-35.916-288.37-80.218s129.11-80.218 288.37-80.218 288.37 35.915 288.37 80.218-129.11 80.218-288.37 80.218z" fill="#f00000"/>
   <path d="m381.23 274.32c-159.26 0-288.37-35.916-288.37-80.218s129.11-80.218 288.37-80.218 288.37 35.915 288.37 80.218-129.1 80.218-288.37 80.218z" fill="#f10000"/>
   <path d="m381.22 274.07c-159.26 0-288.37-35.915-288.37-80.217s129.11-80.218 288.37-80.218 288.37 35.915 288.37 80.218-129.1 80.217-288.37 80.217z" fill="#f20000"/>
   <path d="m381.22 273.81c-159.26 0-288.37-35.916-288.37-80.217s129.11-80.218 288.37-80.218 288.37 35.915 288.37 80.218-129.11 80.217-288.37 80.217z" fill="#f30000"/>
   <path d="m381.22 273.56c-159.26 0-288.37-35.916-288.37-80.218s129.11-80.218 288.37-80.218 288.37 35.915 288.37 80.218-129.1 80.218-288.37 80.218z" fill="#f40000"/>
   <path d="m381.21 273.3c-159.26 0-288.37-35.916-288.37-80.218s129.11-80.218 288.37-80.218 288.37 35.915 288.37 80.218-129.1 80.218-288.37 80.218z" fill="#f50000"/>
   <path d="m381.21 273.05c-159.26 0-288.37-35.916-288.37-80.217s129.11-80.218 288.37-80.218 288.37 35.915 288.37 80.218-129.11 80.217-288.37 80.217z" fill="#f60000"/>
   <path d="m381.2 272.79c-159.26 0-288.37-35.916-288.37-80.218s129.11-80.218 288.37-80.218 288.37 35.914 288.37 80.218-129.11 80.218-288.37 80.218z" fill="#f70000"/>
   <path d="m381.2 272.54c-159.26 0-288.37-35.916-288.37-80.218s129.11-80.218 288.37-80.218 288.37 35.915 288.37 80.218-129.11 80.218-288.37 80.218z" fill="#f80000"/>
   <path d="m381.19 272.28c-159.26 0-288.37-35.916-288.37-80.218s129.11-80.218 288.37-80.218 288.37 35.915 288.37 80.218-129.1 80.218-288.37 80.218z" fill="#f90000"/>
   <path d="m381.19 272.03c-159.26 0-288.37-35.916-288.37-80.217s129.11-80.218 288.37-80.218 288.37 35.915 288.37 80.218-129.11 80.217-288.37 80.217z" fill="#fa0000"/>
   <path d="m381.18 271.77c-159.26 0-288.37-35.916-288.37-80.218s129.11-80.218 288.37-80.218 288.37 35.915 288.37 80.218-129.1 80.218-288.37 80.218z" fill="#fb0000"/>
   <path d="m381.18 271.52c-159.26 0-288.37-35.916-288.37-80.218s129.11-80.218 288.37-80.218 288.37 35.915 288.37 80.218-129.1 80.218-288.37 80.218z" fill="#fc0000"/>
   <path d="m381.18 271.26c-159.26 0-288.37-35.916-288.37-80.218s129.11-80.218 288.37-80.218 288.37 35.915 288.37 80.218-129.1 80.218-288.37 80.218z" fill="#fd0000"/>
   <path d="m381.17 271.01c-159.26 0-288.37-35.916-288.37-80.217s129.11-80.218 288.37-80.218 288.37 35.915 288.37 80.218-129.1 80.217-288.37 80.217z" fill="#fe0000"/>
   <path d="m669.53 190.53c0 44.302-129.1 80.218-288.37 80.218s-288.37-35.916-288.37-80.218 129.11-80.218 288.37-80.218 288.37 35.914 288.37 80.218z" fill="#f00"/>
  </g>
  <path d="m664.4 635.18c0 9.5615-30.778 17.313-68.743 17.313s-68.744-7.7511-68.744-17.313 30.777-17.312 68.744-17.312 68.743 7.7506 68.743 17.312z" fill="#f99"/>
  <path d="m526.92 634.88c0-9.561 30.777-17.312 68.744-17.312s68.743 7.7506 68.743 17.312-30.778 17.313-68.743 17.313-68.744-7.7511-68.744-17.313z" fill="#ff9a9a"/>
  <path d="m526.93 634.59c0-9.561 30.777-17.312 68.744-17.312s68.743 7.7506 68.743 17.312-30.778 17.313-68.743 17.313-68.744-7.7511-68.744-17.313z" fill="#ff9a9b"/>
  <path d="m526.94 634.29c0-9.561 30.777-17.312 68.744-17.312s68.743 7.7506 68.743 17.312-30.778 17.313-68.743 17.313-68.744-7.7511-68.744-17.313z" fill="#ff9b9c"/>
  <path d="m526.94 633.99c0-9.561 30.777-17.312 68.743-17.312s68.743 7.7506 68.743 17.312-30.778 17.313-68.743 17.313-68.743-7.7509-68.743-17.313z" fill="#ff9c9d"/>
  <path d="m526.95 633.69c0-9.561 30.777-17.312 68.743-17.312s68.743 7.7506 68.743 17.312-30.778 17.313-68.743 17.313-68.743-7.7511-68.743-17.313z" fill="#ff9c9e"/>
  <path d="m526.96 633.4c0-9.561 30.777-17.312 68.744-17.312s68.743 7.7506 68.743 17.312-30.778 17.313-68.743 17.313-68.744-7.7511-68.744-17.313z" fill="#ff9d9f"/>
  <path d="m526.96 633.1c0-9.561 30.777-17.312 68.744-17.312s68.743 7.7506 68.743 17.312-30.778 17.313-68.743 17.313-68.744-7.7511-68.744-17.313z" fill="#ff9ea0"/>
  <path d="m526.97 632.8c0-9.561 30.777-17.312 68.744-17.312s68.743 7.7506 68.743 17.312-30.778 17.313-68.743 17.313-68.744-7.7511-68.744-17.313z" fill="#ff9fa1"/>
  <path d="m526.98 632.51c0-9.5612 30.777-17.312 68.744-17.312s68.743 7.7506 68.743 17.312-30.778 17.312-68.743 17.312-68.744-7.7509-68.744-17.312z" fill="#ff9fa2"/>
  <path d="m526.99 632.21c0-9.5612 30.777-17.312 68.744-17.312s68.743 7.7506 68.743 17.312-30.778 17.312-68.743 17.312-68.744-7.7509-68.744-17.312z" fill="#ffa0a3"/>
  <path d="m526.99 631.91c0-9.5612 30.777-17.312 68.744-17.312s68.743 7.7506 68.743 17.312-30.778 17.312-68.743 17.312-68.744-7.7509-68.744-17.312z" fill="#ffa1a4"/>
  <path d="m527 631.62c0-9.5612 30.777-17.312 68.744-17.312s68.743 7.7506 68.743 17.312-30.778 17.312-68.743 17.312-68.744-7.7511-68.744-17.312z" fill="#ffa1a5"/>
  <path d="m527.01 631.32c0-9.5612 30.777-17.312 68.744-17.312s68.743 7.7506 68.743 17.312-30.778 17.312-68.743 17.312-68.744-7.7511-68.744-17.312z" fill="#ffa2a6"/>
  <path d="m527.01 631.02c0-9.5612 30.777-17.312 68.743-17.312s68.744 7.7506 68.744 17.312-30.778 17.312-68.744 17.312-68.743-7.7511-68.743-17.312z" fill="#ffa3a7"/>
  <path d="m527.02 630.72c0-9.5612 30.777-17.312 68.743-17.312s68.743 7.7506 68.743 17.312-30.778 17.312-68.743 17.312-68.743-7.7509-68.743-17.312z" fill="#ffa3a8"/>
  <path d="m527.03 630.43c0-9.561 30.777-17.312 68.744-17.312s68.743 7.7509 68.743 17.312-30.778 17.312-68.743 17.312-68.744-7.7509-68.744-17.312z" fill="#ffa4a9"/>
  <path d="m527.03 630.13c0-9.561 30.777-17.312 68.744-17.312s68.743 7.7509 68.743 17.312-30.778 17.312-68.743 17.312-68.744-7.7509-68.744-17.312z" fill="#ffa5aa"/>
  <path d="m527.04 629.83c0-9.561 30.777-17.312 68.744-17.312s68.743 7.7509 68.743 17.312-30.778 17.312-68.743 17.312-68.744-7.7509-68.744-17.312z" fill="#ffa6ab"/>
  <path d="m527.05 629.54c0-9.561 30.777-17.312 68.744-17.312s68.743 7.7509 68.743 17.312-30.778 17.312-68.743 17.312-68.744-7.7511-68.744-17.312z" fill="#ffa6ac"/>
  <path d="m527.05 629.24c0-9.561 30.777-17.312 68.744-17.312s68.743 7.7509 68.743 17.312-30.778 17.312-68.743 17.312-68.744-7.7511-68.744-17.312z" fill="#ffa7ad"/>
  <path d="m527.06 628.94c0-9.561 30.777-17.312 68.744-17.312s68.743 7.7509 68.743 17.312-30.778 17.312-68.743 17.312-68.744-7.7511-68.744-17.312z" fill="#ffa8ae"/>
  <path d="m527.07 628.65c0-9.561 30.777-17.312 68.744-17.312s68.743 7.7509 68.743 17.312-30.778 17.312-68.743 17.312-68.744-7.7509-68.744-17.312z" fill="#ffa8af"/>
  <path d="m527.08 628.35c0-9.561 30.777-17.312 68.744-17.312s68.743 7.7509 68.743 17.312-30.778 17.312-68.743 17.312-68.744-7.7509-68.744-17.312z" fill="#ffa9b0"/>
  <path d="m527.08 628.05c0-9.5612 30.777-17.312 68.743-17.312s68.744 7.7509 68.744 17.312-30.778 17.312-68.744 17.312-68.743-7.7511-68.743-17.312z" fill="#ffaab1"/>
  <path d="m527.09 627.76c0-9.5612 30.777-17.312 68.744-17.312s68.744 7.7509 68.744 17.312-30.778 17.312-68.744 17.312-68.744-7.7509-68.744-17.312z" fill="#ffaab2"/>
  <path d="m527.1 627.46c0-9.5612 30.777-17.312 68.744-17.312s68.743 7.7509 68.743 17.312-30.778 17.312-68.743 17.312-68.744-7.7509-68.744-17.312z" fill="#ffabb3"/>
  <path d="m527.1 627.16c0-9.5612 30.777-17.312 68.744-17.312s68.743 7.7509 68.743 17.312-30.778 17.312-68.743 17.312-68.744-7.7509-68.744-17.312z" fill="#ffacb4"/>
  <path d="m527.11 626.86c0-9.5612 30.777-17.312 68.744-17.312s68.743 7.7509 68.743 17.312-30.778 17.312-68.743 17.312-68.744-7.7509-68.744-17.312z" fill="#ffadb5"/>
  <path d="m527.12 626.57c0-9.5612 30.777-17.312 68.744-17.312s68.743 7.7509 68.743 17.312-30.778 17.312-68.743 17.312-68.744-7.7509-68.744-17.312z" fill="#ffadb6"/>
  <path d="m527.12 626.27c0-9.5612 30.777-17.312 68.744-17.312s68.743 7.7509 68.743 17.312-30.778 17.312-68.743 17.312-68.744-7.7511-68.744-17.312z" fill="#ffaeb7"/>
  <path d="m527.13 625.97c0-9.5612 30.777-17.312 68.744-17.312s68.744 7.7509 68.744 17.312-30.778 17.312-68.744 17.312-68.744-7.7511-68.744-17.312z" fill="#ffafb8"/>
  <path d="m527.14 625.68c0-9.5612 30.777-17.312 68.744-17.312s68.743 7.7506 68.743 17.312-30.778 17.312-68.743 17.312-68.744-7.7506-68.744-17.312z" fill="#ffafb8"/>
  <path d="m527.14 625.38c0-9.5612 30.777-17.312 68.743-17.312s68.744 7.7506 68.744 17.312-30.778 17.312-68.744 17.312-68.743-7.7506-68.743-17.312z" fill="#ffb0b9"/>
  <path d="m527.15 625.08c0-9.5612 30.777-17.312 68.744-17.312s68.744 7.7506 68.744 17.312-30.778 17.312-68.744 17.312-68.744-7.7506-68.744-17.312z" fill="#ffb1ba"/>
  <path d="m527.16 624.79c0-9.5612 30.777-17.312 68.744-17.312s68.744 7.7506 68.744 17.312-30.778 17.312-68.744 17.312-68.744-7.7506-68.744-17.312z" fill="#ffb1bb"/>
  <path d="m527.17 624.49c0-9.5612 30.777-17.312 68.744-17.312s68.744 7.7506 68.744 17.312-30.778 17.312-68.744 17.312-68.744-7.7506-68.744-17.312z" fill="#ffb2bc"/>
  <path d="m527.17 624.19c0-9.5612 30.777-17.312 68.744-17.312s68.744 7.7506 68.744 17.312-30.778 17.312-68.744 17.312-68.744-7.7509-68.744-17.312z" fill="#ffb3bd"/>
  <path d="m527.18 623.89c0-9.5612 30.777-17.312 68.744-17.312s68.743 7.7506 68.743 17.312-30.778 17.312-68.743 17.312-68.744-7.7509-68.744-17.312z" fill="#ffb4be"/>
  <path d="m527.19 623.6c0-9.5612 30.777-17.312 68.744-17.312s68.743 7.7506 68.743 17.312-30.778 17.312-68.743 17.312-68.744-7.7506-68.744-17.312z" fill="#ffb4bf"/>
  <path d="m527.19 623.3c0-9.5612 30.777-17.312 68.744-17.312s68.744 7.7506 68.744 17.312-30.778 17.312-68.744 17.312-68.744-7.7506-68.744-17.312z" fill="#ffb5c0"/>
  <path d="m527.2 623c0-9.5612 30.777-17.312 68.744-17.312s68.744 7.7506 68.744 17.312-30.778 17.312-68.744 17.312-68.744-7.7506-68.744-17.312z" fill="#ffb6c1"/>
  <path d="m527.21 622.71c0-9.5612 30.777-17.312 68.744-17.312s68.744 7.7506 68.744 17.312-30.778 17.312-68.744 17.312-68.744-7.7506-68.744-17.312z" fill="#ffb6c2"/>
  <path d="m527.21 622.41c0-9.5612 30.777-17.312 68.743-17.312s68.744 7.7506 68.744 17.312-30.778 17.312-68.744 17.312-68.743-7.7506-68.743-17.312z" fill="#ffb7c3"/>
  <path d="m527.22 622.11c0-9.5612 30.777-17.312 68.744-17.312s68.744 7.7506 68.744 17.312-30.778 17.312-68.744 17.312-68.744-7.7506-68.744-17.312z" fill="#ffb8c4"/>
  <path d="m527.23 621.82c0-9.5612 30.777-17.312 68.744-17.312s68.744 7.7506 68.744 17.312-30.778 17.312-68.744 17.312-68.744-7.7506-68.744-17.312z" fill="#ffb8c5"/>
  <path d="m527.23 621.52c0-9.5612 30.777-17.312 68.744-17.312s68.744 7.7506 68.744 17.312-30.778 17.312-68.744 17.312-68.744-7.7506-68.744-17.312z" fill="#ffb9c6"/>
  <path d="m527.24 621.22c0-9.5612 30.777-17.312 68.744-17.312s68.744 7.7506 68.744 17.312-30.778 17.312-68.744 17.312-68.744-7.7506-68.744-17.312z" fill="#ffbac7"/>
  <path d="m527.25 620.92c0-9.5612 30.777-17.312 68.744-17.312s68.744 7.7509 68.744 17.312-30.778 17.312-68.744 17.312-68.744-7.7506-68.744-17.312z" fill="#ffbbc8"/>
  <path d="m527.26 620.63c0-9.5612 30.777-17.312 68.744-17.312s68.743 7.7509 68.743 17.312-30.778 17.312-68.743 17.312-68.744-7.7506-68.744-17.312z" fill="#ffbbc9"/>
  <path d="m527.26 620.33c0-9.5612 30.777-17.312 68.744-17.312s68.744 7.7509 68.744 17.312-30.778 17.312-68.744 17.312-68.744-7.7504-68.744-17.312z" fill="#ffbcca"/>
  <path d="m527.27 620.03c0-9.5612 30.777-17.312 68.744-17.312s68.744 7.7509 68.744 17.312-30.778 17.312-68.744 17.312-68.744-7.7504-68.744-17.312z" fill="#ffbdcb"/>
  <path d="m527.28 619.74c0-9.5612 30.777-17.312 68.744-17.312s68.744 7.7509 68.744 17.312-30.778 17.312-68.744 17.312-68.744-7.7504-68.744-17.312z" fill="#ffbdcc"/>
  <path d="m527.28 619.44c0-9.5612 30.777-17.312 68.744-17.312s68.744 7.7509 68.744 17.312-30.778 17.312-68.744 17.312-68.744-7.7504-68.744-17.312z" fill="#ffbecd"/>
  <path d="m527.29 619.14c0-9.5612 30.777-17.312 68.744-17.312s68.744 7.7509 68.744 17.312-30.778 17.312-68.744 17.312-68.744-7.7504-68.744-17.312z" fill="#ffbfce"/>
  <path d="m527.3 618.85c0-9.5612 30.777-17.312 68.744-17.312s68.744 7.7509 68.744 17.312-30.778 17.312-68.744 17.312-68.744-7.7506-68.744-17.312z" fill="#ffbfcf"/>
  <path d="m527.3 618.55c0-9.5612 30.777-17.312 68.744-17.312s68.744 7.7509 68.744 17.312-30.778 17.312-68.744 17.312-68.744-7.7506-68.744-17.312z" fill="#ffc0d0"/>
  <path d="m527.31 618.25c0-9.5612 30.777-17.312 68.744-17.312s68.744 7.7509 68.744 17.312-30.778 17.312-68.744 17.312-68.744-7.7506-68.744-17.312z" fill="#ffc1d1"/>
  <path d="m527.32 617.95c0-9.5612 30.777-17.312 68.744-17.312s68.744 7.7509 68.744 17.312-30.778 17.312-68.744 17.312-68.744-7.7506-68.744-17.312z" fill="#ffc2d2"/>
  <path d="m527.33 617.66c0-9.5612 30.777-17.312 68.744-17.312s68.744 7.7509 68.744 17.312-30.778 17.312-68.744 17.312-68.744-7.7506-68.744-17.312z" fill="#ffc2d3"/>
  <path d="m527.33 617.36c0-9.5612 30.777-17.312 68.744-17.312s68.744 7.7509 68.744 17.312-30.778 17.312-68.744 17.312-68.744-7.7506-68.744-17.312z" fill="#ffc3d4"/>
  <path d="m527.34 617.06c0-9.5612 30.777-17.312 68.744-17.312s68.744 7.7509 68.744 17.312-30.778 17.312-68.744 17.312-68.744-7.7504-68.744-17.312z" fill="#ffc4d5"/>
  <path d="m527.35 616.77c0-9.5612 30.777-17.312 68.744-17.312s68.744 7.7509 68.744 17.312-30.778 17.312-68.744 17.312-68.744-7.7506-68.744-17.312z" fill="#ffc4d6"/>
  <path d="m664.84 616.47c0 9.5612-30.778 17.312-68.744 17.312s-68.744-7.7506-68.744-17.312 30.777-17.312 68.744-17.312 68.744 7.7509 68.744 17.312z" fill="#ffc5d7"/>
  <path d="m577.66 651.97" fill="none" stroke="#900" stroke-width=".66034"/>
  <g transform="matrix(.23871 0 0 .23871 505.09 589.63)">
   <path d="m336.46 65.555c0 9.193-17.289 16.646-38.614 16.646-21.326 0-38.615-7.453-38.615-16.646 0-9.195 17.289-16.648 38.615-16.648 21.325-1e-3 38.614 7.452 38.614 16.648z" fill="url(#t)"/>
   <path d="m330.04 49.134c0 7.279-14.247 13.179-31.821 13.179s-31.821-5.9-31.821-13.179 14.247-13.179 31.821-13.179 31.821 5.9 31.821 13.179z" fill="url(#s)"/>
   <path d="m323.14 34.796c0 5.746-10.564 10.405-23.598 10.405s-23.598-4.659-23.598-10.405 10.565-10.405 23.598-10.405 23.598 4.658 23.598 10.405z" fill="url(#r)"/>
   <path d="m280.54 23.629c0.276-18.348 24.947-25.404 33.146-8.58 13.669 23.729-32.943 34.921-33.146 8.58" fill="url(#q)"/>
  </g>
  <g transform="matrix(.23871 0 0 .23871 505.09 589.63)">
   <path d="m611.238,87.695c-.002,9.194-17.295,16.643-38.618,16.636-21.327-.006-38.613-7.464-38.611-16.658s17.293-16.643 38.62-16.637c21.324.006 38.613,7.465 38.609,16.659z" fill="url(#p)"/>
   <path d="m604.82 71.273c-2e-3 7.279-14.25 13.175-31.824 13.17s-31.82-5.91-31.818-13.189 14.252-13.175 31.826-13.17 31.818 5.91 31.816 13.189z" fill="url(#o)"/>
   <path d="m597.93 56.934c-2e-3 5.746-10.566 10.402-23.6 10.398s-23.598-4.666-23.596-10.412 10.567-10.402 23.601-10.398 23.597 4.664 23.595 10.412z" fill="url(#n)"/>
   <path d="m555.33 45.754c0.281-18.349 24.953-25.397 33.147-8.57 13.663 23.733-32.953 34.911-33.147 8.57" fill="url(#m)"/>
  </g>
  <g transform="matrix(.23871 0 0 .23871 505.09 589.63)">
   <path d="m223.97 113.5c0 9.194-17.288 16.647-38.614 16.647s-38.615-7.453-38.615-16.647 17.289-16.648 38.615-16.648 38.614 7.454 38.614 16.648z" fill="url(#l)"/>
   <path d="m217.54 97.083c0 7.278-14.247 13.179-31.821 13.179s-31.821-5.9-31.821-13.179 14.247-13.18 31.821-13.18 31.821 5.9 31.821 13.18z" fill="url(#k)"/>
   <path d="m210.65 82.745c0 5.746-10.564 10.405-23.598 10.405s-23.598-4.659-23.598-10.405 10.564-10.405 23.598-10.405 23.598 4.658 23.598 10.405z" fill="url(#j)"/>
   <path d="m168.05 71.578c0.276-18.348 24.947-25.404 33.146-8.58 13.67 23.729-32.943 34.921-33.146 8.58" fill="url(#i)"/>
  </g>
  <g transform="matrix(.23871 0 0 .23871 505.09 589.63)">
   <path d="m539.06 141.31c-0.479 9.182-18.137 15.721-39.434 14.603s-38.171-9.462-37.691-18.645 18.137-15.721 39.436-14.604 38.172 9.464 37.689 18.646z" fill="url(#h)"/>
   <path d="m533.5 124.58c-0.381 7.269-14.917 12.417-32.467 11.496s-31.469-7.559-31.088-14.826 14.917-12.417 32.467-11.498 31.47 7.559 31.088 14.828z" fill="url(#g)"/>
   <path d="m527.36 109.9c-0.3 5.739-11.093 9.838-24.11 9.157s-23.319-5.888-23.021-11.626 11.095-9.837 24.11-9.156c13.017 0.682 23.322 5.887 23.021 11.625z" fill="url(#f)"/>
   <path d="m485.41 96.518c1.235-18.309 26.243-24.063 33.549-6.833 12.409 24.412-34.727 33.148-33.549 6.833" fill="url(#e)"/>
  </g>
  <g transform="matrix(.23871 0 0 .23871 505.09 589.63)">
   <path d="m481.23 60.022c0 9.194-17.287 16.647-38.614 16.647s-38.615-7.453-38.615-16.647c0-9.195 17.289-16.648 38.615-16.648s38.614 7.453 38.614 16.648z" fill="url(#d)"/>
   <path d="m474.81 43.602c0 7.279-14.246 13.18-31.82 13.18s-31.822-5.9-31.822-13.18 14.248-13.18 31.822-13.18 31.82 5.9 31.82 13.18z" fill="url(#c)"/>
   <path d="m467.91 29.264c0 5.746-10.566 10.405-23.6 10.405s-23.596-4.659-23.596-10.405 10.565-10.406 23.596-10.406 23.6 4.659 23.6 10.406z" fill="url(#b)"/>
   <path d="m425.31,18.097c.276-18.348 24.945-25.405 33.145-8.58 13.67,23.729-32.944,34.921-33.145,8.58" fill="url(#a)"/>
  </g>
  <path d="m611.45 632.98v51.107s-5.926-0.20005-15.349 0l-2.9375-32.897 2.9375-35.147z" fill="#f99"/>
  <path d="m580.75 632.98v51.107s5.926-0.20005 15.349 0v-68.043z" fill="#f66"/>
  <g transform="translate(0 49.59)" fill="#fff">
   <path d="m611.45 632.71v3.1072s-5.926-0.20005-15.349 0l-2.9375-4.8967 2.9375-15.147z"/>
   <path d="m580.75 632.71v3.1072s5.926-0.20005 15.349 0v-20.043z"/>
  </g>
  <g transform="translate(.00781 26.985)">
   <path d="m596.1 616.01 15.334 17.067v-8.0274l-15.302-17.075-0.0322 8.0354z" fill="url(#v)"/>
   <path d="m580.74 633.06-4e-3 -7.9524 15.4-17.118v8.0179z" fill="url(#u)"/>
  </g>
  <path d="m579.31 682.39h4.1875v3.9062h-4.1875z" fill="#fff"/>
  <path d="m580.66 682.53h4.1875v3.9062h-4.1875z" fill="#fff"/>
  <path d="m609.38 682.27h4.1875v3.9062h-4.1875z" fill="#fff"/>
 </g>
</svg>
