<?xml version="1.0" encoding="UTF-8"?>
<svg enable-background="new 0 0 283.816 136.521" viewBox="0 0 283.816 136.521" xmlns="http://www.w3.org/2000/svg">
 <path d="m141.91 0c78.326 0 141.91 30.58 141.91 68.26 0 37.674-63.582 68.261-141.91 68.261s-141.91-30.587-141.91-68.261c0-37.68 63.575-68.26 141.91-68.26" fill-rule="evenodd"/>
 <path d="m141.91 0.171c77.63 0 140.63 30.12 140.63 67.233s-62.997 67.236-140.63 67.236-140.62-30.127-140.62-67.236 62.998-67.233 140.62-67.233" fill="#d18836" fill-rule="evenodd"/>
 <path d="m141.91 4.361c75.639 0 137.04 28.627 137.04 63.898s-61.396 63.89-137.04 63.89-137.03-28.624-137.03-63.89 61.39-63.898 137.03-63.898" fill="#184180" fill-rule="evenodd"/>
 <path d="m143.62 16.167c58.365 0 105.73 22.188 105.73 49.524s-47.362 49.528-105.73 49.528c-58.358 0-105.72-22.192-105.72-49.528s47.364-49.524 105.72-49.524" fill="#1c0a7f" fill-rule="evenodd"/>
 <path d="m144.47 20.274c56.241 0 101.88 20.347 101.88 45.417s-45.637 45.422-101.88 45.422c-56.235 0-101.88-20.355-101.88-45.422s45.64-45.417 101.88-45.417" fill="#fff" fill-rule="evenodd"/>
 <path d="m59.193,74.414c-3.592-4.357-3.334-14.879-.258-20.782 3.08-6.157 8.726-11.291 18.99-15.398 9.495-5.388 22.581-8.98 39.26-10.776 16.167-2.311 40.803-1.796 59.026,1.539 17.96,3.08 37.465,11.806 48.491,19.248 8.993,6.672 13.352,14.883 12.07,21.813-1.545,6.418-6.934,15.397-17.193,15.912-10.275-.264-26.689-13.351-43.368-16.428-18.224-4.104-42.09-5.131-58.769-4.104-16.421,1.027-29.254,8.469-38.491,10.521-9.751,1.531-16.678,1.03-19.758-1.545z" fill="#e0dbdc" fill-rule="evenodd"/>
</svg>
