<?xml version="1.0" encoding="UTF-8"?>
<svg viewBox="0 0 750.61829 536.87714" xmlns="http://www.w3.org/2000/svg">
 <g transform="translate(.15288 -260.35)">
  <g transform="matrix(.57523 0 0 .57523 161.9 275.6)" fill="#4d4d4d" stroke="#000" stroke-width="2">
   <path d="m395.82 630.44h35.398a4.9734 4.9734 0 0 1 4.9734 4.9734v17.585a4.9734 4.9734 0 0 1 -4.9734 4.9734h-35.398a4.9734 4.9734 0 0 1 -4.9734 -4.9734v-17.585a4.9734 4.9734 0 0 1 4.9734 -4.9734"/>
   <path d="m310.24 630.44h35.398a4.9734 4.9734 0 0 1 4.9734 4.9734v17.585a4.9734 4.9734 0 0 1 -4.9734 4.9734h-35.398a4.9734 4.9734 0 0 1 -4.9734 -4.9734v-17.585a4.9734 4.9734 0 0 1 4.9734 -4.9734"/>
   <path d="m359.24 630.23h22.964a4.9734 4.9734 0 0 1 4.9734 4.9734v17.379a4.9734 4.9734 0 0 1 -4.9734 4.9734h-22.964a4.9734 4.9734 0 0 1 -4.9734 -4.9734v-17.379a4.9734 4.9734 0 0 1 4.9734 -4.9734"/>
  </g>
  <path d="m655.51 318.61c-0.21851-1.0925-4.1517-18.136-4.5887-20.977s-1.0926-4.3702-4.5887-6.7738c-32.814-22.559-71.206-33.45-109.25-27.314-6.7738 1.0925-15.514 18.136-15.514 18.136l133.95 36.928z" fill="#d8d8d8" fill-rule="evenodd" stroke="#000" stroke-width="3"/>
  <path d="m97.674 318.61c0.21851-1.0925 4.1517-18.136 4.5887-20.977s1.0926-4.3702 4.5887-6.7738c32.814-22.559 71.206-33.45 109.25-27.314 6.7738 1.0925 15.514 18.136 15.514 18.136l-133.95 36.928z" fill="#d8d8d8" fill-rule="evenodd" stroke="#000" stroke-width="3"/>
  <path d="m692.41 795.69c36.84 1.0934 52.808-18.838 56.406-117.44 3.7712-103.33-63.299-299.69-82.969-349.22s-118.71-75.825-163.66-47.5c-36.986 23.311-77.506 26.375-127.03 26.375s-90.014-3.0642-127-26.375c-12.64-7.9665-29.581-11.635-47.812-11.656-46.591-0.055-101.74 23.557-115.88 59.156-19.67 49.529-86.74 245.89-82.969 349.22 3.5786 98.053 19.407 118.32 55.812 117.45 84.476-9.051 93.146-56.865 150.09-101.61 52.797-41.484 89.781-45.258 167.47-43.75 77.688-1.5085 114.64 2.2663 167.44 43.75 56.948 44.745 65.618 92.543 150.09 101.59z" fill="#ccc" fill-rule="evenodd"/>
  <path d="m376.56 626.96c-70.071 1e-5 -105.56 1.5363-141.34 21.125-74.566 40.824-89.537 105.33-168.59 147.59 77.189-11.182 87.064-58.283 142.19-101.59 52.797-41.484 89.781-45.258 167.47-43.75 77.688-1.5085 114.64 2.2663 167.44 43.75 55.315 43.461 65.072 90.749 143 101.72-79.251-42.259-94.177-106.86-168.81-147.72-35.78-19.589-71.272-21.125-141.34-21.125z" fill="#808080" fill-rule="evenodd"/>
  <path transform="matrix(1.3187 0 0 1.3571 273.88 -12.727)" d="m229.29 389.38a68.637 68.637 0 1 1 -137.27 0 68.637 68.637 0 1 1 137.27 0z" fill="#d4d4d4" fill-rule="evenodd"/>
  <path transform="matrix(1.1154 0 0 1.0385 -16.651 -22.141)" d="m229.29 389.38a68.637 68.637 0 1 1 -137.27 0 68.637 68.637 0 1 1 137.27 0z" fill="#d4d4d4" fill-rule="evenodd"/>
  <path transform="matrix(1.3187 0 0 1.3571 52.889 -12.727)" d="m229.29 389.38a68.637 68.637 0 1 1 -137.27 0 68.637 68.637 0 1 1 137.27 0z" fill="#d4d4d4" fill-rule="evenodd"/>
  <path transform="matrix(1.1336 0 0 1.1336 25.8 -1.498)" d="m265.21 443.67a53.411 53.411 0 1 1 -106.82 0 53.411 53.411 0 1 1 106.82 0z" fill="#333" fill-rule="evenodd" stroke="#000" stroke-linecap="round" stroke-linejoin="round" stroke-width="2.6464"/>
  <path d="m249.61 556.06c0 5.375 32.587 4.963 32.587 0 0-20.054 16.276-36.33 36.33-36.33 5.2488 1.1566 7.276-35.552 0-36.55-20.054 0-36.33-16.276-36.33-36.33 0-5.3951-32.587-5.8059-32.587 0 0 20.054-16.276 36.33-36.33 36.33-5.88-0.22498-7.0556 36.344 0 36.55 20.054 0 36.33 16.276 36.33 36.33z" fill="#3a3a3a" fill-rule="evenodd" stroke="#515151" stroke-linecap="round" stroke-linejoin="round" stroke-width="3"/>
  <path d="m453.84 372.25h4.5279a16.45 14.779 0 0 1 16.45 14.779 16.45 14.779 0 0 1 -16.45 14.779h-4.5279a16.45 14.779 0 0 1 -16.45 -14.779 16.45 14.779 0 0 1 16.45 -14.779" fill="#d1d1d1" fill-rule="evenodd" stroke="#6d6d6d" stroke-linecap="round" stroke-linejoin="round"/>
  <path transform="matrix(0 1.1259 1.1259 0 20.719 57.396)" d="m300.93 381.67-8.1636 14.14-8.1636-14.14h16.327z" fill="#717171" fill-rule="evenodd"/>
  <g transform="matrix(-1 0 0 1 757.22 0)" fill-rule="evenodd">
   <path d="m453.84 372.25h4.5279a16.45 14.779 0 0 1 16.45 14.779 16.45 14.779 0 0 1 -16.45 14.779h-4.5279a16.45 14.779 0 0 1 -16.45 -14.779 16.45 14.779 0 0 1 16.45 -14.779" fill="#d1d1d1" stroke="#6d6d6d" stroke-linecap="round" stroke-linejoin="round"/>
   <path transform="matrix(0 1.1259 1.1259 0 20.719 57.396)" d="m300.93 381.67-8.1636 14.14-8.1636-14.14h16.327z" fill="#717171"/>
  </g>
  <path transform="matrix(1.1371 0 0 1.1371 -54.47 -59.078)" d="m418.97 392.55a37.527 37.527 0 1 1 -75.054 0 37.527 37.527 0 1 1 75.054 0z" fill="#0f0" fill-rule="evenodd" stroke="#000" stroke-linecap="round" stroke-linejoin="round" stroke-width=".87945"/>
  <path transform="matrix(.96604 0 0 .96604 10.77 8.0626)" d="m418.97 392.55a37.527 37.527 0 1 1 -75.054 0 37.527 37.527 0 1 1 75.054 0z" fill="#979797" fill-rule="evenodd" stroke="#000" stroke-linecap="round" stroke-linejoin="round" stroke-width="1.0352"/>
  <path transform="matrix(.71968 0 0 .71968 104.74 99.73)" d="m418.97 392.55a37.527 37.527 0 1 1 -75.054 0 37.527 37.527 0 1 1 75.054 0z" fill="#a7a7a7" fill-rule="evenodd"/>
  <path d="m344.94 404.64c11.615-28.788 27.877-46.266 54.748-50.379l3.0844 2.5703c-21.95 7.89-42.83 29.432-53.72 53.463l-4.1126-5.6548z" fill="#0f0" fill-rule="evenodd"/>
  <path d="m411.23 403.33c-10.742-26.625-25.782-42.79-50.635-46.593l-2.8527 2.3772c20.3 7.2971 39.612 27.221 49.684 49.446l3.8035-5.2299z" fill="#0f0" fill-rule="evenodd"/>
  <text x="472.78644" y="364.41809" font-family="DejaVu Sans Mono" font-size="10.933" text-anchor="middle">
   <tspan x="472.78644" y="364.41809">START</tspan>
  </text>
  <path d="m542.19 503.98c0 31.406-25.489 56.894-56.894 56.894s-56.894-25.489-56.894-56.894 25.489-56.894 56.894-56.894 56.894 25.489 56.894 56.894zm-8.3037-1e-5c0 26.822-21.769 48.591-48.591 48.591s-48.591-21.769-48.591-48.591 21.769-48.591 48.591-48.591 48.591 21.769 48.591 48.591z" fill="#dfdfdf" fill-rule="evenodd"/>
  <text x="284.78766" y="362.92157" font-family="DejaVu Sans Mono" font-size="10.933" text-anchor="middle">
   <tspan x="284.78766" y="362.92157">BACK</tspan>
  </text>
  <path d="m218.68 375.06c0 30.228-24.533 54.761-54.761 54.761s-54.761-24.533-54.761-54.761 24.533-54.761 54.761-54.761 54.761 24.533 54.761 54.761zm-7.9924-1e-5c0 25.816-20.952 46.769-46.769 46.769s-46.769-20.952-46.769-46.769 20.952-46.769 46.769-46.769 46.769 20.952 46.769 46.769z" fill="#dfdfdf" fill-rule="evenodd"/>
  <path d="m379.23 433.61c12.616 0 24.353-4.7719 32.331-13.285 7.1145-7.5913 15.687-13.915 22.635-13.915h-0.53333 27.944c10.454 0 18.938-8.4841 18.938-19.031s-8.4841-19.031-18.938-19.031h-27.944 0.53333c-6.948 0-15.52-6.3236-22.635-13.915-7.9784-8.5131-19.738-13.285-32.331-13.285s-24.352 4.7719-32.331 13.285c-7.1145 7.5913-15.687 13.915-22.635 13.915h0.53333-27.944c-10.454 0-18.938 8.4841-18.938 19.031s8.4841 19.031 18.938 19.031h27.944-0.53333c6.948 0 15.52 6.3236 22.635 13.915 7.9784 8.5131 19.715 13.285 32.331 13.285z" fill="none" stroke="#969696" stroke-linecap="round" stroke-linejoin="round" stroke-width=".81337"/>
  <path d="m338.14 501.45c0 39.876-32.363 72.238-72.238 72.238s-72.238-32.363-72.238-72.238 32.363-72.238 72.238-72.238 72.238 32.363 72.238 72.238zm-10.543-1e-5c0 34.056-27.639 61.695-61.695 61.695s-61.695-27.639-61.695-61.695 27.639-61.695 61.695-61.695 61.695 27.639 61.695 61.695z" fill="#dfdfdf" fill-rule="evenodd"/>
  <path transform="translate(-327.37 -119.25)" d="m540.55 494.31a49.267 49.267 0 1 1 -98.533 0 49.267 49.267 0 1 1 98.533 0z" fill="#4d4d4d" fill-rule="evenodd" stroke="#000" stroke-linecap="round" stroke-linejoin="round" stroke-width="3"/>
  <path transform="matrix(.71028 0 0 .71028 -185.04 23.959)" d="m540.55 494.31a49.267 49.267 0 1 1 -98.533 0 49.267 49.267 0 1 1 98.533 0z" fill="#333" fill-rule="evenodd"/>
  <path transform="matrix(.09039 0 0 .09039 148.21 330.38)" d="m540.55 494.31a49.267 49.267 0 1 1 -98.533 0 49.267 49.267 0 1 1 98.533 0z" fill="#9b9b9b" fill-rule="evenodd"/>
  <path transform="matrix(.09039 0 0 .09039 90.81 330.38)" d="m540.55 494.31a49.267 49.267 0 1 1 -98.533 0 49.267 49.267 0 1 1 98.533 0z" fill="#9b9b9b" fill-rule="evenodd"/>
  <path transform="matrix(0 .09039 -.09039 0 208.6 359.35)" d="m540.55 494.31a49.267 49.267 0 1 1 -98.533 0 49.267 49.267 0 1 1 98.533 0z" fill="#9b9b9b" fill-rule="evenodd"/>
  <path transform="matrix(0 .09039 -.09039 0 208.6 301.95)" d="m540.55 494.31a49.267 49.267 0 1 1 -98.533 0 49.267 49.267 0 1 1 98.533 0z" fill="#9b9b9b" fill-rule="evenodd"/>
  <path transform="translate(-5.9857 9.6692)" d="m540.55 494.31a49.267 49.267 0 1 1 -98.533 0 49.267 49.267 0 1 1 98.533 0z" fill="#4d4d4d" fill-rule="evenodd" stroke="#000" stroke-linecap="round" stroke-linejoin="round" stroke-width="3"/>
  <path transform="matrix(.71028 0 0 .71028 136.35 152.88)" d="m540.55 494.31a49.267 49.267 0 1 1 -98.533 0 49.267 49.267 0 1 1 98.533 0z" fill="#333" fill-rule="evenodd"/>
  <path transform="matrix(.09039 0 0 .09039 469.59 459.3)" d="m540.55 494.31a49.267 49.267 0 1 1 -98.533 0 49.267 49.267 0 1 1 98.533 0z" fill="#9b9b9b" fill-rule="evenodd"/>
  <path transform="matrix(.09039 0 0 .09039 412.19 459.3)" d="m540.55 494.31a49.267 49.267 0 1 1 -98.533 0 49.267 49.267 0 1 1 98.533 0z" fill="#9b9b9b" fill-rule="evenodd"/>
  <path transform="matrix(0 .09039 -.09039 0 529.98 488.27)" d="m540.55 494.31a49.267 49.267 0 1 1 -98.533 0 49.267 49.267 0 1 1 98.533 0z" fill="#9b9b9b" fill-rule="evenodd"/>
  <path transform="matrix(0 .09039 -.09039 0 529.98 430.88)" d="m540.55 494.31a49.267 49.267 0 1 1 -98.533 0 49.267 49.267 0 1 1 98.533 0z" fill="#9b9b9b" fill-rule="evenodd"/>
  <path transform="matrix(1.2632 0 0 1.2632 -32.711 -100.05)" d="m565.69 384.48a28.661 28.661 0 1 1 -57.323 0 28.661 28.661 0 1 1 57.323 0z" fill="#dadada" fill-rule="evenodd"/>
  <path d="m692.41 795.69c36.84 1.0934 52.808-18.838 56.406-117.44 3.7712-103.33-63.299-299.69-82.969-349.22s-118.71-75.825-163.66-47.5c-36.986 23.311-77.506 26.375-127.03 26.375s-90.014-3.0642-127-26.375c-12.64-7.9665-29.581-11.635-47.812-11.656-46.591-0.055-101.74 23.557-115.88 59.156-19.67 49.529-86.74 245.89-82.969 349.22 3.5786 98.053 19.407 118.32 55.812 117.45 84.476-9.051 93.146-56.865 150.09-101.61 52.797-41.484 89.781-45.258 167.47-43.75 77.688-1.5085 114.64 2.2663 167.44 43.75 56.948 44.745 65.618 92.543 150.09 101.59z" fill="none" stroke="#000" stroke-width="3"/>
  <path transform="matrix(1.2632 0 0 1.2632 -141.7 -100.05)" d="m565.69 384.48a28.661 28.661 0 1 1 -57.323 0 28.661 28.661 0 1 1 57.323 0z" fill="#dadada" fill-rule="evenodd"/>
  <path d="m561.92 382.97a25.267 25.267 0 1 1 -50.535 0 25.267 25.267 0 1 1 50.535 0z" fill="#00f" fill-rule="evenodd" stroke="#000" stroke-linecap="round" stroke-linejoin="round"/>
  <path transform="matrix(1.2632 0 0 1.2632 -87.394 -152.09)" d="m565.69 384.48a28.661 28.661 0 1 1 -57.323 0 28.661 28.661 0 1 1 57.323 0z" fill="#dadada" fill-rule="evenodd"/>
  <path transform="translate(109.37)" d="m561.92 382.97a25.267 25.267 0 1 1 -50.535 0 25.267 25.267 0 1 1 50.535 0z" fill="#f00" fill-rule="evenodd" stroke="#000" stroke-linecap="round" stroke-linejoin="round"/>
  <path transform="matrix(-1 0 0 -1 1128 711.25)" d="m561.92 382.97a25.267 25.267 0 1 1 -50.535 0 25.267 25.267 0 1 1 50.535 0z" fill="#ff0" fill-rule="evenodd" stroke="#000" stroke-linecap="round" stroke-linejoin="round"/>
  <path transform="matrix(1.2632 0 0 1.2632 -87.394 -44.609)" d="m565.69 384.48a28.661 28.661 0 1 1 -57.323 0 28.661 28.661 0 1 1 57.323 0z" fill="#dadada" fill-rule="evenodd"/>
  <path transform="matrix(-1 0 0 -1 1128 820.62)" d="m561.92 382.97a25.267 25.267 0 1 1 -50.535 0 25.267 25.267 0 1 1 50.535 0z" fill="#0f0" fill-rule="evenodd" stroke="#000" stroke-linecap="round" stroke-linejoin="round"/>
  <text transform="scale(1.0914 .91629)" x="491.71799" y="429.30984" font-family="DejaVu Sans Mono" font-size="31.157" font-weight="bold" text-anchor="middle">
   <tspan x="491.71799" y="429.30984">X</tspan>
  </text>
  <text transform="scale(1.0914 .91629)" x="541.82349" y="369.6312" font-family="DejaVu Sans Mono" font-size="31.157" font-weight="bold" text-anchor="middle">
   <tspan x="541.82349" y="369.6312">Y</tspan>
  </text>
  <text transform="scale(1.0914 .91629)" x="541.82349" y="488.98849" font-family="DejaVu Sans Mono" font-size="31.157" font-weight="bold" text-anchor="middle">
   <tspan x="541.82349" y="488.98849">A</tspan>
  </text>
  <text transform="scale(1.0914 .91629)" x="591.54114" y="429.32504" font-family="DejaVu Sans Mono" font-size="31.157" font-weight="bold" text-anchor="middle">
   <tspan x="591.54114" y="429.32504">B</tspan>
  </text>
  <path d="m553.83 369.19c0 5.888-7.7208 1.6314-17.234 1.6314s-17.234 4.2566-17.234-1.6314 7.7208-10.667 17.234-10.667 17.234 4.7787 17.234 10.667z" fill="#fff" fill-opacity=".48677" fill-rule="evenodd"/>
  <path d="m609.05 315.32c0 5.888-7.7208 1.6314-17.234 1.6314s-17.234 4.2566-17.234-1.6314 7.7208-10.667 17.234-10.667 17.234 4.7787 17.234 10.667z" fill="#fff" fill-opacity=".48677" fill-rule="evenodd"/>
  <path d="m609.05 423.74c0 5.888-7.7208 1.6314-17.234 1.6314s-17.234 4.2566-17.234-1.6314 7.7208-10.667 17.234-10.667 17.234 4.7787 17.234 10.667z" fill="#fff" fill-opacity=".48677" fill-rule="evenodd"/>
  <path d="m663.93 369.53c0 5.888-7.7208 1.6314-17.234 1.6314s-17.234 4.2566-17.234-1.6314 7.7208-10.667 17.234-10.667 17.234 4.7787 17.234 10.667z" fill="#fff" fill-opacity=".48677" fill-rule="evenodd"/>
  <path d="m612.52 341.12c0-6.5348-10.462 4.4923-21.02 4.4923s-21.02-10.712-21.02-4.1768 10.462 11.523 21.02 11.523 21.02-5.3036 21.02-11.838z" fill-opacity=".26455" fill-rule="evenodd"/>
  <path d="m612.52 450.92c0-6.5348-10.462 4.4923-21.02 4.4923s-21.02-10.712-21.02-4.1768 10.462 11.523 21.02 11.523 21.02-5.3036 21.02-11.838z" fill-opacity=".26455" fill-rule="evenodd"/>
  <path d="m557.62 396.02c0-6.5348-10.462 4.4923-21.02 4.4923s-21.02-10.712-21.02-4.1768 10.462 11.523 21.02 11.523 21.02-5.3036 21.02-11.838z" fill-opacity=".26455" fill-rule="evenodd"/>
  <path d="m667.73 396.02c0-6.5348-10.462 4.4923-21.02 4.4923s-21.02-10.712-21.02-4.1768 10.462 11.523 21.02 11.523 21.02-5.3036 21.02-11.838z" fill-opacity=".26455" fill-rule="evenodd"/>
  <text x="334.25269" y="350.16708" fill="#808080" font-family="Arial" font-size="19.072">
   <tspan x="334.25269" y="350.16708">1</tspan>
  </text>
  <text x="412.03046" y="350.16708" fill="#808080" font-family="Arial" font-size="19.072">
   <tspan x="412.03046" y="350.16708">2</tspan>
  </text>
  <text x="337.12454" y="424.88486" font-family="Bitstream Vera Sans" font-size="40">
   <tspan x="337.12454" y="424.88486"/>
  </text>
  <text x="334.25269" y="436.35324" fill="#808080" font-family="Arial" font-size="19.072">
   <tspan x="334.25269" y="436.35324">3</tspan>
  </text>
  <text x="412.03046" y="436.35324" fill="#808080" font-family="Arial" font-size="19.072">
   <tspan x="412.03046" y="436.35324">4</tspan>
  </text>
 </g>
</svg>
