<?xml version="1.0" encoding="UTF-8"?>
<svg viewBox="0 0 1052.362179 744.09447" xmlns="http://www.w3.org/2000/svg" xmlns:xlink="http://www.w3.org/1999/xlink">
 <defs>
  <linearGradient id="a">
   <stop stop-color="#d7eef4" offset="0"/>
   <stop stop-color="#d7eef4" stop-opacity="0" offset="1"/>
  </linearGradient>
  <linearGradient id="b">
   <stop stop-color="#1c2224" offset="0"/>
   <stop stop-color="#1c2224" stop-opacity="0" offset="1"/>
  </linearGradient>
  <linearGradient id="c">
   <stop stop-color="#d5f6ff" offset="0"/>
   <stop stop-color="#d5f6ff" stop-opacity="0" offset="1"/>
  </linearGradient>
  <linearGradient id="k" x1="458.36" x2="404.23" y1="346.77" y2="292.65" gradientUnits="userSpaceOnUse">
   <stop stop-color="#6f8a91" offset="0"/>
   <stop stop-color="#6f8a91" stop-opacity="0" offset="1"/>
  </linearGradient>
  <linearGradient id="d" x1="517.38" x2="511.62" y1="618.63" y2="576.02" gradientUnits="userSpaceOnUse">
   <stop stop-color="#374548" offset="0"/>
   <stop stop-color="#374548" stop-opacity="0" offset="1"/>
  </linearGradient>
  <linearGradient id="m" x1="552.79" x2="563.16" y1="184.39" y2="240.82" gradientUnits="userSpaceOnUse" xlink:href="#c"/>
  <linearGradient id="l" x1="611.53" x2="769.3" y1="309.92" y2="389.39" gradientUnits="userSpaceOnUse" xlink:href="#c"/>
  <linearGradient id="j" x1="959.33" x2="725.54" y1="493.03" y2="489.58" gradientUnits="userSpaceOnUse" xlink:href="#b"/>
  <linearGradient id="i" x1="907.5" x2="809.61" y1="281.13" y2="286.89" gradientUnits="userSpaceOnUse" xlink:href="#b"/>
  <linearGradient id="h" x1="704.81" x2="768.15" y1="266.16" y2="269.61" gradientUnits="userSpaceOnUse" xlink:href="#a"/>
  <linearGradient id="g" x1="111.71" x2="317.86" y1="520.67" y2="534.49" gradientUnits="userSpaceOnUse" xlink:href="#a"/>
  <linearGradient id="f" x1="215.36" x2="310.95" y1="353.68" y2="423.93" gradientUnits="userSpaceOnUse" xlink:href="#a"/>
  <linearGradient id="e" x1="834.95" x2="857.98" y1="118.75" y2="144.08" gradientUnits="userSpaceOnUse" xlink:href="#a"/>
 </defs>
 <path d="m58.158 598.41c258.08 26.545 509.86 17.153 752.61-43.763l-0.57582 8.0616c-238.15 55.99-488.93 71.841-753.18 44.914z"/>
 <path d="m58.158 597.26 44.914-31.095 682.35-38.58 25.336 27.064c-246.88 60.503-498.05 71.14-752.61 42.611z" fill="#4d4d4d"/>
 <path d="m982.36 471.15c-59.639 15.027-140.53 10.46-169.29 76.009-199.9 35.711-351.75 86.197-749.73 42.611 12.08-25.05 56.532-51.424 85.222-73.706l298.28-143.96c79.832-27.335 162.45-40.732 245.3-52.976l202.69 34.55 24.185 12.668c26.029 33.705 60.245 65.363 63.341 104.8z" fill="#ccc"/>
 <path d="m897.14 373.26 19.578 74.857c-179.26 40.939-392.19 113.11-594.07 116.74-3.1068 0.0558-6.1656 0.70749-9.2374 1.0419-79.623 8.6672-154.3 8.5725-220.12-7.2193l48.369-40.308c-0.10329 6.2172-1.4979 16.472 3.6171 16.034 214.52-18.393 513.14-115.35 751.87-161.14z" fill="#2ad4ff"/>
 <path d="m981.21 471.35c-59.639 15.027-140.53 10.46-169.29 76.009-199.9 35.711-351.75 86.197-749.73 42.611 12.08-25.05 56.532-51.424 85.222-73.706l298.28-143.96c79.832-27.335 162.45-40.732 245.3-52.976l202.69 34.55 24.185 12.668c26.029 33.705 60.245 65.363 63.341 104.8z" fill="url(#j)"/>
 <path d="m896.56 373.26-22.457-17.275c-83.024 9.8648-136.75-10.844-184.84-37.429l-116.89 20.73c68.559 7.9989 98.149 18.252 103.1 29.931 0.73704 1.7379 0.87455 3.499 0.62157 5.3057-3.4348 24.53-27.59 40.113-59.437 52.152-2.1361 0.80748-4.3405 1.5095-6.5082 2.3762-45.296 18.111-100.93 36.972-142.58 44.979z" fill="#5df"/>
 <path d="m893.68 352.53-19.002 2.8791c-83.66 10.921-135.32-11.55-184.26-36.853 13.024-9.9836 24.951-22.524 33.398-43.187 1.2271-6.526 6.3141-13.052 0.57583-19.578l1.1516-73.13c17.56-6.7537 38.919-7.1766 61.038-6.3341 11.8 4.168 21.805 9.4126 40.884 9.2132 14.541 13.57 27.617 27.725 34.55 44.339 14.937 39.132 24.376 80.462 31.67 122.65z" fill="#ccc"/>
 <path d="m827.46 185.54c-22.595-0.4019-31.138-5.488-40.308-10.365 40.32-28.77 81.54-56.042 117.47-92.132l-2.3033-6.3341 3.455-2.8791c16.516 5.1764 22.845 17.144 30.519 28.216l-0.57583 4.0308-7.4858-1.1517c-37.046 22.551-69.844 50.414-100.77 80.616z" fill="#374845"/>
 <path d="m892.82 352.72-19.002 2.8791c-83.66 10.921-135.32-11.55-184.26-36.853 13.024-9.9836 24.951-22.524 33.398-43.187 1.2271-6.526 6.3141-13.052 0.5758-19.578l1.1517-73.13c17.56-6.7537 38.919-7.1766 61.038-6.3341 11.8 4.168 21.805 9.4126 40.884 9.2132 14.541 13.57 27.618 27.725 34.55 44.339 14.937 39.132 24.376 80.462 31.67 122.65z" fill="url(#h)"/>
 <path d="m453.18 221.24c29.37 19.029 49.726 40.633 25.912 74.857 91.828-1.8741 177.28-22.886 263.15-42.611 16.716-29.224 5.1905-51.93-17.851-71.978-93.109 4.2299-182.68 20.256-271.21 39.732z" fill="#006680"/>
 <path d="m984.66 469.05c-59.639 15.027-140.53 10.46-169.29 76.009-199.9 35.711-351.75 86.197-749.73 42.611 12.08-25.05 56.532-51.424 85.222-73.706l298.28-143.96c79.832-27.335 162.45-40.732 245.3-52.976l202.69 34.55 24.185 12.668c26.029 33.705 60.245 65.363 63.341 104.8z" fill="url(#g)"/>
 <path d="m485.42 295.53c14.748-30.262 4.8246-54.767-26.488-74.282l-28.216 7.4858c-142.01 48.828-220.84 163.41-288.49 289.64l1.1516 13.82c83.113-5.6754 158.01-18.146 226.72-35.73 3.1218-0.79889 6.2216-1.6438 9.3273-2.4282 115.7-29.222 297.31-61.174 296.02-122.5-7.9788-24.226-62.53-25.166-101.35-33.974l-124.95 33.398c-22.54-39.987 6.2403-57.979 36.277-75.433z" fill="#ccc"/>
 <path d="m485.42 295.53c14.748-30.262 4.8246-54.767-26.488-74.282l-28.216 7.4858c-142.01 48.828-220.84 163.41-288.49 289.64l1.1516 13.82c83.113-5.6754 158.01-18.146 226.72-35.73 3.1218-0.79889 6.2217-1.6438 9.3273-2.4282 115.7-29.222 297.31-61.174 296.02-122.5-7.9788-24.226-62.53-25.166-101.35-33.974l-124.95 33.398c-22.54-39.987 6.2403-57.979 36.277-75.433z" fill="url(#k)"/>
 <path d="m484.27 294.37c14.748-30.262 4.8246-54.767-26.488-74.282l-28.216 7.4858c-142.01 48.828-220.84 163.41-288.49 289.64l1.1516 13.82c83.113-5.6754 158.01-18.146 226.72-35.73 3.1218-0.79889 6.2217-1.6438 9.3273-2.4282 115.7-29.222 297.31-61.174 296.02-122.5-7.9788-24.226-62.53-25.166-101.35-33.974l-124.95 33.398c-22.54-39.987 6.2403-57.979 36.277-75.433z" fill="url(#f)"/>
 <path d="m327.07 253.49c11.595 3.9357 23.976-0.77818 34.55 14.396l80.04-35.701c-3.5239-2.6872-1.1863-5.3744-14.396-8.0616z" fill="#80e5ff"/>
 <path d="m327.65 253.49-0.86374 28.791c14.131 1.3518 25.575 9.2695 36.277 19.002l-1.4396-32.822c-9.097-13.901-21.994-12.601-33.974-14.971z" fill="#aef"/>
 <path d="m362.2 268.46 79.464-35.701-0.57582 10.941c-22.031 26.459-52.316 40.857-78.456 57.727z" fill="#2ad4ff"/>
 <path d="m188.3 445.24c2.9741 12.025 0.82535 22.513-11.517 29.943-6.526-1.5552-13.052-1e-3 -19.578-8.6374 5.6157-5.3744 6.6621-10.749 4.6066-16.123 6.7481-4.3291 13.724-8.3739 26.488-5.1824z" fill="#5fbcd3"/>
 <path d="m470.45 359.44 2.3033 13.244c55.31 23.042 108.4 17.267 160.66 0.57583l-0.57582-11.517c-50.744 18.857-103.98 23.243-162.38-2.3033z" fill="#0b2228"/>
 <path transform="matrix(1.0878 0 0 .68687 -46.26 118.5)" d="m625.35 349.94a75.433 28.503 0 1 1 -150.87 0 75.433 28.503 0 1 1 150.87 0z" fill="#216778"/>
 <path d="m454.97 220.96c29.37 19.029 49.726 40.633 25.912 74.857 91.828-1.8741 177.28-22.886 263.15-42.611 16.716-29.224 5.1905-51.93-17.851-71.978-93.109 4.2299-182.68 20.256-271.21 39.732z" fill="url(#m)"/>
 <path d="m895.12 372.11-22.457-17.275c-83.024 9.8648-136.75-10.844-184.84-37.429l-116.89 20.73c68.559 7.9989 98.149 18.252 103.1 29.931 0.737 1.7379 0.8745 3.499 0.6215 5.3057-3.4348 24.53-27.59 40.113-59.437 52.152-2.1361 0.80748-4.3405 1.5095-6.5082 2.3762-45.296 18.111-100.93 36.972-142.58 44.979z" fill="url(#l)"/>
 <path transform="matrix(1.0878 0 0 .68687 -45.396 116.78)" d="m625.35 349.94a75.433 28.503 0 1 1 -150.87 0 75.433 28.503 0 1 1 150.87 0z" fill="#d7eef4"/>
 <path transform="matrix(.72115 0 0 .57692 -317.2 139.54)" d="m1270.3 380.17a59.886 14.972 0 1 1 -119.77 0 59.886 14.972 0 1 1 119.77 0z" fill="#045"/>
 <path d="m892.82 352.72-19.002 2.8791c-83.66 10.921-135.32-11.55-184.26-36.853 13.024-9.9836 24.951-22.524 33.398-43.187 1.2271-6.526 6.3141-13.052 0.5758-19.578l1.1517-73.13c17.56-6.7537 38.919-7.1766 61.038-6.3341 11.8 4.168 21.805 9.4126 40.884 9.2132 14.541 13.57 27.618 27.725 34.55 44.339 14.937 39.132 24.376 80.462 31.67 122.65z" fill="url(#i)"/>
 <path d="m827.18 184.97c-22.595-0.4019-31.138-5.488-40.308-10.365 40.32-28.77 81.54-56.042 117.47-92.132l-2.3033-6.3341 3.4549-2.8791c16.516 5.1764 22.845 17.144 30.519 28.216l-0.5759 4.0308-7.4857-1.1517c-37.046 22.551-69.844 50.414-100.77 80.616z" fill="url(#e)"/>
 <g transform="translate(.86376 -2.3669)" fill="url(#d)">
  <path d="m58.158 598.41c258.08 26.545 509.86 17.153 752.61-43.763l-0.57582 8.0616c-238.15 55.99-488.93 71.841-753.18 44.914z"/>
  <path d="m58.158 597.26 44.914-31.095 682.35-38.58 25.336 27.064c-246.88 60.503-498.05 71.14-752.61 42.611z"/>
  <path d="m982.36 471.15c-59.639 15.027-140.53 10.46-169.29 76.009-199.9 35.711-351.75 86.197-749.73 42.611 12.08-25.05 56.532-51.424 85.222-73.706l298.28-143.96c79.832-27.335 162.45-40.732 245.3-52.976l202.69 34.55 24.185 12.668c26.029 33.705 60.245 65.363 63.341 104.8z"/>
  <path d="m897.14 373.26 19.578 74.857c-179.26 40.939-392.19 113.11-594.07 116.74-3.1068 0.0558-6.1656 0.70749-9.2374 1.0419-79.623 8.6672-154.3 8.5725-220.12-7.2193l48.369-40.308c-0.10329 6.2172-1.4979 16.472 3.6171 16.034 214.52-18.393 513.14-115.35 751.87-161.14z"/>
  <path d="m981.21 471.35c-59.639 15.027-140.53 10.46-169.29 76.009-199.9 35.711-351.75 86.197-749.73 42.611 12.08-25.05 56.532-51.424 85.222-73.706l298.28-143.96c79.832-27.335 162.45-40.732 245.3-52.976l202.69 34.55 24.185 12.668c26.029 33.705 60.245 65.363 63.341 104.8z"/>
  <path d="m896.56 373.26-22.457-17.275c-83.024 9.8648-136.75-10.844-184.84-37.429l-116.89 20.73c68.559 7.9989 98.149 18.252 103.1 29.931 0.73704 1.7379 0.87455 3.499 0.62157 5.3057-3.4348 24.53-27.59 40.113-59.437 52.152-2.1361 0.80748-4.3405 1.5095-6.5082 2.3762-45.296 18.111-100.93 36.972-142.58 44.979z"/>
  <path d="m893.68 352.53-19.002 2.8791c-83.66 10.921-135.32-11.55-184.26-36.853 13.024-9.9836 24.951-22.524 33.398-43.187 1.2271-6.526 6.3141-13.052 0.57583-19.578l1.1516-73.13c17.56-6.7537 38.919-7.1766 61.038-6.3341 11.8 4.168 21.805 9.4126 40.884 9.2132 14.541 13.57 27.617 27.725 34.55 44.339 14.937 39.132 24.376 80.462 31.67 122.65z"/>
  <path d="m827.46 185.54c-22.595-0.4019-31.138-5.488-40.308-10.365 40.32-28.77 81.54-56.042 117.47-92.132l-2.3033-6.3341 3.455-2.8791c16.516 5.1764 22.845 17.144 30.519 28.216l-0.57583 4.0308-7.4858-1.1517c-37.046 22.551-69.844 50.414-100.77 80.616z"/>
  <path d="m892.82 352.72-19.002 2.8791c-83.66 10.921-135.32-11.55-184.26-36.853 13.024-9.9836 24.951-22.524 33.398-43.187 1.2271-6.526 6.3141-13.052 0.5758-19.578l1.1517-73.13c17.56-6.7537 38.919-7.1766 61.038-6.3341 11.8 4.168 21.805 9.4126 40.884 9.2132 14.541 13.57 27.618 27.725 34.55 44.339 14.937 39.132 24.376 80.462 31.67 122.65z"/>
  <path d="m453.18 221.24c29.37 19.029 49.726 40.633 25.912 74.857 91.828-1.8741 177.28-22.886 263.15-42.611 16.716-29.224 5.1905-51.93-17.851-71.978-93.109 4.2299-182.68 20.256-271.21 39.732z"/>
  <path d="m984.66 469.05c-59.639 15.027-140.53 10.46-169.29 76.009-199.9 35.711-351.75 86.197-749.73 42.611 12.08-25.05 56.532-51.424 85.222-73.706l298.28-143.96c79.832-27.335 162.45-40.732 245.3-52.976l202.69 34.55 24.185 12.668c26.029 33.705 60.245 65.363 63.341 104.8z"/>
  <path d="m485.42 295.53c14.748-30.262 4.8246-54.767-26.488-74.282l-28.216 7.4858c-142.01 48.828-220.84 163.41-288.49 289.64l1.1516 13.82c83.113-5.6754 158.01-18.146 226.72-35.73 3.1218-0.79889 6.2216-1.6438 9.3273-2.4282 115.7-29.222 297.31-61.174 296.02-122.5-7.9788-24.226-62.53-25.166-101.35-33.974l-124.95 33.398c-22.54-39.987 6.2403-57.979 36.277-75.433z"/>
  <path d="m485.42 295.53c14.748-30.262 4.8246-54.767-26.488-74.282l-28.216 7.4858c-142.01 48.828-220.84 163.41-288.49 289.64l1.1516 13.82c83.113-5.6754 158.01-18.146 226.72-35.73 3.1218-0.79889 6.2217-1.6438 9.3273-2.4282 115.7-29.222 297.31-61.174 296.02-122.5-7.9788-24.226-62.53-25.166-101.35-33.974l-124.95 33.398c-22.54-39.987 6.2403-57.979 36.277-75.433z"/>
  <path d="m484.27 294.37c14.748-30.262 4.8246-54.767-26.488-74.282l-28.216 7.4858c-142.01 48.828-220.84 163.41-288.49 289.64l1.1516 13.82c83.113-5.6754 158.01-18.146 226.72-35.73 3.1218-0.79889 6.2217-1.6438 9.3273-2.4282 115.7-29.222 297.31-61.174 296.02-122.5-7.9788-24.226-62.53-25.166-101.35-33.974l-124.95 33.398c-22.54-39.987 6.2403-57.979 36.277-75.433z"/>
  <path d="m327.07 253.49c11.595 3.9357 23.976-0.77818 34.55 14.396l80.04-35.701c-3.5239-2.6872-1.1863-5.3744-14.396-8.0616z"/>
  <path d="m327.65 253.49-0.86374 28.791c14.131 1.3518 25.575 9.2695 36.277 19.002l-1.4396-32.822c-9.097-13.901-21.994-12.601-33.974-14.971z"/>
  <path d="m362.2 268.46 79.464-35.701-0.57582 10.941c-22.031 26.459-52.316 40.857-78.456 57.727z"/>
  <path d="m188.3 445.24c2.9741 12.025 0.82535 22.513-11.517 29.943-6.526-1.5552-13.052-1e-3 -19.578-8.6374 5.6157-5.3744 6.6621-10.749 4.6066-16.123 6.7481-4.3291 13.724-8.3739 26.488-5.1824z"/>
  <path d="m470.45 359.44 2.3033 13.244c55.31 23.042 108.4 17.267 160.66 0.57583l-0.57582-11.517c-50.744 18.857-103.98 23.243-162.38-2.3033z"/>
  <path transform="matrix(1.0878 0 0 .68687 -46.26 118.5)" d="m625.35 349.94c0 15.742-33.773 28.503-75.433 28.503s-75.433-12.761-75.433-28.503 33.773-28.503 75.433-28.503 75.433 12.761 75.433 28.503z"/>
  <path d="m454.97 220.96c29.37 19.029 49.726 40.633 25.912 74.857 91.828-1.8741 177.28-22.886 263.15-42.611 16.716-29.224 5.1905-51.93-17.851-71.978-93.109 4.2299-182.68 20.256-271.21 39.732z"/>
  <path d="m895.12 372.11-22.457-17.275c-83.024 9.8648-136.75-10.844-184.84-37.429l-116.89 20.73c68.559 7.9989 98.149 18.252 103.1 29.931 0.737 1.7379 0.8745 3.499 0.6215 5.3057-3.4348 24.53-27.59 40.113-59.437 52.152-2.1361 0.80748-4.3405 1.5095-6.5082 2.3762-45.296 18.111-100.93 36.972-142.58 44.979z"/>
  <path transform="matrix(1.0878 0 0 .68687 -45.396 116.78)" d="m625.35 349.94c0 15.742-33.773 28.503-75.433 28.503s-75.433-12.761-75.433-28.503 33.773-28.503 75.433-28.503 75.433 12.761 75.433 28.503z"/>
  <path transform="matrix(.72115 0 0 .57692 -317.2 139.54)" d="m1270.3 380.17c0 8.2685-26.812 14.971-59.886 14.971s-59.886-6.703-59.886-14.971 26.812-14.972 59.886-14.972 59.886 6.703 59.886 14.972z"/>
  <path d="m892.82 352.72-19.002 2.8791c-83.66 10.921-135.32-11.55-184.26-36.853 13.024-9.9836 24.951-22.524 33.398-43.187 1.2271-6.526 6.3141-13.052 0.5758-19.578l1.1517-73.13c17.56-6.7537 38.919-7.1766 61.038-6.3341 11.8 4.168 21.805 9.4126 40.884 9.2132 14.541 13.57 27.618 27.725 34.55 44.339 14.937 39.132 24.376 80.462 31.67 122.65z"/>
  <path d="m827.18 184.97c-22.595-0.4019-31.138-5.488-40.308-10.365 40.32-28.77 81.54-56.042 117.47-92.132l-2.3033-6.3341 3.4549-2.8791c16.516 5.1764 22.845 17.144 30.519 28.216l-0.5759 4.0308-7.4857-1.1517c-37.046 22.551-69.844 50.414-100.77 80.616z"/>
 </g>
</svg>
