<?xml version="1.0" encoding="UTF-8"?>
<svg width="500" height="500" version="1.1" viewBox="0 0 500.00001 500.00001" xmlns="http://www.w3.org/2000/svg">
 <g transform="translate(0 -552.36)">
  <rect y="552.36" width="500" height="500" ry="23.273" fill-opacity="0"/>
 </g>
 <g transform="matrix(4.0545 0 0 4.0545 -3130.5 -2055)">
  <path d="m881.17 554.78c-2.4721 0.10748-4.4769 0.48313-6.2344 1.791-1.7575 1.3079-2.5061 3.5591-2.623 4.8848-0.0754 0.85467-0.0456 1.0523-0.0371 1.4141-0.5051 0.12738-2.0585 0.52101-3.8477 0.47461-2.0508-0.0532-3.7676-0.33594-3.7676-0.33594l-3.9766-0.66797-1.3359 7.9512 3.9766 0.66797s2.2104 0.37571 4.8945 0.44531 5.9049 0.22812 9.0918-1.8965c1.8026-1.2017 2.7675-3.4366 2.9453-4.8594 0.11982-0.95858 0.0722-1.2549 0.0586-1.6738 0.11023-0.03 0.26175-0.0313 0.91602-0.10547 0.027 0.0271 9.8e-4 7e-3 0.0859 0.0957 0.3381 0.35192 0.90542 1.2152 1.3535 2.4043 0.8962 2.3782 1.3491 5.9723 0.8164 9.2402-0.53272 3.268-1.918 6.1016-4.3594 7.9414s-6.2188 3.0132-12.645 1.9805l-3.9805-0.63868-1.2793 7.9609 3.9805 0.63867c7.9499 1.2777 14.327-0.14946 18.775-3.502s6.6875-8.3035 7.4668-13.084c0.77929-4.7805 0.23159-9.5011-1.2305-13.381-0.73103-1.9399-1.6831-3.6902-3.084-5.1484s-3.512-2.7041-5.9609-2.5977z" color="#000000" color-rendering="auto" fill="#1c1c1c" fill-rule="evenodd" image-rendering="auto" shape-rendering="auto" solid-color="#000000" style="block-progression:tb;isolation:auto;mix-blend-mode:normal;text-decoration-color:#000000;text-decoration-line:none;text-decoration-style:solid;text-indent:0;text-transform:none;white-space:normal"/>
  <path d="m779.86 549.97-4.1591 3.9516c6.8587 5.1728 10.972 24.216 20.609 26.929s22.449 3.5155 22.449 3.5155l1.8813-20.759s-9.0034 4.8705-18.294 2.2543c-11.582-0.81838-22.486-15.891-22.486-15.891z" color="#000000" color-rendering="auto" fill="#1a1a1a" fill-rule="evenodd" image-rendering="auto" shape-rendering="auto" solid-color="#000000" style="block-progression:tb;isolation:auto;mix-blend-mode:normal;text-decoration-color:#000000;text-decoration-line:none;text-decoration-style:solid;text-indent:0;text-transform:none;white-space:normal"/>
  <path d="m834.42 549.23a36.416 26.1 0 0 0 -36.415 26.101 36.416 26.1 0 0 0 14.271 20.678v5.32h19.302a36.416 26.1 0 0 0 2.8432 0.10184 36.416 26.1 0 0 0 2.9986 -0.10184h19.147v-5.3011a36.416 26.1 0 0 0 14.271 -20.697 36.416 26.1 0 0 0 -36.417 -26.101z" fill="#474747"/>
  <ellipse cx="834.42" cy="549.23" rx="23.242" ry="8.4515" fill="#343434"/>
  <circle cx="834.42" cy="540.77" r="5.2201" fill="#474747"/>
  <circle cx="832.78" cy="538.32" r="1.2467" fill="#afafaf"/>
  <path d="m817.43 558.57s-9.457 2.8121-12.312 13.005" fill="none" stroke="#d7d7d7" stroke-linecap="round" stroke-linejoin="round" stroke-width="4"/>
  <path d="m834.42 535.55v65.873a36.416 26.1 0 0 0 2.998 -0.10156h19.148v-5.3027a36.416 26.1 0 0 0 5.7734 -3.9941l2.8711 0.46093c7.9499 1.2777 14.327-0.14946 18.775-3.502s6.6875-8.3035 7.4668-13.084c0.77929-4.7805 0.23159-9.5011-1.2305-13.381-0.73103-1.9399-1.6831-3.6902-3.084-5.1484s-3.512-2.7041-5.9609-2.5977c-2.4721 0.10748-4.4769 0.48313-6.2344 1.791-1.7575 1.3079-2.5061 3.5591-2.623 4.8848-0.0754 0.85469-0.0456 1.0523-0.0371 1.4141-0.5051 0.12738-2.0585 0.52101-3.8477 0.47461-0.64878-0.0168-1.2333-0.057-1.7715-0.10352a36.416 26.1 0 0 0 -12.26 -9.7168 23.242 8.4515 0 0 0 3.2578 -4.2949 23.242 8.4515 0 0 0 -18.033 -8.2285 5.2201 5.2201 0 0 0 0.0117 -0.22266 5.2201 5.2201 0 0 0 -5.2207 -5.2207zm46.818 27.312c0.027 0.0271 1e-3 7e-3 0.0859 0.0957 0.3381 0.35192 0.90542 1.2152 1.3535 2.4043 0.8962 2.3782 1.3491 5.9723 0.8164 9.2402-0.53272 3.268-1.918 6.1016-4.3594 7.9414-2.1977 1.6562-5.498 2.7561-10.818 2.209a36.416 26.1 0 0 0 2.5195 -9.4297 36.416 26.1 0 0 0 -0.45312 -3.8965c2.1743-0.0298 4.5636-0.34447 6.9355-1.9258 1.8026-1.2017 2.7675-3.4366 2.9453-4.8594 0.11982-0.95858 0.0722-1.2549 0.0586-1.6738 0.11023-0.03 0.26174-0.0313 0.91602-0.10547z" color="#000000" color-rendering="auto" fill="#1c1c1c" fill-opacity=".082524" fill-rule="evenodd" image-rendering="auto" shape-rendering="auto" solid-color="#000000" style="block-progression:tb;isolation:auto;mix-blend-mode:normal;text-decoration-color:#000000;text-decoration-line:none;text-decoration-style:solid;text-indent:0;text-transform:none;white-space:normal"/>
 </g>
</svg>
