<?xml version="1.0" encoding="UTF-8"?>
<svg viewBox="0 0 640 640" xmlns="http://www.w3.org/2000/svg" xmlns:xlink="http://www.w3.org/1999/xlink">
 <defs>
  <linearGradient id="c">
   <stop stop-color="#fff" offset="0"/>
   <stop stop-color="#fff" stop-opacity="0" offset="1"/>
  </linearGradient>
  <linearGradient id="a">
   <stop offset="0"/>
   <stop stop-opacity="0" offset="1"/>
  </linearGradient>
  <linearGradient id="b">
   <stop stop-color="#c2c2c2" offset="0"/>
   <stop stop-color="#f1f1f1" offset="1"/>
  </linearGradient>
  <linearGradient id="p" x1="103.86" x2="167.32" y1="317.5" y2="368.55" gradientTransform="scale(1.7403 .5746)" gradientUnits="userSpaceOnUse">
   <stop stop-color="#9c9c9c" offset="0"/>
   <stop stop-color="#dedede" offset="1"/>
  </linearGradient>
  <linearGradient id="s" x1="127.3" x2="290.03" y1="399.6" y2="303.52" gradientTransform="scale(1.2563 .79598)" gradientUnits="userSpaceOnUse">
   <stop stop-color="#484848" offset="0"/>
   <stop stop-color="#777" offset="1"/>
  </linearGradient>
  <linearGradient id="q" x1="118.09" x2="536.42" y1="279.17" y2="602.05" gradientTransform="scale(1.2159,.82244)" gradientUnits="userSpaceOnUse" xlink:href="#b"/>
  <linearGradient id="o" x1="173.89" x2="110.6" y1="391.79" y2="343.92" gradientTransform="scale(1.7403 .5746)" gradientUnits="userSpaceOnUse" xlink:href="#a"/>
  <linearGradient id="n" x1="-12.487" x2="-52.21" y1="522.85" y2="353.8" gradientTransform="scale(2.3232 .43045)" gradientUnits="userSpaceOnUse" xlink:href="#b"/>
  <linearGradient id="m" x1="-67.859" x2="-14.979" y1="135.86" y2="481.18" gradientTransform="scale(2.3232 .43045)" gradientUnits="userSpaceOnUse" xlink:href="#a"/>
  <linearGradient id="l" x1="113.17" x2="131.75" y1="338.26" y2="360.78" gradientTransform="scale(1.8617 .53715)" gradientUnits="userSpaceOnUse" xlink:href="#b"/>
  <linearGradient id="k" x1="114.79" x2="111.93" y1="401.97" y2="389.85" gradientTransform="scale(2.0077 .49808)" gradientUnits="userSpaceOnUse" xlink:href="#b"/>
  <linearGradient id="w" x1="203.9" x2="193.35" y1="286.49" y2="402.45" gradientTransform="scale(1.2563 .79598)" gradientUnits="userSpaceOnUse" xlink:href="#c"/>
  <linearGradient id="v" x1="65.684" x2="229.75" y1="214.98" y2="267.19" gradientTransform="scale(1.4115 .70846)" gradientUnits="userSpaceOnUse" xlink:href="#b"/>
  <linearGradient id="u" x1="232.24" x2="92.202" y1="395.17" y2="237.04" gradientTransform="scale(1.4115 .70846)" gradientUnits="userSpaceOnUse" xlink:href="#a"/>
  <linearGradient id="t" x1="391.58" x2="161.34" y1="638.37" y2="602.75" gradientTransform="scale(1.3146 .76069)" gradientUnits="userSpaceOnUse" xlink:href="#c"/>
  <linearGradient id="r" x1="440.02" x2="111.57" y1="245.12" y2="782.88" gradientTransform="scale(1.6208 .61699)" gradientUnits="userSpaceOnUse" xlink:href="#a"/>
  <radialGradient id="e" cx="117.95" cy="748.44" r="213.01" fx="118.87" gradientTransform="scale(1.6588 .60283)" gradientUnits="userSpaceOnUse">
   <stop stop-color="#2d2d2d" offset="0"/>
   <stop stop-color="#616161" offset="1"/>
  </radialGradient>
  <radialGradient id="g" cx="320.73" cy="524.6" r="18.371" fx="317.52" fy="524.43" gradientTransform="scale(1.633 .61237)" gradientUnits="userSpaceOnUse">
   <stop stop-color="#cd0000" offset="0"/>
   <stop stop-color="#920000" stop-opacity="0" offset="1"/>
  </radialGradient>
  <radialGradient id="j" cx="214.22" cy="672.36" r="225.34" fx="63.133" fy="760.19" gradientTransform="matrix(1.8077 .62801 -.19013 .54731 142.35 -60.074)" gradientUnits="userSpaceOnUse">
   <stop stop-color="#c2c2c2" offset="0"/>
   <stop stop-color="#c2c2c2" stop-opacity="0" offset="1"/>
  </radialGradient>
  <radialGradient id="h" cx="366.84" cy="355.7" r="247.5" fx="362" fy="529.43" gradientTransform="matrix(1.341 .30103 -.20722 .92312 -51.812 -102.97)" gradientUnits="userSpaceOnUse">
   <stop stop-opacity="0" offset="0"/>
   <stop stop-opacity="0" offset=".70253"/>
   <stop offset="1"/>
  </radialGradient>
  <radialGradient id="d" cx="300.16" cy="452.26" r="64.007" gradientTransform="scale(1.4016 .71346)" gradientUnits="userSpaceOnUse" xlink:href="#c"/>
  <radialGradient id="f" cx="-139.55" cy="595.7" r="290.27" fy="599.37" gradientTransform="scale(1.3146 .76069)" gradientUnits="userSpaceOnUse" xlink:href="#c"/>
  <radialGradient id="i" cx="25.572" cy="373.96" r="71.151" fx="39.948" fy="412.64" gradientTransform="matrix(2.0032 .047961 -.018888 .69358 -15.564 73.176)" gradientUnits="userSpaceOnUse" xlink:href="#a"/>
 </defs>
 <path d="m265.6 567.69c-104.72-30.178-193.92-99.368-222.86-182.26-8.1826-23.441-10.834-46.162-8.7146-67.569 22.684-13.161 85.606-21.039 152.97-24.46 83.514-4.2411 111.05-52.043 189.12-62.028 70.194-8.9775 137.22 22.409 173.48 54.93 21.561 23.756 38.089 49.984 47.789 77.772 40.257 115.33-51.315 213.71-204.39 219.61-43.054 1.6572-86.409-4.1839-127.39-15.993z" display="block" fill="url(#j)" fill-rule="evenodd" opacity=".75"/>
 <path d="m144.12 331.56c-7.8592-0.08298-15.768 0.66511-23.656 2.3438-13.233 5.2587-27.402 4.2126-36.125 16.781-1.664 6.4943 2.8402 13.808 11.312 21.594-0.10875-0.03242-0.26364-0.16371-0.34375-0.15625-12.422 1.4652-19.5 7.5457-19.5 18.656 0 0.26791 0.02494 0.49076 0.03125 0.71875-0.00481 0.16225 0.14295 0.40433 0.375 0.65625s0.54432 0.49866 0.84375 0.65625c0.76006 0.40122 1.4774 0.7693 2.25 1.1875 35.846 26.673 77.074 55.681 121.59 85.344 0.02529 0.02011 0.06846 0.04238 0.09375 0.0625 4.3783 3.4817 8.7779 7.0287 13.219 10.625l0.21875 0.25c0.14187 0.15997 0.30982 0.33108 0.5 0.46875 0.20832 0.15233 0.43183 0.27088 0.625 0.34375 19.226 7.2932 34.78 10.078 44.594 7.25 15.175-4.3724 13.872-21.478-0.34375-45.906 14.84 5.505 28.067 11.291 38.5 18.781 28.423 20.405 47.275 25.707 65.656 38.906 20.245 9.5081 41.359 16.043 63.75 20.219s48.244 4.2234 71.969 0.1875c19.791-3.3668 44.016-20.375 70.219-18.156 21.129-23.671 33.878-51.975 36.438-83.031-0.78776-7.2885-1.1541-14.524-0.375-21.594 1.2104-18.91-54.313-54.255-77.25-52.625-54.794 7.0816-108.66 20.204-163.78 24.969-25.44 2.9817-50.392 9.6743-75.781 12.531-19.751 0.27803-37.963-9.987-51.469-23.75-26.381-21.185-59.506-36.953-93.562-37.312z" fill="url(#r)" fill-rule="evenodd" opacity=".9"/>
 <path transform="matrix(1.1621 0 0 1.1621 -92.56 -54.375)" d="m308.2 168.93c-90.117-1.1355-166.87 35.319-191.77 99.159-7.0413 18.054-15.628 37.491-3.3891 54.714 12.433 17.496 69.555 41.434 127.52 61.812 71.865 25.264 95.56 73.525 162.74 102.32 60.403 25.892 118.08 16.231 149.28-2.3692 18.553-14.863 32.776-33.154 41.123-54.556 34.642-88.821-44.157-197.18-175.88-241.87-37.048-12.569-74.356-18.763-109.62-19.208z" display="block" fill="url(#q)" fill-rule="evenodd"/>
 <path d="m35.219 277.84c-4.4914 14.615-6.0376 29.353 3.5938 42.906 7.931 11.16 31.763 24.594 62.562 38.344 2.4346-5.9259 3.8125-12.196 3.8125-18.719 0-31.303-30.257-57.232-69.969-62.531z" display="block" fill="url(#i)" opacity=".42326"/>
 <path d="m255.83 141.93c-100.47 1.3553-185.05 43.362-213.08 115.23-0.25417 0.65168-0.45709 1.3131-0.7006 1.9666 0.57793 9.4344 6.0469 17.081 16.95 22.211 5.3348 2.5097 11.74 4.298 19.027 5.4082 35.907-7.9013 77.267-13.904 121.93-17.306 4.4739-1.4031 8.9716-2.8656 13.508-4.4126l118.86-116.49c-22.637-4.1294-45.016-6.3393-66.718-6.6128-3.2726-0.04125-6.5307-0.04373-9.7717 0z" display="block" fill="url(#u)" fill-rule="evenodd"/>
 <path transform="translate(3.5478e-7 -1.8441)" d="m255.84 142.88c-100.22 1.352-184.4 43.227-212.25 114.62-0.22307 0.57192-0.39883 1.1649-0.625 1.7812 0.62878 9.0052 5.834 16.23 16.438 21.219 5.1897 2.4414 11.442 4.2106 18.594 5.3125 35.861-7.8826 77.133-13.847 121.69-17.25 0.01873-0.00587 0.04377 0.00588 0.0625 0 4.3872-1.3763 8.7741-2.8301 13.219-4.3438l117.38-115.03c-21.97-3.911-43.683-6.0471-64.75-6.3125-3.2655-0.04116-6.5178-0.04361-9.75 0z" display="block" fill="url(#v)" fill-rule="evenodd"/>
 <path transform="matrix(1.1621 0 0 1.1621 -92.56 -54.375)" d="m187.03 339.03c-9.948-0.28053-18.642 0.89528-25.734 3.5962-0.06343-0.08675-0.1167-0.17753-0.17981-0.26442-4.2289 2.4239-7.4344 4.8815-9.9106 6.4414 24.839 11.764 56.355 24.213 89.354 35.814 71.865 25.264 95.56 73.525 162.74 102.32 60.403 25.892 118.08 16.231 149.28-2.3692 18.553-14.863 32.776-33.154 41.123-54.556 5.9941-15.369 8.5236-31.33 8.0385-47.438-2.2186 0.82609-4.7437 1.9035-7.9327 3.5538-19.369 10.023-28.052 63.653-39.399 79.581-11.868 16.659-25.183 23.017-60.669 29.15-35.627 6.1574-77.387-1.842-105.59-23.639-29.076-22.473-61.398-74.851-87.101-91.395-2.0866-1.343-4.2958-2.7369-6.4731-4.125-40.613-23.134-79.178-35.87-107.55-36.67z" fill="url(#e)" fill-rule="evenodd"/>
 <path transform="matrix(1.1621 0 0 1.1621 -92.56 -54.375)" d="m262.31 171.75c-0.6325 0.08796-1.2736 0.16186-1.9038 0.25385-2.5415 0.37097-5.07 0.76958-7.5731 1.2058s-4.9837 0.90591-7.4462 1.4067-4.8994 1.0322-7.3192 1.5971-4.8174 1.1591-7.1923 1.7875-4.7269 1.2971-7.0548 1.9885-4.6385 1.404-6.9173 2.1577-4.5311 1.5431-6.7587 2.3587-4.4258 1.6617-6.6 2.5385-4.3227 1.7808-6.4414 2.7183-4.2112 1.9111-6.2721 2.9087-4.0912 2.0208-6.0923 3.0779-3.9733 2.1416-5.9125 3.2577-3.847 2.263-5.7221 3.4375-3.7122 2.385-5.5212 3.6173-3.5902 2.4864-5.3308 3.776-3.4492 2.6095-5.1192 3.9558c-0.7598 0.61248-1.4868 1.248-2.2317 1.8721 14.129 2.0992 30.363 3.3106 47.66 3.3106 54.329 0 98.418-11.8 98.418-26.337 0-8.5182-15.201-16.075-38.669-20.889z" display="block" fill="url(#p)" fill-rule="evenodd" stroke="url(#o)" stroke-linecap="round" stroke-width="1.29"/>
 <path transform="matrix(.46129 -.03271 .058498 .39233 195.69 93.152)" d="m50.052 192.16a110 18.624 0 1 1 -220 0 110 18.624 0 1 1 220 0z" display="block" fill="url(#n)" fill-rule="evenodd" stroke="url(#m)" stroke-linecap="round" stroke-width="3.4133"/>
 <path transform="matrix(1.1621 0 0 1.1621 -92.56 -54.375)" d="m236.16 182.13c-15.548-0.66832-28.53 6.5854-31.9 16.895 0.57385 0.04744 1.1882 0.0774 1.7769 0.11869 4.6804-5.8448 12.339-9.4966 21.059-9.1217 7.1042 0.30537 13.54 3.2062 18.213 7.6474 7.1403-1.0112 13.268-2.3639 18.065-3.9196-5.8917-6.552-15.879-11.133-27.214-11.62z" display="block" fill="url(#l)" fill-rule="evenodd"/>
 <path transform="matrix(1.1621 0 0 1.1621 -92.56 -54.375)" d="m227.03 190.09c-8.4859-0.36477-15.983 3.2574-20.551 9.0907 6.7175 0.45051 14.246 0.54838 22.307 0.11269 5.6886-0.30745 11.04-0.8626 16.024-1.5535-4.559-4.4526-10.841-7.3516-17.78-7.6498z" display="block" fill="url(#k)" fill-rule="evenodd"/>
 <path transform="matrix(1.1832 -.14892 .3072 .85667 -440.33 25.158)" d="m510.43 322.67a89.714 45.666 0 1 1 -179.43 0 89.714 45.666 0 1 1 179.43 0z" display="block" fill="url(#d)" fill-rule="evenodd" opacity=".50935"/>
 <path transform="matrix(1.1621 0 0 1.1621 -92.56 -54.375)" d="m308.2 168.93c-90.117-1.1355-166.87 35.319-191.77 99.159-7.0413 18.054-15.628 37.491-3.3891 54.714 12.433 17.496 69.555 41.434 127.52 61.812 71.865 25.264 95.56 73.525 162.74 102.32 60.403 25.892 118.08 16.231 149.28-2.3692 18.553-14.863 32.776-33.154 41.123-54.556 34.642-88.821-44.157-197.18-175.88-241.87-37.048-12.569-74.356-18.763-109.62-19.208z" display="block" fill="url(#h)" fill-rule="evenodd" opacity=".2243"/>
 <path d="m124.66 344.28c-11.114-0.31341-20.622 1.0605-28.094 3.9062-0.29335 0.11493-0.59587 0.1959-0.90625 0.25-0.00974 0.00592-0.02152-0.00593-0.03125 0-1.0429 0.63591-1.7788 1.1558-2.7188 1.7812 27.392 12.537 60.649 25.631 95.656 37.938 42.488 14.937 70.857 36.769 98 58.688 20.934 16.904 41.195 33.784 66.938 48.188-16.929-13.702-34.057-34.473-50.688-54.5-17.333-20.873-34.273-40.687-48.062-49.562-2.4022-1.5461-4.9596-3.1928-7.5-4.8125-46.649-26.538-90.959-40.983-122.59-41.875z" fill="url(#t)" fill-rule="evenodd"/>
 <path transform="matrix(.44551 -1.1834 1.1834 .44551 -27.253 909.18)" d="m553.75 321.25a30 11.25 0 1 1 -60 0 30 11.25 0 1 1 60 0z" display="block" fill="url(#g)"/>
 <path d="m124.66 344.28c-11.114-0.31341-20.622 1.0605-28.094 3.9062-0.29335 0.11493-0.59587 0.1959-0.90625 0.25-0.00974 0.00592-0.02152-0.00593-0.03125 0-1.0429 0.63591-1.7788 1.1558-2.7188 1.7812 27.392 12.537 60.649 25.631 95.656 37.938 42.488 14.937 70.857 36.769 98 58.688 20.934 16.904 41.195 33.784 66.938 48.188-16.929-13.702-34.057-34.473-50.688-54.5-17.333-20.873-34.273-40.687-48.062-49.562-2.4022-1.5461-4.9596-3.1928-7.5-4.8125-46.649-26.538-90.959-40.983-122.59-41.875z" fill="url(#f)" fill-rule="evenodd"/>
 <path transform="matrix(1.6985 1.1246 -.91545 2.5237 -29.232 -947.8)" d="m510.43 322.67a89.714 45.666 0 1 1 -179.43 0 89.714 45.666 0 1 1 179.43 0z" display="block" fill="url(#d)" fill-rule="evenodd"/>
 <path transform="matrix(1.1621 0 0 1.1621 -92.56 -54.375)" d="m263.53125,273.65625c-.16366.02985-.31542.10573-.4375.21875l-.1875.1875c-3.82139,1.30188-7.60742,2.53649-11.375,3.71875l-.0625.03125c-38.31018,2.92627-73.8105,8.06821-104.65625,14.84375-.66486-.10226-1.28346-.22705-1.9375-.34375-.25767-.04672-.52272.02438-.72239.19381s-.313.41935-.30886.68119c-.00543.35498-.03125.70052-.03125,1.125 0,17.6035 6.09225,34.22577 16.78125,48.84375 .23993.31716.66352.43269 1.03125.28125 13.89663-5.29276 34.3646-4.65596 58.46875,1.59375s51.84833,18.08219 80.40625,35.03125c.20593.12172.4527.15385.68293.08892s.42385-.22128.53582-.43267c12.67884-24.9145 13.94454-51.14382.71875-73.375-8.44451-14.19433-21.83057-25.1478-38.375-32.625-.16622-.07576-.35198-.09762-.53125-.0625z" display="block" fill="url(#s)" fill-rule="evenodd"/>
 <path transform="matrix(1.1621 0 0 1.1621 -92.56 -54.375)" d="m263.66 277.41c-3.7517 1.2755-7.4796 2.5246-11.188 3.6875-0.18219 0.06274-0.37089 0.10467-0.5625 0.125-38.326 2.9194-73.802 8.0436-104.56 14.812h-0.03125c0.3703 15.596 5.7981 30.331 15.125 43.594 14.862-4.9376 35.048-3.9868 58.5 2.0938 23.789 6.168 50.905 17.731 78.812 34.031 11.154-23.369 11.904-47.226-0.25-67.656-7.8443-13.185-20.312-23.461-35.844-30.688z" display="block" fill="url(#w)" fill-rule="evenodd"/>
</svg>
