<?xml version="1.0" encoding="UTF-8"?>
<svg viewBox="0 0 620 400" xmlns="http://www.w3.org/2000/svg">
 <defs>
  <filter id="b">
   <feGaussianBlur stdDeviation="4.84634"/>
  </filter>
  <linearGradient id="a" x1="201.79" x2="127.03" y1="468.46" y2="294.21" gradientUnits="userSpaceOnUse">
   <stop offset="0"/>
   <stop stop-opacity="0" offset="1"/>
  </linearGradient>
 </defs>
 <g transform="translate(-204.8 -178.51)">
  <path d="m232.64 190.82c-9.8818 0.16777-16.026 10.711-14.094 19.844 0.10438 114.34-0.20862 228.7 0.15625 343.03 1.1773 9.1917 11.118 14.149 19.688 12.531 186.49-0.06253 372.99 0.12504 559.47-0.09375 9.5241-0.71792 14.96-10.973 13.25-19.781-0.12532-114.31 0.25043-228.65-0.1875-342.94-1.0807-9.2568-11.115-14.229-19.688-12.625-186.2 0.02084-372.4-0.04167-558.59 0.03125z" filter="url(#b)"/>
  <path d="m233.39 192.8h562.86a12.857 12.857 0 0 1 12.857 12.857v345.71a12.857 12.857 0 0 1 -12.857 12.857h-562.86a12.857 12.857 0 0 1 -12.857 -12.857v-345.71a12.857 12.857 0 0 1 12.857 -12.857" fill="#a9d1ff"/>
  <path d="m264.64 219.68h495.52c7.1229 0 12.857 5.7343 12.857 12.857v221.77c0 7.1229-5.7343 12.857-12.857 12.857h-495.52c-7.1229 0-12.857-5.7343-12.857-12.857v-221.77c0-7.1229 5.7343-12.857 12.857-12.857z" fill="#eee982"/>
  <path d="m330.56 473.52 370.71-0.79727 20.481 91.419-409.11-0.79725 17.921-89.824z" fill="#fff" opacity=".8022"/>
  <path transform="translate(204.8 178.51)" d="m496.47 294.22-370.72 0.78125-17.906 89.844h5.4062l17.562-84.812 365.69-0.78125 20.062 86.375h0.375l-20.469-91.406z" fill="url(#a)" opacity=".8022"/>
  <path transform="translate(204.8 178.51)" d="m317.12 147.25c-3.4591 14.068-4.3544 28.399-2.9375 42.406h3.8125c-1.4556-13.999-0.54178-28.353 3.0312-42.406h-3.9062zm7.75 0c-3.698 14.048-4.6541 28.405-3.1562 42.406h3.6562c-1.538-13.993-0.54383-28.375 3.2812-42.406h-3.7812zm7.5 0c-3.9621 14.019-4.9879 28.414-3.4062 42.406h3.5312c-1.6292-13.994-0.5757-28.396 3.5312-42.406h-3.6562zm7.25 0c-4.2551 13.991-5.3631 28.419-3.6875 42.406h3.4062c-1.7299-13.991-0.57008-28.426 3.8438-42.406h-3.5625zm7.0312 0c-4.5775 13.959-5.7822 28.422-4 42.406h3.2812c-1.8338-13.976-0.59443-28.474 4.1562-42.406h-3.4375zm6.7812 0c-4.9377 13.914-6.2063 28.428-4.3125 42.406h3.125c-1.9536-13.969-0.62724-28.523 4.5-42.406h-3.3125zm6.5625 0c-5.334 13.858-6.6748 28.438-4.6562 42.406h3c-2.0571-13.774-0.73891-28.186 4.625-41.844 0.0759-0.19326 0.17274-0.37012 0.25-0.5625h-3.2188zm6.375 0c-0.22912 0.54659-0.46993 1.1021-0.6875 1.6562-5.2234 13.303-6.4748 27.346-4.4062 40.75h2.875c-2.0854-13.047-0.90102-26.725 4.1875-39.688 0.36224-0.92278 0.76101-1.8177 1.1562-2.7188h-3.125zm6.1562 0c-0.56357 1.2284-1.0948 2.4786-1.5938 3.75-4.9537 12.622-6.0981 25.965-4 38.656h2.7812c-2.121-12.355-1.0772-25.322 3.75-37.625 0.55482-1.4141 1.175-2.7975 1.8125-4.1562v-0.625h-2.75zm2.75 7.625c-4.0923 11.419-4.8983 23.392-2.875 34.781h2.625c-1.5194-8.2322-1.4884-16.768 0.25-25.188v-9.5938z" fill="none" stroke="#000"/>
  <path d="m455.33 325.75h124.75v42.426h-124.75z" fill="#d9d9d9" fill-opacity=".79032"/>
  <path d="m387.6 310.61c-25.463 0-45.969 20.506-45.969 45.969s20.506 45.969 45.969 45.969h257.09c25.463 0 45.969-20.506 45.969-45.969s-20.506-45.969-45.969-45.969h-257.09zm67.688 17.469h122.25v40.031h-122.25v-40.031z" fill="#a6a6a6"/>
  <path transform="translate(13.385 11.476)" d="m416.18 345.08a37.376 37.376 0 1 1 -74.751 0 37.376 37.376 0 1 1 74.751 0z" fill="#5d5d5d"/>
  <path transform="translate(264.91 11.476)" d="m416.18 345.08a37.376 37.376 0 1 1 -74.751 0 37.376 37.376 0 1 1 74.751 0z" fill="#5d5d5d"/>
  <path d="m455.33 325.75h124.75v42.426h-124.75z" fill="#e9e9e9" fill-opacity=".57527"/>
  <path d="m335.62 478.54 365.68-0.75762 20.203 86.873-403.56-0.75761 17.678-85.358z" fill="#a9d1ff" opacity=".8022"/>
  <path transform="translate(13.385 11.981)" d="m376.28 533.1a13.511 13.511 0 1 1 -27.022 0 13.511 13.511 0 1 1 27.022 0z" opacity=".8022"/>
  <path transform="translate(297.36 12.865)" d="m376.28 533.1a13.511 13.511 0 1 1 -27.022 0 13.511 13.511 0 1 1 27.022 0z" opacity=".8022"/>
  <path d="m600.79 526.01h3.0305a8.5863 8.5863 0 0 1 8.5863 8.5863v3.7881a8.5863 8.5863 0 0 1 -8.5863 8.5863h-3.0305a8.5863 8.5863 0 0 1 -8.5863 -8.5863v-3.7881a8.5863 8.5863 0 0 1 8.5863 -8.5863" opacity=".8022"/>
  <path d="m434.87 525.89h3.0305a8.5863 8.5863 0 0 1 8.5863 8.5863v3.7881a8.5863 8.5863 0 0 1 -8.5863 8.5863h-3.0305a8.5863 8.5863 0 0 1 -8.5863 -8.5863v-3.7881a8.5863 8.5863 0 0 1 8.5863 -8.5863" opacity=".8022"/>
  <path transform="matrix(.96284 0 0 .96284 27.084 24.931)" d="m416.18 345.08a37.376 37.376 0 1 1 -74.751 0 37.376 37.376 0 1 1 74.751 0z" fill="#727272"/>
  <path transform="matrix(.96284 0 0 .96284 278.99 25.31)" d="m416.18 345.08a37.376 37.376 0 1 1 -74.751 0 37.376 37.376 0 1 1 74.751 0z" fill="#727272"/>
  <path transform="matrix(.95327 0 0 .95327 29.58 37.397)" d="m376.28 533.1a13.511 13.511 0 1 1 -27.022 0 13.511 13.511 0 1 1 27.022 0z" fill="#979797" opacity=".8022"/>
  <path transform="matrix(.95327 0 0 .95327 314.06 38.407)" d="m376.28 533.1a13.511 13.511 0 1 1 -27.022 0 13.511 13.511 0 1 1 27.022 0z" fill="#979797" opacity=".8022"/>
  <path d="m600.52 527.02h2.8479a8.069 8.069 0 0 1 8.069 8.069v3.5599a8.069 8.069 0 0 1 -8.069 8.069h-2.8479a8.069 8.069 0 0 1 -8.069 -8.069v-3.5599a8.069 8.069 0 0 1 8.069 -8.069" fill="#acacac" opacity=".8022"/>
  <path d="m434.71 527.02h2.8479a8.069 8.069 0 0 1 8.069 8.069v3.5599a8.069 8.069 0 0 1 -8.069 8.069h-2.8479a8.069 8.069 0 0 1 -8.069 -8.069v-3.5599a8.069 8.069 0 0 1 8.069 -8.069" fill="#acacac" opacity=".8022"/>
  <path transform="translate(7.8295 6.1725)" d="m412.65 350.13a28.284 28.284 0 1 1 -56.569 0 28.284 28.284 0 1 1 56.569 0z" fill="#fdfdfd"/>
  <path transform="translate(260.37 6.6776)" d="m412.65 350.13a28.284 28.284 0 1 1 -56.569 0 28.284 28.284 0 1 1 56.569 0z" fill="#fdfdfd"/>
  <path transform="translate(20.962 15.011)" d="m389.41 358.72c-2.7174 2.7174-6.4222-4.0525-9.8463-2.3078s-0.12478 8.7212-3.9205 9.3224-2.8137-7.0534-6.6094-7.6546-5.2271 6.9822-8.6513 5.2375 1.8696-7.3602-0.84783-10.078-8.3329 2.5763-10.078-0.84783 5.8387-4.8556 5.2375-8.6513-8.2558-2.8137-7.6546-6.6094 7.5776-0.49633 9.3223-3.9205-5.0252-7.1289-2.3078-9.8463 6.4222 4.0525 9.8463 2.3078 0.12478-8.7212 3.9205-9.3224 2.8137 7.0534 6.6094 7.6546 5.2271-6.9822 8.6513-5.2375-1.8696 7.3602 0.84783 10.078 8.3329-2.5763 10.078 0.84783-5.8387 4.8556-5.2375 8.6513 8.2558 2.8137 7.6546 6.6094-7.5776 0.49633-9.3223 3.9205 5.0252 7.1289 2.3078 9.8463z" fill="#808183"/>
  <path transform="translate(273.07 15.09)" d="m389.41 358.72c-2.7174 2.7174-6.4222-4.0525-9.8463-2.3078s-0.12478 8.7212-3.9205 9.3224-2.8137-7.0534-6.6094-7.6546-5.2271 6.9822-8.6513 5.2375 1.8696-7.3602-0.84783-10.078-8.3329 2.5763-10.078-0.84783 5.8387-4.8556 5.2375-8.6513-8.2558-2.8137-7.6546-6.6094 7.5776-0.49633 9.3223-3.9205-5.0252-7.1289-2.3078-9.8463 6.4222 4.0525 9.8463 2.3078 0.12478-8.7212 3.9205-9.3224 2.8137 7.0534 6.6094 7.6546 5.2271-6.9822 8.6513-5.2375-1.8696 7.3602 0.84783 10.078 8.3329-2.5763 10.078 0.84783-5.8387 4.8556-5.2375 8.6513 8.2558 2.8137 7.6546 6.6094-7.5776 0.49633-9.3223 3.9205 5.0252 7.1289 2.3078 9.8463z" fill="#808183"/>
 </g>
</svg>
