<?xml version="1.0" encoding="UTF-8"?>
<svg viewBox="0 0 413.50177 124.58981" xmlns="http://www.w3.org/2000/svg">
 <defs>
  <linearGradient id="c" x1="-686" x2="-223.13" y1="83.006" y2="342.19" gradientUnits="userSpaceOnUse">
   <stop stop-color="#fff" offset="0"/>
   <stop stop-color="#616161" offset="1"/>
  </linearGradient>
  <linearGradient id="b" x1="209.89" x2="256.28" y1="314.44" y2="381.36" gradientTransform="matrix(.50508 .18034 -.15751 .44116 151.03 -63.043)" gradientUnits="userSpaceOnUse">
   <stop stop-color="#fff" offset="0"/>
   <stop stop-color="#c0c0c0" offset="1"/>
  </linearGradient>
  <radialGradient id="a" cx="992.69" cy="111.55" r="19.209" fx="1001.5" fy="117.52" gradientTransform="matrix(.75727 -8.9465e-6 9.804e-6 .6331 -528.34 61.499)" gradientUnits="userSpaceOnUse">
   <stop stop-color="#8e8e8b" offset="0"/>
   <stop stop-color="#c3c0c5" offset="1"/>
  </radialGradient>
 </defs>
 <g transform="translate(-23.409 -45.995)">
  <g transform="matrix(.53631 0 0 .46843 397.97 23.423)" stroke="#000">
   <path d="m-211.38 224.91-3.77 47.125-356.27-53.723s-1.885 0.94251-12.253-0.9425-81.055-16.023-89.538-20.735-21.678-9.425-20.735-13.195 5.655-16.023 38.643-11.31 314.8 27.333 314.8 27.333l129.12 25.448z" fill="url(#c)" fill-rule="evenodd"/>
   <path d="m-4.9762 200.87c-50.833 0.31263-101.39 6.3584-152.05 9.8846-18.48 1.9218-36.075 8.2776-54.474 10.649-11.502 0.22162-17.533 7.0541-16 18.207-0.8234 9.8667-1.3517 19.756-2.219 29.619 10.454 10.002 26.495 6.2454 39.26 10.842 18.171 5.5887 27.787 27.39 48.001 27.995 12.415 0.97818 24.804 2.215 37.119 3.8276 28.583 1.2045 57.532 3.9352 85.836-1.6761 21.03-1.3674 40.494-10.161 59.867-17.643 22.528-11.415 37.9-39.022 29.403-63.937-4.5996-16.053-20.957-24.471-36.534-26.197-12.648-1.9041-25.475-1.2189-38.212-1.5712zm1.5937 31.344c13.68 0.84706 32.075-2.2367 40.021 12.043 7.1653 14.989-2.1491 33.057-16.509 39.716-20.74 10.049-44.41 11.439-67.037 13.133-26.79 0.70079-55.362 3.1393-80.147-9.1475-11.408-6.0761-22.272-19.569-18.076-33.005 9.4452-7.935 23.026-11.217 35.035-14.44 16.831-2.7921 33.998-2.6612 50.871-4.8783 18.653-0.44625 37.229-2.3865 55.843-3.421z" fill="#ef6d4b"/>
  </g>
  <path d="m427.03 72.389c-1.7869 0.71291-2.2689 0.99465 0 0z"/>
 </g>
 <g transform="translate(-23.409 -45.995)" stroke="#000">
  <path d="m226.8 144.9s-97.399-15.034-168.45-24.918c-13.456-1.8719-23.43-4.1222-31.179-9.0756-2.3713-1.5159-10.195-8.2977 9.7582-7.6136s69.562 3.1727 92.231 5.7397c45.337 5.1339 99.792 10.509 99.792 10.509l50.297-20.758 10.588 25.548c0.71035-3.6776-19.792 1.0026-39.972 8.8404-14.781 5.7407-23.065 11.729-23.065 11.729z" fill="url(#b)" fill-rule="evenodd" stroke-width=".50122"/>
  <path d="m372.96 47.175c-9.6682-1.5754-19.48-0.6906-28.807 0.84201-12.687 3.5-18.981 14.413-26.902 22.877-7.4963 8.2384-16.601 15.496-27.753 19.671-6.5042 3.1478-13.5 5.6926-19.198 9.9349-2.2127 5.4266 3.6545 10.382 5.0185 15.626 1.0409 4.8525 5.901 9.9763 11.672 7.6114 8.3778-2.0949 16.271-5.3161 24.545-7.63 7.5456-3.1366 15.984-4.4179 24.068-6.2688 5.9413-0.10045 12.707-2.2554 18.236 0.95481 6.2257 3.5718 12.609 9.6369 20.409 8.0052 7.949-1.5124 12.132-8.1882 15.33-14.191 6.2401-9.3381 13.036-20.012 9.6757-31.825-2.7193-11.854-13.176-22.187-26.295-25.607zm-6.5295 9.2418c13.166 3.4491 24.143 16.846 19.824 28.654-2.4033 7.9974-10.165 13.561-19.017 15.439-7.1808 1.9951-16.425 0.34056-21.061-5.9205-7.9005-8.8089-7.2411-20.971-2.742-30.174 3.6007-6.969 12.914-11.494 21.767-8.3303l1.2282 0.33222z" fill="#ef6d4b" stroke-width=".7"/>
  <path d="m220.09 140.48c-5.3434-2.0216-7.9781-6.9501-6.1435-11.492 1.0398-2.5742 2.0522-3.5212 5.3042-4.9616 4.5572-2.0184 9.9059-0.75093 12.675 3.0035 1.5274 2.0711 1.6415 2.5023 1.423 5.3757-0.31599 4.1558-1.5216 5.9074-5.1845 7.5328-3.2568 1.4452-5.3193 1.5835-8.0738 0.54136z" fill="url(#a)"/>
 </g>
</svg>
