<?xml version="1.0" encoding="UTF-8"?>
<svg viewBox="0 0 481.42859 1501.4286" xmlns="http://www.w3.org/2000/svg">
 <g transform="translate(-186.43 158.35)">
  <path d="m292.86-153.35h268.57c56.191 0 101.43 45.237 101.43 101.43 0 560.07-60 1288.6-60 1288.6 0 56.191-45.237 101.43-101.43 101.43h-148.57c-56.191 0-101.43-45.237-101.43-101.43 0 0-60-774.29-60-1288.6-0.036-56.191 45.237-101.43 101.43-101.43z" fill="#eeeeec" stroke="#2e3436" stroke-linecap="square" stroke-linejoin="round" stroke-width="10"/>
  <path transform="translate(15.714)" d="m331.43 433.79a40 40 0 1 1 -80 0 40 40 0 1 1 80 0z" fill="#2e3436"/>
  <path transform="translate(135.71)" d="m331.43 433.79a40 40 0 1 1 -80 0 40 40 0 1 1 80 0z" fill="#2e3436"/>
  <path transform="translate(255.71)" d="m331.43 433.79a40 40 0 1 1 -80 0 40 40 0 1 1 80 0z" fill="#2e3436"/>
  <path transform="translate(255.71 120)" d="m331.43 433.79a40 40 0 1 1 -80 0 40 40 0 1 1 80 0z" fill="#2e3436"/>
  <path transform="translate(135.71 120)" d="m331.43 433.79a40 40 0 1 1 -80 0 40 40 0 1 1 80 0z" fill="#2e3436"/>
  <path transform="translate(15.714 120)" d="m331.43 433.79a40 40 0 1 1 -80 0 40 40 0 1 1 80 0z" fill="#2e3436"/>
  <path transform="translate(15.714 240)" d="m331.43 433.79a40 40 0 1 1 -80 0 40 40 0 1 1 80 0z" fill="#2e3436"/>
  <path transform="translate(135.71 240)" d="m331.43 433.79a40 40 0 1 1 -80 0 40 40 0 1 1 80 0z" fill="#2e3436"/>
  <path transform="translate(255.71 240)" d="m331.43 433.79a40 40 0 1 1 -80 0 40 40 0 1 1 80 0z" fill="#2e3436"/>
  <path transform="translate(255.71 360)" d="m331.43 433.79a40 40 0 1 1 -80 0 40 40 0 1 1 80 0z" fill="#888a85"/>
  <path transform="translate(135.71 360)" d="m331.43 433.79a40 40 0 1 1 -80 0 40 40 0 1 1 80 0z" fill="#2e3436"/>
  <path transform="matrix(.64286 0 0 .64286 339.8 634.92)" d="m331.43 433.79a40 40 0 1 1 -80 0 40 40 0 1 1 80 0z" fill="#888a85"/>
  <path transform="matrix(.64286 0 0 .64286 139.8 634.92)" d="m331.43 433.79a40 40 0 1 1 -80 0 40 40 0 1 1 80 0z" fill="#888a85"/>
  <path transform="matrix(.64286 0 0 .64286 119.8 34.925)" d="m331.43 433.79a40 40 0 1 1 -80 0 40 40 0 1 1 80 0z" fill="#888a85"/>
  <path transform="matrix(.64286 0 0 .64286 119.8 -85.075)" d="m331.43 433.79a40 40 0 1 1 -80 0 40 40 0 1 1 80 0z" fill="#888a85"/>
  <path transform="translate(15.714 -400)" d="m331.43 433.79a40 40 0 1 1 -80 0 40 40 0 1 1 80 0z" fill="#2e3436"/>
  <path transform="matrix(.64286 0 0 .64286 239.8 -239.08)" d="m331.43 433.79a40 40 0 1 1 -80 0 40 40 0 1 1 80 0z" fill="#888a85"/>
  <path transform="matrix(.64286 0 0 .64286 359.8 -239.08)" d="m331.43 433.79a40 40 0 1 1 -80 0 40 40 0 1 1 80 0z" fill="#888a85"/>
  <path d="m410 145.22h35.714a21.429 21.429 0 0 1 21.429 21.429v154.29a21.429 21.429 0 0 1 -21.429 21.429h-35.714a21.429 21.429 0 0 1 -21.429 -21.429v-154.29a21.429 21.429 0 0 1 21.429 -21.429" fill="#2e3436"/>
  <path d="m528.57 145.22h35.714a21.429 21.429 0 0 1 21.429 21.429v154.29a21.429 21.429 0 0 1 -21.429 21.429h-35.714a21.429 21.429 0 0 1 -21.429 -21.429v-154.29a21.429 21.429 0 0 1 21.429 -21.429" fill="#2e3436"/>
  <path d="m296.74-36.603c-6.8371-1.3724-11.598-6.2723-13.084-13.466-0.87216-4.2226 0.75296-10.088 3.815-13.77 2.2012-2.6464 7.8259-5.5255 8.9585-4.5856 1.0711 0.8889 0.41326 1.7905-2.2326 3.0601-4.562 2.1891-7.1934 5.7582-7.9121 10.732-0.85541 5.9193 2.2254 11.676 7.6289 14.255 8.5175 4.065 18.134-1.588 19.123-11.242 0.58305-5.6908-2.7806-11.362-8.1946-13.817-2.2911-1.0388-2.8657-1.7075-2.2632-2.6338 0.5084-0.7816 1.7918-0.58359 4.3362 0.66903 2.5656 1.263 5.7822 4.4728 7.1119 7.0967 4.1493 8.1883 0.72177 18.449-7.4603 22.334-3.3256 1.5789-6.5438 2.0268-9.8268 1.3678zm2.0573-19.162c-0.45948-0.45948-0.53249-1.8732-0.53249-10.311s0.07301-9.8514 0.53249-10.311c0.66876-0.66876 0.97711-0.66876 1.6459 0 0.45948 0.45947 0.53249 1.8732 0.53249 10.311s-0.07301 9.8514-0.53249 10.311c-0.29287 0.29287-0.66319 0.53249-0.82293 0.53249s-0.53007-0.23962-0.82294-0.53249z" stroke="#000" stroke-width="3"/>
  <path d="m402.86 257.01h50v-27.5l-50 27.5z" fill="none" stroke="#eeeeec" stroke-width="10"/>
  <path d="m527.76 198.79 19.162-33.19 18.165 31.463" fill="none" stroke="#eeeeec" stroke-width="10"/>
  <path d="m527.76 280.6 19.162 33.19 18.165-31.463" fill="none" stroke="#eeeeec" stroke-width="10"/>
  <g transform="translate(4.2857 -1.047)" fill="none" stroke="#eeeeec" stroke-width="10">
   <path d="m423.57 208.43v-41.786"/>
   <path d="m402.68 187.54h41.786"/>
  </g>
  <path d="m406.96 307.54h41.786" fill="none" stroke="#eeeeec" stroke-width="10"/>
  <path d="m357.75178,1116.9259c-2e-005,1.24-.21124,2.4392-.63365,3.5975-.40883,1.1446-1.04249,2.1599-1.90096,3.0456s-1.94868,1.5944-3.27047,2.1258c-1.32183.5178-2.88893.7767-4.7013.7767h-7.15415v10.1385h-6.02992v-28.8006h12.93879c1.83962,0 3.43397.2249 4.78306.6746 1.34904.436 2.46645,1.0561 3.35223,1.86s1.53982,1.7647 1.96228,2.8821c.43604,1.1175.65407,2.3507.65409,3.6998m-6.0708.1022c-3e-005-1.4854-.44971-2.6096-1.34907-3.3727-.88577-.7767-2.22121-1.1651-4.00633-1.1651h-6.23433v9.3413h6.39786c.89936,0 1.66928-.1159 2.30976-.3475 .65408-.2317 1.19234-.5587 1.6148-.9812 .43604-.4224.75627-.9266.9607-1.5126 .20438-.5995.30658-1.2536.30661-1.9622m15.5756,19.9907c-1.06291,0-2.01679-.1431-2.86166-.4293-.83125-.2997-1.53985-.729-2.1258-1.2877-.58596-.5723-1.03565-1.2741-1.34907-2.1054s-.47013-1.7783-.47013-2.8412c0-1.3082.22484-2.4051.67453-3.2909 .46332-.8994 1.09016-1.6216 1.88052-2.1667 .79036-.5587 1.71699-.9607 2.7799-1.206 1.0629-.2589 2.19393-.3951 3.39311-.4088l4.76262-.0817v-1.1243c-1e-005-.8039-.07496-1.4717-.22484-2.0031-.13629-.5451-.34069-.988-.61321-1.3286s-.61323-.5792-1.02203-.7155c-.39519-.1498-.85169-.2248-1.36951-.2248-.47695,0-.9062.0477-1.28774.1431-.36794.0954-.68817.2657-.9607.511-.27255.2317-.49739.5519-.67454.9607-.16353.3952-.27936.8994-.34748,1.5126l-5.98905-.2862c.16352-.9675.46331-1.8464.89938-2.6368 .43606-.804 1.03564-1.499 1.79876-2.0849 .77673-.586 1.7238-1.0357 2.84122-1.3491 1.13102-.327 2.45284-.4905 3.96544-.4906 1.37631.0001 2.60273.1704 3.67928.511s1.98952.8517 2.73901,1.5331c.74947.6677 1.3218,1.4921 1.717,2.4733s.59275,2.119.59277,3.4135v8.0535c-2e-005,.5179.02042.9812.06132,1.39 .05449.4088.14307.7563.26573,1.0425 .13625.2725.32021.4837.55189.6336 .24527.1363.55869.2044.94026.2044 .43604,0 .85848-.0409 1.26731-.1226v3.1069l-.91982.2249c-.27256.0681-.5451.1226-.81762.1635s-.56554.0749-.87894.1022c-.29981.0272-.65411.0409-1.0629.0409-1.44447,0-2.51419-.3543-3.20915-1.0629-.68136-.7086-1.09017-1.7511-1.22642-3.1274h-.12264c-.76313,1.3763-1.74427,2.446-2.94343,3.2091-1.18555.7631-2.63001,1.1447-4.33337,1.1447m6.68402-10.6495-2.94342.0409c-.61322.0273-1.19918.0818-1.75788.1635-.54508.0682-1.02884.2249-1.45127.4702-.40881.2316-.73586.5723-.98114,1.022s-.36793,1.0629-.36792,1.8396c-1e-005,1.0493.23846,1.8329.71541,2.3507 .49056.5042 1.13784.7563 1.94184.7563 .73585,0 1.40357-.1567 2.00316-.4702s1.10377-.7222 1.51259-1.2264c.42243-.5178.74947-1.1106.98115-1.7783s.34747-1.3491.34748-2.044v-1.1243m25.8367,10.2407v-12.4074c-1e-005-.8584-.06815-1.642-.2044-2.3506-.13629-.7222-.36113-1.3354-.67453-1.8396-.31344-.5179-.72225-.9198-1.22643-1.206s-1.11742-.4293-1.83964-.4293c-.69499,0-1.32864.1568-1.90096.4702-.55871.2998-1.04247.7358-1.45127,1.3081-.40882.5588-.72905,1.2333-.9607,2.0236-.21804.7768-.32706,1.6353-.32705,2.5755v11.8555h-5.74376v-17.17c0-.4769-.00681-.9675-.02044-1.4717 0-.5042-.01363-.9811-.04088-1.4308-.01363-.4633-.02726-.8721-.04088-1.2264-.01363-.3679-.03407-.6405-.06132-.8177h5.47803c.02725.1636.0545.4293.08177.7972 .02724.3543.0545.7495.08176,1.1856s.04768.8721.06132,1.3081c.02724.4361.04087.8041.04088,1.1038h.08176c.77673-1.6897 1.75105-2.9161 2.92298-3.6792s2.56867-1.1447 4.19029-1.1447c1.33543,0 2.45965.218 3.37267.6541 .92661.4361 1.6761,1.0357 2.24845,1.7987 .58594.7632 1.00837,1.6625 1.26731,2.6982s.38834,2.1531.38836,3.3522v14.0426h-5.72332m16.37279.4088c-1.06291,0-2.01679-.1431-2.86166-.4293-.83125-.2997-1.53985-.729-2.1258-1.2877-.58596-.5723-1.03565-1.2741-1.34907-2.1054s-.47013-1.7783-.47013-2.8412c0-1.3082.22484-2.4051.67453-3.2909 .46332-.8994 1.09016-1.6216 1.88052-2.1667 .79036-.5587 1.71699-.9607 2.7799-1.206 1.0629-.2589 2.19393-.3951 3.39311-.4088l4.76262-.0817v-1.1243c-1e-005-.8039-.07496-1.4717-.22484-2.0031-.13629-.5451-.34069-.988-.61321-1.3286s-.61323-.5792-1.02203-.7155c-.39519-.1498-.85169-.2248-1.3695-.2248-.47696,0-.90621.0477-1.28775.1431-.36794.0954-.68817.2657-.9607.511-.27255.2317-.49739.5519-.67454.9607-.16353.3952-.27936.8994-.34748,1.5126l-5.98905-.2862c.16352-.9675.46331-1.8464.89938-2.6368 .43606-.804 1.03564-1.499 1.79876-2.0849 .77673-.586 1.7238-1.0357 2.84122-1.3491 1.13103-.327 2.45284-.4905 3.96544-.4906 1.37631.0001 2.60273.1704 3.67928.511s1.98952.8517 2.73902,1.5331c.74946.6677 1.32179,1.4921 1.71699,2.4733s.59275,2.119.59277,3.4135v8.0535c-2e-005,.5179.02042.9812.06133,1.39 .05448.4088.14306.7563.26572,1.0425 .13625.2725.32021.4837.55189.6336 .24527.1363.55869.2044.94026.2044 .43604,0 .85848-.0409 1.26731-.1226v3.1069l-.91982.2249c-.27256.0681-.5451.1226-.81762.1635s-.56554.0749-.87894.1022c-.29981.0272-.65411.0409-1.0629.0409-1.44447,0-2.51419-.3543-3.20915-1.0629-.68136-.7086-1.09017-1.7511-1.22642-3.1274h-.12264c-.76313,1.3763-1.74427,2.446-2.94343,3.2091-1.18555.7631-2.63001,1.1447-4.33337,1.1447m6.68402-10.6495-2.94342.0409c-.61322.0273-1.19918.0818-1.75788.1635-.54508.0682-1.02884.2249-1.45127.4702-.40881.2316-.73586.5723-.98114,1.022s-.36793,1.0629-.36792,1.8396c-1e-005,1.0493.23846,1.8329.71541,2.3507 .49056.5042 1.13784.7563 1.94184.7563 .73585,0 1.40357-.1567 2.00316-.4702s1.10377-.7222 1.5126-1.2264c.42242-.5178.74946-1.1106.98114-1.7783s.34747-1.3491.34748-2.044v-1.1243m11.50796,10.2407v-30.3336h5.74376v30.3336h-5.74376m32.62292-11.0787c-2e-005,1.6897-.23849,3.2364-.71541,4.64-.46334,1.4035-1.16513,2.6163-2.10537,3.6383-.94028,1.0084-2.11219,1.7988-3.51575,2.3711-1.40359.5587-3.03882.8381-4.9057.8381-1.79877,0-3.38631-.2794-4.76262-.8381s-2.53462-1.3422-3.47488-2.3506c-.92663-1.0084-1.62842-2.2144-2.10536-3.618-.47694-1.4172-.71542-2.9774-.71541-4.6808-1e-005-1.6489.22484-3.1683.67453-4.5582 .46331-1.4036 1.15829-2.6164 2.08492-3.6384s2.09173-1.8192 3.49532-2.3916 3.04561-.8584 4.92614-.8585c1.98952.0001 3.68607.2862 5.08967.8585s2.54822,1.3696 3.43399,2.3916c.89936,1.0084 1.55345,2.2144 1.96228,3.6179 .42241,1.39.63363,2.9162.63365,4.5787m-6.00948,0c-2e-005-2.63-.42927-4.5378-1.28775-5.7233s-2.10538-1.7783-3.7406-1.7784c-1.68975.0001-2.98431.5996-3.88368,1.7988s-1.34908,3.1001-1.34907,5.7029c-1e-005,1.3218.11582,2.4596.34749,3.4135 .24528.9539.58595,1.7375 1.02202,2.3507s.96069,1.0697 1.57391,1.3695c.61321.2862 1.28774.4292 2.02361.4292 .84485,0 1.59434-.143 2.24844-.4292 .66771-.2998 1.22641-.7563 1.67612-1.3695s.79034-1.3968 1.02202-2.3507 .34747-2.0917.34749-3.4135m19.84765,19.9498c-1.45809,0-2.74584-.1499-3.86324-.4497-1.10379-.2861-2.05086-.6949-2.84122-1.2264-.77674-.5178-1.40358-1.1447-1.88052-1.8805-.46332-.7222-.78355-1.5194-.9607-2.3915l5.74376-.6746c.2044.8858.64046,1.5808 1.30819,2.085 .68134.5041 1.56709.7562 2.65726.7563 .68133-.0001 1.30136-.0954 1.86007-.2862 .57232-.1908 1.05608-.5178 1.45128-.9812 .40879-.4496.72221-1.0492.94026-1.7987 .23164-.7495.34747-1.6761.34748-2.7799-1e-005-.3816-1e-005-.7699 0-1.1651s.0068-.7563.02044-1.0834c.01361-.3815.02043-.7494.02044-1.1037h-.04088c-.66773,1.4308-1.60799,2.4664-2.82078,3.1069-1.19918.6405-2.63001.9607-4.29249.9607-1.40358,0-2.61638-.2725-3.63839-.8176-1.0084-.5587-1.84646-1.3286-2.51418-2.3098-.66772-.9947-1.1651-2.1735-1.49215-3.5362-.31342-1.3763-.47013-2.8889-.47013-4.5378 0-1.7033.17034-3.2432.51101-4.6195 .34067-1.3899.8585-2.5823 1.55348-3.5771 .70859-.9947 1.59434-1.7578 2.65725-2.2893 1.07652-.545 2.35064-.8176 3.82236-.8176s2.7867.3134 3.945.9403c1.17191.6268 2.08491,1.642 2.73902,3.0456h.1022c-1e-005-.2862.0068-.6132.02045-.9812 .02723-.3815.05449-.7426.08176-1.0833 .02723-.3543.05449-.6677.08176-.9403 .04086-.2725.07493-.4564.1022-.5519h5.43715c-.02727.4906-.05453,1.1788-.08176,2.0645s-.0409,1.901-.04088,3.0456v16.332c-2e-005,1.6079-.23168,3.0047-.69497,4.1902-.46334,1.1992-1.14469,2.194-2.04405,2.9843-.88577.7904-1.98273,1.3832-3.2909,1.7784-1.29458.3951-2.7731.5927-4.43558.5927m4.8035-20.236c-1e-005-1.3899-.13628-2.5482-.40881-3.4749s-.62685-1.6693-1.0629-2.228-.94027-.9538-1.51259-1.1855c-.55872-.2317-1.12424-.3475-1.69655-.3475-.73587,0-1.38997.1431-1.96229.4292-.55871.2862-1.03565.7291-1.43083,1.3287s-.69498,1.3627-.89938,2.2893-.30661,2.0304-.3066,3.3113c-1e-005,2.3848.38155,4.1835 1.14466,5.3963s1.90095,1.8192 3.41355,1.8192c.57232,0 1.13784-.109 1.69656-.327 .57232-.2317 1.08333-.6269 1.53303-1.1856 .44968-.5723.81079-1.3286 1.08334-2.2689s.4088-2.1258.40881-3.5566m11.5284-14.7375v-4.2312h5.74376v4.2312h-5.74376m0,26.1024v-22.1166h5.74376v22.1166h-5.74376m20.82881.4088c-1.75789,0-3.29774-.2725-4.61954-.8176-1.3082-.5451-2.39835-1.315-3.27047-2.3098s-1.52622-2.1871-1.96228-3.5771c-.43607-1.4035-.6541-2.9502-.6541-4.6399 0-1.8397.23847-3.4749.71542-4.9057 .47694-1.4445 1.1651-2.6573 2.06448-3.6384 .89938-.9948 2.00316-1.7511 3.31135-2.2689 1.32181-.5178 2.82077-.7767 4.4969-.7768 1.43081.0001 2.69812.1908 3.80192.5724 1.11739.3815 2.07809.9062 2.8821,1.5739 .80397.6541 1.45125,1.4308 1.94184,2.3302 .50417.8994.85166,1.8669 1.04246,2.9025l-5.78464.2862c-.16354-1.131-.57235-2.0304-1.22643-2.6981-.6541-.6814-1.58074-1.022-2.7799-1.0221-1.53985.0001-2.66407.6337-3.37267,1.901s-1.06291,3.107-1.0629,5.5189c-1e-005,5.0965 1.50577,7.6447 4.51734,7.6447 1.09014,0 2.00314-.3406 2.73901-1.022 .73584-.695 1.19235-1.7238 1.36951-3.0865l5.7642.2657c-.13629,1.0221-.44971,2.0032-.94026,2.9435-.47696.9266-1.13105,1.751-1.96228,2.4732-.81763.7086-1.8124,1.281-2.9843,1.717-1.17193.4225-2.51419.6337-4.02676.6337"/>
  <text x="288.315" y="455.69699" fill="#babdb6" font-family="Liberation Sans" font-size="63.682">
   <tspan x="288.315" y="455.69699" fill="#babdb6" font-weight="bold">1</tspan>
  </text>
  <text x="409.60501" y="456.02301" fill="#babdb6" font-family="Liberation Sans" font-size="63.682">
   <tspan x="409.60501" y="456.02301" fill="#babdb6" font-weight="bold">2</tspan>
  </text>
  <text x="529.854" y="455.66599" fill="#babdb6" font-family="Liberation Sans" font-size="63.682">
   <tspan x="529.854" y="455.66599" fill="#babdb6" font-weight="bold">3</tspan>
  </text>
  <text x="289.12299" y="575.69702" fill="#babdb6" font-family="Liberation Sans" font-size="63.682">
   <tspan x="289.12299" y="575.69702" fill="#babdb6" font-weight="bold">4</tspan>
  </text>
  <text x="409.341" y="575.38599" fill="#babdb6" font-family="Liberation Sans" font-size="63.682">
   <tspan x="409.341" y="575.38599" fill="#babdb6" font-weight="bold">5</tspan>
  </text>
  <text x="529.41901" y="575.71198" fill="#babdb6" font-family="Liberation Sans" font-size="63.682">
   <tspan x="529.41901" y="575.71198" fill="#babdb6" font-weight="bold">6</tspan>
  </text>
  <text x="289.466" y="695.69702" fill="#babdb6" font-family="Liberation Sans" font-size="63.682">
   <tspan x="289.466" y="695.69702" fill="#babdb6" font-weight="bold">7</tspan>
  </text>
  <text x="409.40302" y="695.71198" fill="#babdb6" font-family="Liberation Sans" font-size="63.682">
   <tspan x="409.40302" y="695.71198" fill="#babdb6" font-weight="bold">8</tspan>
  </text>
  <text x="529.51202" y="695.71198" fill="#babdb6" font-family="Liberation Sans" font-size="63.682">
   <tspan x="529.51202" y="695.71198" fill="#babdb6" font-weight="bold">9</tspan>
  </text>
  <text x="409.48099" y="815.71198" fill="#babdb6" font-family="Liberation Sans" font-size="63.682">
   <tspan x="409.48099" y="815.71198" fill="#babdb6" font-weight="bold">0</tspan>
  </text>
 </g>
</svg>
