<?xml version="1.0" encoding="UTF-8"?>
<svg viewBox="0 0 80 300" xmlns="http://www.w3.org/2000/svg">
 <defs>
  <filter id="f" x="-.11558" y="-.56671" width="1.2312" height="2.1334">
   <feGaussianBlur stdDeviation="3.66"/>
  </filter>
  <linearGradient id="e" x1="252.39" x2="324.83" gradientUnits="userSpaceOnUse">
   <stop stop-color="#dbdbdd" offset="0"/>
   <stop stop-color="#e8e8ea" offset=".10994"/>
   <stop stop-color="#e5e5e7" offset=".27757"/>
   <stop stop-color="#a9aaae" offset=".77551"/>
   <stop stop-color="#7f8082" offset="1"/>
  </linearGradient>
  <linearGradient id="d" x1="262.37" x2="312.67" y1="412.49" y2="456.5" gradientUnits="userSpaceOnUse">
   <stop stop-color="#262628" offset="0"/>
   <stop stop-color="#141416" offset="1"/>
  </linearGradient>
  <linearGradient id="c" x1="283.5" x2="294.42" y1="465.99" y2="423.16" gradientUnits="userSpaceOnUse">
   <stop stop-color="#626367" offset="0"/>
   <stop stop-color="#070709" offset="1"/>
  </linearGradient>
  <linearGradient id="b" x2="0" y1="401.26" y2="462.62" gradientUnits="userSpaceOnUse">
   <stop stop-color="#9c9da1" offset="0"/>
   <stop stop-color="#dedee0" offset="1"/>
  </linearGradient>
  <radialGradient id="a" cx="40" cy="288.25" r="46.47" gradientTransform="matrix(1 0 0 .23025 0 221.88)" gradientUnits="userSpaceOnUse">
   <stop offset="0"/>
   <stop stop-opacity="0" offset="1"/>
  </radialGradient>
 </defs>
 <path transform="matrix(.96424 0 0 .33582 2.2121 195.4)" d="m2 280.5h76v15.5h-76z" fill="url(#a)" fill-rule="evenodd" filter="url(#f)" opacity=".23529"/>
 <g transform="translate(-248.09 -510.22)">
  <path d="m263.04 514.68h51.102c5.54 0 10 4.46 10 10v267.77c0 5.54-4.46 10-10 10h-51.102c-5.54 0-10-4.46-10-10v-267.77c0-5.54 4.46-10 10-10z" fill="url(#e)" fill-rule="evenodd"/>
  <path transform="matrix(.42537 0 0 .42537 183.9 443.43)" d="m320.36 433.97c0 17.653-14.311 31.964-31.964 31.964s-31.964-14.311-31.964-31.964 14.311-31.964 31.964-31.964 31.964 14.311 31.964 31.964z" fill="#171719" fill-rule="evenodd"/>
  <path transform="matrix(1.0224 0 0 1.0224 -6.4445 130.3)" d="m320.36 433.97c0 17.653-14.311 31.964-31.964 31.964s-31.964-14.311-31.964-31.964 14.311-31.964 31.964-31.964 31.964 14.311 31.964 31.964z" fill="url(#d)" fill-rule="evenodd"/>
  <path transform="matrix(.42537 0 0 .42537 146.91 443.43)" d="m320.36 433.97c0 17.653-14.311 31.964-31.964 31.964s-31.964-14.311-31.964-31.964 14.311-31.964 31.964-31.964 31.964 14.311 31.964 31.964z" fill="url(#c)" fill-rule="evenodd"/>
  <path transform="matrix(.48045 0 0 .48045 149.48 366.01)" d="m320.36 433.97c0 17.653-14.311 31.964-31.964 31.964s-31.964-14.311-31.964-31.964 14.311-31.964 31.964-31.964 31.964 14.311 31.964 31.964z" fill="url(#b)" fill-rule="evenodd"/>
  <path d="m273.44172,628.47927v-2.44414l.95683-.0864v2.37216c0,.39277.16649.58916.49946.58916l.0764-.004c.20893-.0177.34053-.0871.3948-.2082s.0814-.26173.0814-.42194v-2.23151l.9668-.0864v2.41756c0,.45996-.13769.80918-.41308,1.04765s-.63051.37063-1.06536.38539h-.0687c-.26579,0-.50316-.0484-.71209-.14507-.22666-.10558-.40201-.26136-.52604-.46735-.12699-.20229-.19048-.44113-.19048-.71652zm-3.66787,1.29793v-3.97795l2.3046,2.09086v-1.84612l.92029-.0952v4.00454l-2.28578-2.04989v1.79185zm-2.90595-.082v-3.65126h2.17725l.18605.80733h-1.42418v.57588h1.02439v.80733h-1.03325v.65339h1.53271l-.24032.80733zm-4.74874,0 .99781-3.84617 1.17058,2.39431 1.21597-2.38545 .9657,3.82845-.93912.082-.30344-1.62462-.93911,1.84168-.91143-1.8594-.3267,1.67335z" fill="#fff"/>
  <path d="m302.84 626.16 3.5111 1.8019-3.4949 1.8859-0.0162-3.6878zm5.5606 3.6878v-3.6878h1.0362v3.6878h-1.0362zm2.0144 0v-3.6878h1.0362v3.6878h-1.0362z" fill="#fff"/>
  <path transform="matrix(1.3111 0 0 1.3111 -89.707 13.84)" d="m289.33925,405.51416c0,.54917-.4452.99437-.99437.99437s-.99437-.4452-.99437-.99437 .44519-.99437.99437-.99437 .99437.4452.99437.99437z" fill="#fff" fill-rule="evenodd"/>
  <path transform="matrix(1.3111 0 0 1.3111 -61.423 42.831)" d="m289.33925,405.51416c0,.54917-.4452.99437-.99437.99437s-.99437-.4452-.99437-.99437 .44519-.99437.99437-.99437 .99437.4452.99437.99437z" fill="#fff" fill-rule="evenodd"/>
  <path transform="matrix(1.3111 0 0 1.3111 -118.17 42.831)" d="m289.33925,405.51416c0,.54917-.4452.99437-.99437.99437s-.99437-.4452-.99437-.99437 .44519-.99437.99437-.99437 .99437.4452.99437.99437z" fill="#fff" fill-rule="evenodd"/>
  <path transform="matrix(1.3111 0 0 1.3111 -89.884 71.116)" d="m289.33925,405.51416c0,.54917-.4452.99437-.99437.99437s-.99437-.4452-.99437-.99437 .44519-.99437.99437-.99437 .99437.4452.99437.99437z" fill="#fff" fill-rule="evenodd"/>
 </g>
</svg>
