<?xml version="1.0" encoding="UTF-8"?>
<svg viewBox="0 0 744.09448819 1052.3622047" xmlns="http://www.w3.org/2000/svg">
 <defs>
  <filter id="i">
   <feGaussianBlur stdDeviation="1.3096"/>
  </filter>
  <linearGradient id="h" x1="411.08" x2="537.4" y1="650.39" y2="601.9" gradientUnits="userSpaceOnUse">
   <stop stop-color="#f82c2c" offset="0"/>
   <stop stop-color="#ffadad" offset="1"/>
  </linearGradient>
  <linearGradient id="g" x1="348.28" x2="392.06" y1="644.16" y2="633.44" gradientUnits="userSpaceOnUse">
   <stop stop-color="#faa" offset="0"/>
   <stop stop-color="#faa" stop-opacity="0" offset="1"/>
  </linearGradient>
  <linearGradient id="f" x1="204.34" x2="282.86" gradientUnits="userSpaceOnUse">
   <stop stop-color="#ef5555" offset="0"/>
   <stop stop-color="#ef5555" stop-opacity="0" offset="1"/>
  </linearGradient>
  <linearGradient id="e" x1="467.21" x2="406.83" y1="541.93" y2="544.79" gradientUnits="userSpaceOnUse">
   <stop stop-color="#6a3c1d" offset="0"/>
   <stop stop-color="#6a3c1d" stop-opacity="0" offset="1"/>
  </linearGradient>
  <linearGradient id="d" x1="246.31" x2="443.26" y1="371.68" y2="575.96" gradientUnits="userSpaceOnUse">
   <stop stop-color="#8d5027" offset="0"/>
   <stop stop-color="#deaa87" offset=".5"/>
   <stop stop-color="#8d5027" offset="1"/>
  </linearGradient>
  <linearGradient id="c" x1="269.37" x2="309.11" y1="370.51" y2="419" gradientUnits="userSpaceOnUse">
   <stop stop-color="#6a3c1d" offset="0"/>
   <stop stop-color="#9c582b" offset="1"/>
  </linearGradient>
  <linearGradient id="b" x1="269.71" x2="402.66" y1="578.54" y2="475.51" gradientUnits="userSpaceOnUse">
   <stop stop-color="#800000" offset="0"/>
   <stop stop-color="#800000" stop-opacity="0" offset="1"/>
  </linearGradient>
  <radialGradient id="a" cx="476.46" cy="532.14" r="37.858" gradientTransform="matrix(-.08393 .56713 -1.6119 -.23856 1374.2 399.37)" gradientUnits="userSpaceOnUse">
   <stop stop-color="#f55" offset="0"/>
   <stop stop-color="#f55" stop-opacity="0" offset="1"/>
  </radialGradient>
 </defs>
 <path d="m542.06 591.72-197.59 2.0312c-0.62957 0 25.67 71.638 57.594 79.812 40.219 10.299 140.95-52.653 133.31-54.562l6.0625-23.375c0.38117-1.9458 0.46523-3.1702 0.25-3.625 0.13426-0.05767 0.2644-0.1728 0.375-0.28125z" fill="#ca0000"/>
 <path d="m259.1 651.78v9.0914c-0.83542 2.1674-12.981 4.3654-15.737-1.0102v-10.607z" fill="#502d16"/>
 <path d="m257.67 651.22c-3.6998 2-8.4238 1.9517-14.814-1.4286-0.30593-29.127-0.83639-99.348-11.576-141.7s-30.812-62.929-26.281-66.446c41.213 16.216 96.288 32.408 77.857 63.571-32.451-11.178-21.458 107.71-25.186 146z" fill="#bc0000"/>
 <path d="m251.53 346.25c-18.922-0.77316-51.82 49.976-46.469 95.969 36.238 42.84 88.707 57.31 113.12 98 10.825 18.132 21.155 26.387 27.094 49.406 33.307 59.434 89.932 33.996 129.5 27.375 22.655-3.7907 62.35-22.631 66.969-24.844-0.01535-0.05622-0.04199-0.11291-0.0625-0.15625 0.7058-0.30316 1.0608-1.4075 1.3438-2.5938 0.60925-3.8684 0.95943-7.421 1-10.688 0.0486-3.913-0.29598-7.4256-1.0625-10.562s-1.9506-5.9188-3.5312-8.375-3.575-4.5978-5.9688-6.4688-5.2004-3.4626-8.4062-4.8438-6.7956-2.5443-10.812-3.5312-8.4542-1.7806-13.281-2.4688-10.051-1.2652-15.688-1.75c-7.1644-0.61625-25.212-7.8231-30.719-5.5625 14.727 3.4936 20.085 6.3318-1.0312 16.156-62.875 29.253-109.37-59.518-149.47-118.19-19.073-27.908-38.853-62.998-54.562-80.812-1.4085-1.5972 2.0312-6.0625 2.0312-6.0625z" fill="#c60303"/>
 <path d="m535.38 619.01c7.6399 1.91-93.501 66.299-133.32 54.548-27.703-8.1749-45.715-52.92-56.104-80.307-6.9951-18.44-11.083-33.679-29.528-55.886-12.142-14.618-27.433-37.961-45-30.714-17.924 7.394-12.985 145.06-12.857 145.13" fill="none" stroke="#513810" stroke-width="2.9"/>
 <path d="m251.53 346.27s-3.4288 4.4637-2.0203 6.0609c15.709 17.814 35.475 52.904 54.548 80.812 40.097 58.67 86.607 147.44 149.48 118.19 21.116-9.8245 15.757-12.669 1.0305-16.162-93.353-5.1571-108.19-115.99-203.04-188.9z" fill="url(#d)"/>
 <path d="m251.67 649.22c-3.6998 2-2.4238 1.9517-8.8139-1.4286-0.30593-29.127-0.83639-97.348-11.576-139.7s-30.812-62.929-26.281-66.446c15.102 23.646 53.508 45.571 77.857 63.571-55.721-32.786-28.129 105.09-31.186 144z" fill="url(#f)"/>
 <path d="m236.8 534.68c-1.8212-9.4287-2.8567-16.561-5.5153-26.585-11.201-42.232-30.812-62.929-26.281-66.446 7.4281 11.735 18.772 23.881 24.026 30.408 7.2945 9.0623 9.5638 44.301 7.7707 62.624z" fill="#facbcb" opacity=".66"/>
 <path d="m453.54 551.33c10.558-4.9122 14.497-8.0795 13.956-10.455s-5.5625-3.9603-12.926-5.7071c-15.455-0.84153-33.333-6.6042-40.918-9.3675-11.766-4.2863 14.889 39.447 39.887 25.53z" fill="url(#e)"/>
 <path d="m251.53 346.27s-3.4288 4.4637-2.0203 6.0609c15.709 17.814 35.475 52.904 54.548 80.812 6.9881-8.9254 10.703-11.305 15.152-15.152-21.632-28.391-25.356-38.204-67.68-71.721z" fill="url(#c)"/>
 <path d="m453.54 551.33c21.116-9.8245 15.757-12.669 1.0305-16.162 5.507-2.2606 23.544 4.9396 30.708 5.5558 118.21 13.882-45.223 67.198-31.739 10.607z" fill="url(#a)"/>
 <path d="m541.72 592.09c-26.561 13.428-62.979 30.654-135.62 37.031-0.62957 0 4.0396 39.858 17.188 41.406 26.656 3.1384 119.73-49.621 112.09-51.531l6.0625-23.375c0.35977-1.8366 0.45438-3.0269 0.28125-3.5312z" fill="url(#h)" opacity=".74"/>
 <path d="m508.11 636.18-18.183 9.0914 9.0914-7.0711-11.112 1.5152 9.0914-6.0609h-6.0609l5.0508-4.5457s-28.789 5.5558-16.162 1.5152l12.627-4.0406-9.5965-0.50507 8.5863-4.0406s-37.881 7.5761-19.193 1.0102l18.688-6.566-10.607 1.0102 23.234-8.0812-5.5558 6.566 12.122-3.0305-9.5964 7.5761 14.142-0.50507-11.112 5.5558 23.739-7.5761-25.254 11.617 18.688-4.0406-19.193 11.112 21.213-8.0812z" fill="#fff" opacity=".82"/>
 <path d="m402.06 672.04c-15.962-4.0874-27.489-22.523-37.977-41.451s-15.391-34.31-15.077-34.31c12.123 20.983 23.125 21.823 33.3 34.549s-2.195 18.144 19.753 41.212z" fill="url(#g)"/>
 <path d="m250.62 346.25c-19.044 0.81031-50.83 50.695-45.562 95.969 36.238 42.84 88.707 57.31 113.12 98 10.825 18.132 21.155 26.387 27.094 49.406 17.694 31.574 41.979 39.192 66.781 38.406 1.459-0.0462 2.9136-0.11753 4.375-0.21875 20.46-1.4171 41.033-7.9159 58.344-10.812 22.655-3.7907 62.35-22.631 66.969-24.844-0.0154-0.0562-0.042-0.11291-0.0625-0.15625 0.7058-0.30316 1.0608-1.4075 1.3438-2.5938 2.3554-9.9614-103.03 28.81-137.84 10.28-35.728-19.015-61.274-86.901-115.83-120.24-44.816-27.39-74.476-96.799-39.858-127.13-1.4085-1.5972 2.0312-6.0625 2.0312-6.0625-0.29566-0.0121-0.60396-0.0129-0.90625 0z" fill="#800000" opacity=".29"/>
 <path d="m205.06 442.22c36.238 42.84 88.707 57.31 113.12 98 10.825 18.132 21.155 26.387 27.094 49.406 33.307 59.434 89.932 33.996 129.5 27.375 22.655-3.7907 62.35-22.631 66.969-24.844-0.0154-0.0562-0.042-0.11291-0.0625-0.15625 0.7058-0.30316 1.0608-1.4075 1.3438-2.5938" fill="none" filter="url(#i)" stroke="#000"/>
 <path d="m205.06 442.22c36.238 42.84 88.707 57.31 113.12 98 10.825 18.132 21.155 26.387 27.094 49.406 17.694 31.574 41.979 39.192 66.781 38.406 1.459-0.0462 2.9136-0.11753 4.375-0.21875 20.46-1.4171 41.033-7.9159 58.344-10.812 22.655-3.7907 62.35-22.631 66.969-24.844-0.0154-0.0562-0.042-0.11291-0.0625-0.15625 0.7058-0.30316 1.0608-1.4075 1.3438-2.5938 2.3554-9.9614-112.12 40.932-146.94 22.402-35.728-19.015-64.768-93.873-119.87-126.3-47.538-27.979-58.902-44.762-71.163-43.286z" fill="url(#b)" opacity=".29"/>
</svg>
